<?xml version="1.0" encoding="utf-8" standalone="no"?>
<!DOCTYPE svg PUBLIC "-//W3C//DTD SVG 1.1//EN"
  "http://www.w3.org/Graphics/SVG/1.1/DTD/svg11.dtd">
<svg xmlns:xlink="http://www.w3.org/1999/xlink" width="778.800699pt" height="368.64pt" viewBox="0 0 778.800699 368.64" xmlns="http://www.w3.org/2000/svg" version="1.1">
 <metadata>
  <rdf:RDF xmlns:dc="http://purl.org/dc/elements/1.1/" xmlns:cc="http://creativecommons.org/ns#" xmlns:rdf="http://www.w3.org/1999/02/22-rdf-syntax-ns#">
   <cc:Work>
    <dc:type rdf:resource="http://purl.org/dc/dcmitype/StillImage"/>
    <dc:date>2026-03-27T19:48:15.195805</dc:date>
    <dc:format>image/svg+xml</dc:format>
    <dc:creator>
     <cc:Agent>
      <dc:title>Matplotlib v3.10.7, https://matplotlib.org/</dc:title>
     </cc:Agent>
    </dc:creator>
   </cc:Work>
  </rdf:RDF>
 </metadata>
 <defs>
  <style type="text/css">*{stroke-linejoin: round; stroke-linecap: butt}</style>
 </defs>
 <g id="figure_1">
  <g id="patch_1">
   <path d="M 0 368.64 
L 778.800699 368.64 
L 778.800699 0 
L 0 0 
L 0 368.64 
z
" style="fill: none"/>
  </g>
  <g id="axes_1">
   <g id="line2d_1">
    <path d="M 36.181955 103.098303 
L 54.172585 103.098303 
L 72.163215 103.098303 
" clip-path="url(#p5d202f8857)" style="fill: none; stroke: #000000; stroke-width: 2; stroke-linecap: round"/>
   </g>
   <g id="line2d_2">
    <path d="M 72.163215 103.098303 
L 90.153845 103.098303 
L 93.152283 94.102988 
L 99.14916 112.093618 
L 105.146036 94.102988 
L 111.142913 112.093618 
L 117.13979 94.102988 
L 123.136666 112.093618 
L 126.135105 103.098303 
L 144.125735 103.098303 
" clip-path="url(#p5d202f8857)" style="fill: none; stroke: #000000; stroke-width: 2; stroke-linecap: round"/>
   </g>
   <g id="line2d_3">
    <path d="M 144.125735 103.098303 
L 162.116364 103.098303 
L 180.106994 103.098303 
" clip-path="url(#p5d202f8857)" style="fill: none; stroke: #000000; stroke-width: 2; stroke-linecap: round"/>
   </g>
   <g id="line2d_4">
    <path d="M 180.106994 103.098303 
L 180.106994 130.084248 
L 180.106994 157.070193 
" clip-path="url(#p5d202f8857)" style="fill: none; stroke: #000000; stroke-width: 2; stroke-linecap: round"/>
   </g>
   <g id="line2d_5">
    <path d="M 180.106994 157.070193 
L 180.106994 189.813139 
M 171.111679 189.813139 
L 189.102309 189.813139 
M 171.111679 196.289766 
L 189.102309 196.289766 
M 180.106994 196.289766 
L 180.106994 229.032712 
" clip-path="url(#p5d202f8857)" style="fill: none; stroke: #000000; stroke-width: 2; stroke-linecap: round"/>
   </g>
   <g id="line2d_6">
    <path d="M 180.106994 229.032712 
L 180.106994 256.018657 
L 180.106994 283.004602 
" clip-path="url(#p5d202f8857)" style="fill: none; stroke: #000000; stroke-width: 2; stroke-linecap: round"/>
   </g>
   <g id="line2d_7">
    <path d="M 180.106994 283.004602 
L 162.116364 283.004602 
L 144.125735 283.004602 
" clip-path="url(#p5d202f8857)" style="fill: none; stroke: #000000; stroke-width: 2; stroke-linecap: round"/>
   </g>
   <g id="line2d_8">
    <path d="M 144.125735 283.004602 
L 126.135105 283.004602 
L 123.136666 291.999917 
L 117.13979 274.009287 
L 111.142913 291.999917 
L 105.146036 274.009287 
L 99.14916 291.999917 
L 93.152283 274.009287 
L 90.153845 283.004602 
L 72.163215 283.004602 
" clip-path="url(#p5d202f8857)" style="fill: none; stroke: #000000; stroke-width: 2; stroke-linecap: round"/>
   </g>
   <g id="line2d_9">
    <path d="M 72.163215 283.004602 
L 54.172585 283.004602 
L 36.181955 283.004602 
" clip-path="url(#p5d202f8857)" style="fill: none; stroke: #000000; stroke-width: 2; stroke-linecap: round"/>
   </g>
   <g id="line2d_10">
    <path d="M 180.106994 103.098303 
L 198.097624 103.098303 
L 216.088254 103.098303 
" clip-path="url(#p5d202f8857)" style="fill: none; stroke: #000000; stroke-width: 2; stroke-linecap: round"/>
   </g>
   <g id="line2d_11">
    <path d="M 216.088254 103.098303 
L 234.078884 103.098303 
L 237.077322 94.102988 
L 243.074199 112.093618 
L 249.071075 94.102988 
L 255.067952 112.093618 
L 261.064829 94.102988 
L 267.061705 112.093618 
L 270.060144 103.098303 
L 288.050774 103.098303 
" clip-path="url(#p5d202f8857)" style="fill: none; stroke: #000000; stroke-width: 2; stroke-linecap: round"/>
   </g>
   <g id="line2d_12">
    <path d="M 288.050774 103.098303 
L 306.041403 103.098303 
L 324.032033 103.098303 
" clip-path="url(#p5d202f8857)" style="fill: none; stroke: #000000; stroke-width: 2; stroke-linecap: round"/>
   </g>
   <g id="line2d_13">
    <path d="M 324.032033 103.098303 
L 324.032033 130.084248 
L 324.032033 157.070193 
" clip-path="url(#p5d202f8857)" style="fill: none; stroke: #000000; stroke-width: 2; stroke-linecap: round"/>
   </g>
   <g id="line2d_14">
    <path d="M 324.032033 157.070193 
L 324.032033 189.813139 
M 315.036718 189.813139 
L 333.027348 189.813139 
M 315.036718 196.289766 
L 333.027348 196.289766 
M 324.032033 196.289766 
L 324.032033 229.032712 
" clip-path="url(#p5d202f8857)" style="fill: none; stroke: #000000; stroke-width: 2; stroke-linecap: round"/>
   </g>
   <g id="line2d_15">
    <path d="M 324.032033 229.032712 
L 324.032033 256.018657 
L 324.032033 283.004602 
" clip-path="url(#p5d202f8857)" style="fill: none; stroke: #000000; stroke-width: 2; stroke-linecap: round"/>
   </g>
   <g id="line2d_16">
    <path d="M 324.032033 283.004602 
L 306.041403 283.004602 
L 288.050774 283.004602 
" clip-path="url(#p5d202f8857)" style="fill: none; stroke: #000000; stroke-width: 2; stroke-linecap: round"/>
   </g>
   <g id="line2d_17">
    <path d="M 288.050774 283.004602 
L 270.060144 283.004602 
L 267.061705 291.999917 
L 261.064829 274.009287 
L 255.067952 291.999917 
L 249.071075 274.009287 
L 243.074199 291.999917 
L 237.077322 274.009287 
L 234.078884 283.004602 
L 216.088254 283.004602 
" clip-path="url(#p5d202f8857)" style="fill: none; stroke: #000000; stroke-width: 2; stroke-linecap: round"/>
   </g>
   <g id="line2d_18">
    <path d="M 216.088254 283.004602 
L 198.097624 283.004602 
L 180.106994 283.004602 
" clip-path="url(#p5d202f8857)" style="fill: none; stroke: #000000; stroke-width: 2; stroke-linecap: round"/>
   </g>
   <g id="line2d_19">
    <path d="M 324.032033 103.098303 
L 342.022663 103.098303 
L 360.013293 103.098303 
" clip-path="url(#p5d202f8857)" style="fill: none; stroke: #000000; stroke-width: 2; stroke-linecap: round"/>
   </g>
   <g id="line2d_20">
    <path d="M 360.013293 103.098303 
L 378.003923 103.098303 
L 381.002361 94.102988 
L 386.999238 112.093618 
L 392.996115 94.102988 
L 398.992991 112.093618 
L 404.989868 94.102988 
L 410.986744 112.093618 
L 413.985183 103.098303 
L 431.975813 103.098303 
" clip-path="url(#p5d202f8857)" style="fill: none; stroke: #000000; stroke-width: 2; stroke-linecap: round"/>
   </g>
   <g id="line2d_21">
    <path d="M 431.975813 103.098303 
L 449.966442 103.098303 
L 467.957072 103.098303 
" clip-path="url(#p5d202f8857)" style="fill: none; stroke: #000000; stroke-width: 2; stroke-linecap: round"/>
   </g>
   <g id="line2d_22">
    <path d="M 324.032033 283.004602 
L 342.022663 283.004602 
L 360.013293 283.004602 
" clip-path="url(#p5d202f8857)" style="fill: none; stroke: #000000; stroke-width: 2; stroke-linecap: round"/>
   </g>
   <g id="line2d_23">
    <path d="M 360.013293 283.004602 
L 378.003923 283.004602 
L 381.002361 274.009287 
L 386.999238 291.999917 
L 392.996115 274.009287 
L 398.992991 291.999917 
L 404.989868 274.009287 
L 410.986744 291.999917 
L 413.985183 283.004602 
L 431.975813 283.004602 
" clip-path="url(#p5d202f8857)" style="fill: none; stroke: #000000; stroke-width: 2; stroke-linecap: round"/>
   </g>
   <g id="line2d_24">
    <path d="M 431.975813 283.004602 
L 449.966442 283.004602 
L 467.957072 283.004602 
" clip-path="url(#p5d202f8857)" style="fill: none; stroke: #000000; stroke-width: 2; stroke-linecap: round"/>
   </g>
   <g id="line2d_25">
    <path d="M 467.957072 103.098303 
L 467.957072 136.830734 
L 467.957072 170.563165 
" clip-path="url(#p5d202f8857)" style="fill: none; stroke: #000000; stroke-width: 2; stroke-linecap: round"/>
   </g>
   <g id="line2d_26">
    <path d="M 467.957072 170.563165 
L 494.943017 170.563165 
L 521.928962 170.563165 
" clip-path="url(#p5d202f8857)" style="fill: none; stroke: #000000; stroke-width: 2; stroke-linecap: round"/>
   </g>
   <g id="line2d_27">
    <path d="M 521.928962 193.051452 
L 521.928962 238.028027 
L 599.830675 193.051452 
L 521.928962 148.074878 
L 521.928962 193.051452 
M 599.830675 193.051452 
" clip-path="url(#p5d202f8857)" style="fill: none; stroke: #000000; stroke-width: 2; stroke-linecap: round"/>
   </g>
   <g id="line2d_28">
    <path d="M 528.06855 215.53974 
L 535.264802 215.53974 
" clip-path="url(#p5d202f8857)" style="fill: none; stroke: #000000; stroke-width: 2; stroke-linecap: round"/>
   </g>
   <g id="line2d_29">
    <path d="M 528.06855 170.563165 
L 535.264802 170.563165 
" clip-path="url(#p5d202f8857)" style="fill: none; stroke: #000000; stroke-width: 2; stroke-linecap: round"/>
   </g>
   <g id="line2d_30">
    <path d="M 531.666676 166.965039 
L 531.666676 174.161291 
" clip-path="url(#p5d202f8857)" style="fill: none; stroke: #000000; stroke-width: 2; stroke-linecap: round"/>
   </g>
   <g id="line2d_31">
    <path d="M 573.863437 177.939323 
L 600.849382 177.939323 
L 627.835327 177.939323 
" clip-path="url(#p5d202f8857)" style="fill: none; stroke: #000000; stroke-width: 2; stroke-linecap: round"/>
   </g>
   <g id="line2d_32">
    <path d="M 627.835327 177.939323 
L 645.825957 177.939323 
L 663.816586 177.939323 
" clip-path="url(#p5d202f8857)" style="fill: none; stroke: #000000; stroke-width: 2; stroke-linecap: round"/>
   </g>
   <g id="line2d_33">
    <path d="M 663.816586 177.939323 
L 681.807216 193.051452 
L 699.797846 208.163581 
" clip-path="url(#p5d202f8857)" style="fill: none; stroke: #000000; stroke-width: 2; stroke-linecap: round"/>
   </g>
   <g id="line2d_34">
    <path d="M 699.797846 208.163581 
L 717.788476 208.163581 
L 735.779106 208.163581 
" clip-path="url(#p5d202f8857)" style="fill: none; stroke: #000000; stroke-width: 2; stroke-linecap: round"/>
   </g>
   <g id="line2d_35">
    <path d="M 467.957072 283.004602 
L 467.957072 249.272171 
L 467.957072 215.53974 
" clip-path="url(#p5d202f8857)" style="fill: none; stroke: #000000; stroke-width: 2; stroke-linecap: round"/>
   </g>
   <g id="line2d_36">
    <path d="M 467.957072 215.53974 
L 494.943017 215.53974 
L 521.928962 215.53974 
" clip-path="url(#p5d202f8857)" style="fill: none; stroke: #000000; stroke-width: 2; stroke-linecap: round"/>
   </g>
   <g id="line2d_37">
    <path d="M 573.863437 208.163581 
L 600.849382 208.163581 
L 627.835327 208.163581 
" clip-path="url(#p5d202f8857)" style="fill: none; stroke: #000000; stroke-width: 2; stroke-linecap: round"/>
   </g>
   <g id="line2d_38">
    <path d="M 627.835327 208.163581 
L 645.825957 208.163581 
L 663.816586 208.163581 
" clip-path="url(#p5d202f8857)" style="fill: none; stroke: #000000; stroke-width: 2; stroke-linecap: round"/>
   </g>
   <g id="line2d_39">
    <path d="M 663.816586 208.163581 
L 681.807216 193.051452 
L 699.797846 177.939323 
" clip-path="url(#p5d202f8857)" style="fill: none; stroke: #000000; stroke-width: 2; stroke-linecap: round"/>
   </g>
   <g id="line2d_40">
    <path d="M 699.797846 177.939323 
L 717.788476 177.939323 
L 735.779106 177.939323 
" clip-path="url(#p5d202f8857)" style="fill: none; stroke: #000000; stroke-width: 2; stroke-linecap: round"/>
   </g>
   <g id="line2d_41">
    <path d="M 467.957072 103.098303 
L 485.947702 103.098303 
L 503.938332 103.098303 
" clip-path="url(#p5d202f8857)" style="fill: none; stroke: #000000; stroke-width: 2; stroke-linecap: round"/>
   </g>
   <g id="line2d_42">
    <path d="M 503.938332 103.098303 
L 536.681279 103.098303 
M 536.681279 94.102988 
L 536.681279 112.093618 
M 543.157905 94.102988 
L 543.157905 112.093618 
M 543.157905 103.098303 
L 575.900852 103.098303 
" clip-path="url(#p5d202f8857)" style="fill: none; stroke: #000000; stroke-width: 2; stroke-linecap: round"/>
   </g>
   <g id="line2d_43">
    <path d="M 575.900852 103.098303 
L 601.868089 103.098303 
L 627.835327 103.098303 
" clip-path="url(#p5d202f8857)" style="fill: none; stroke: #000000; stroke-width: 2; stroke-linecap: round"/>
   </g>
   <g id="line2d_44">
    <path d="M 627.835327 103.098303 
L 627.835327 140.518813 
L 627.835327 177.939323 
" clip-path="url(#p5d202f8857)" style="fill: none; stroke: #000000; stroke-width: 2; stroke-linecap: round"/>
   </g>
   <g id="line2d_45">
    <path d="M 467.957072 283.004602 
L 485.947702 283.004602 
L 503.938332 283.004602 
" clip-path="url(#p5d202f8857)" style="fill: none; stroke: #000000; stroke-width: 2; stroke-linecap: round"/>
   </g>
   <g id="line2d_46">
    <path d="M 503.938332 283.004602 
L 536.681279 283.004602 
M 536.681279 274.009287 
L 536.681279 291.999917 
M 543.157905 274.009287 
L 543.157905 291.999917 
M 543.157905 283.004602 
L 575.900852 283.004602 
" clip-path="url(#p5d202f8857)" style="fill: none; stroke: #000000; stroke-width: 2; stroke-linecap: round"/>
   </g>
   <g id="line2d_47">
    <path d="M 575.900852 283.004602 
L 601.868089 283.004602 
L 627.835327 283.004602 
" clip-path="url(#p5d202f8857)" style="fill: none; stroke: #000000; stroke-width: 2; stroke-linecap: round"/>
   </g>
   <g id="line2d_48">
    <path d="M 627.835327 283.004602 
L 627.835327 245.584092 
L 627.835327 208.163581 
" clip-path="url(#p5d202f8857)" style="fill: none; stroke: #000000; stroke-width: 2; stroke-linecap: round"/>
   </g>
   <g id="line2d_49">
    <path d="M 324.032033 103.098303 
L 324.032033 67.117043 
L 324.032033 31.135783 
" clip-path="url(#p5d202f8857)" style="fill: none; stroke: #000000; stroke-width: 2; stroke-linecap: round"/>
   </g>
   <g id="line2d_50">
    <path d="M 324.032033 31.135783 
L 342.022663 31.135783 
L 360.013293 31.135783 
" clip-path="url(#p5d202f8857)" style="fill: none; stroke: #000000; stroke-width: 2; stroke-linecap: round"/>
   </g>
   <g id="line2d_51">
    <path d="M 360.013293 31.135783 
L 378.003923 31.135783 
L 381.002361 22.140469 
L 386.999238 40.131098 
L 392.996115 22.140469 
L 398.992991 40.131098 
L 404.989868 22.140469 
L 410.986744 40.131098 
L 413.985183 31.135783 
L 431.975813 31.135783 
" clip-path="url(#p5d202f8857)" style="fill: none; stroke: #000000; stroke-width: 2; stroke-linecap: round"/>
   </g>
   <g id="line2d_52">
    <path d="M 431.975813 31.135783 
L 529.90557 31.135783 
L 627.835327 31.135783 
" clip-path="url(#p5d202f8857)" style="fill: none; stroke: #000000; stroke-width: 2; stroke-linecap: round"/>
   </g>
   <g id="line2d_53">
    <path d="M 627.835327 31.135783 
L 627.835327 104.537553 
L 627.835327 177.939323 
" clip-path="url(#p5d202f8857)" style="fill: none; stroke: #000000; stroke-width: 2; stroke-linecap: round"/>
   </g>
   <g id="line2d_54">
    <path d="M 324.032033 283.004602 
L 324.032033 318.985862 
L 324.032033 354.967121 
" clip-path="url(#p5d202f8857)" style="fill: none; stroke: #000000; stroke-width: 2; stroke-linecap: round"/>
   </g>
   <g id="line2d_55">
    <path d="M 324.032033 354.967121 
L 342.022663 354.967121 
L 360.013293 354.967121 
" clip-path="url(#p5d202f8857)" style="fill: none; stroke: #000000; stroke-width: 2; stroke-linecap: round"/>
   </g>
   <g id="line2d_56">
    <path d="M 360.013293 354.967121 
L 378.003923 354.967121 
L 381.002361 345.971806 
L 386.999238 363.962436 
L 392.996115 345.971806 
L 398.992991 363.962436 
L 404.989868 345.971806 
L 410.986744 363.962436 
L 413.985183 354.967121 
L 431.975813 354.967121 
" clip-path="url(#p5d202f8857)" style="fill: none; stroke: #000000; stroke-width: 2; stroke-linecap: round"/>
   </g>
   <g id="line2d_57">
    <path d="M 431.975813 354.967121 
L 529.90557 354.967121 
L 627.835327 354.967121 
" clip-path="url(#p5d202f8857)" style="fill: none; stroke: #000000; stroke-width: 2; stroke-linecap: round"/>
   </g>
   <g id="line2d_58">
    <path d="M 627.835327 354.967121 
L 627.835327 281.565351 
L 627.835327 208.163581 
" clip-path="url(#p5d202f8857)" style="fill: none; stroke: #000000; stroke-width: 2; stroke-linecap: round"/>
   </g>
   <g id="text_1">
    <!-- $R_1$ -->
    <g transform="translate(99.414874 87.405386) scale(0.16 -0.16)">
     <defs>
      <path id="CMMI12-52" d="M 2355 3917 
C 2413 4153 2438 4166 2688 4166 
L 3149 4166 
C 3699 4166 4109 4000 4109 3503 
C 4109 3177 3942 2240 2656 2240 
L 1933 2240 
L 2355 3917 
z
M 3245 2163 
C 4038 2335 4659 2846 4659 3394 
C 4659 3892 4154 4352 3264 4352 
L 1530 4352 
C 1402 4352 1344 4352 1344 4230 
C 1344 4166 1389 4166 1510 4166 
C 1894 4166 1894 4115 1894 4045 
C 1894 4032 1894 3994 1869 3898 
L 1005 475 
C 947 253 934 190 493 190 
C 346 190 301 190 301 69 
C 301 6 371 6 390 6 
C 506 6 640 19 762 19 
L 1517 19 
C 1632 19 1766 6 1882 6 
C 1933 6 2003 6 2003 126 
C 2003 190 1946 190 1850 190 
C 1459 190 1459 241 1459 304 
C 1459 310 1459 355 1472 405 
L 1901 2112 
L 2669 2112 
C 3277 2112 3392 1731 3392 1522 
C 3392 1426 3328 1179 3283 1014 
C 3213 723 3194 653 3194 532 
C 3194 82 3565 -128 3994 -128 
C 4512 -128 4736 501 4736 589 
C 4736 634 4704 653 4666 653 
C 4614 653 4602 615 4589 564 
C 4435 114 4173 0 4013 0 
C 3853 0 3750 69 3750 355 
C 3750 507 3827 1084 3834 1116 
C 3866 1350 3866 1376 3866 1426 
C 3866 1889 3488 2086 3245 2163 
z
" transform="scale(0.015625)"/>
      <path id="CMR17-31" d="M 1702 4083 
C 1702 4217 1696 4224 1606 4224 
C 1357 3927 979 3833 621 3820 
C 602 3820 570 3820 563 3808 
C 557 3795 557 3782 557 3648 
C 755 3648 1088 3686 1344 3839 
L 1344 467 
C 1344 243 1331 166 781 166 
L 589 166 
L 589 0 
C 896 6 1216 12 1523 12 
C 1830 12 2150 6 2458 0 
L 2458 166 
L 2266 166 
C 1715 166 1702 236 1702 467 
L 1702 4083 
z
" transform="scale(0.015625)"/>
     </defs>
     <use xlink:href="#CMMI12-52" transform="scale(0.996264)"/>
     <use xlink:href="#CMR17-31" transform="translate(74.250826 -14.943915) scale(0.697382)"/>
    </g>
   </g>
   <g id="patch_2">
    <path d="M 180.106994 105.796897 
C 180.82267 105.796897 181.50913 105.512557 182.015189 105.006497 
C 182.521248 104.500438 182.805589 103.813979 182.805589 103.098303 
C 182.805589 102.382627 182.521248 101.696168 182.015189 101.190109 
C 181.50913 100.684049 180.82267 100.399708 180.106994 100.399708 
C 179.391319 100.399708 178.704859 100.684049 178.1988 101.190109 
C 177.692741 101.696168 177.4084 102.382627 177.4084 103.098303 
C 177.4084 103.813979 177.692741 104.500438 178.1988 105.006497 
C 178.704859 105.512557 179.391319 105.796897 180.106994 105.796897 
z
" clip-path="url(#p5d202f8857)" style="stroke: #000000; stroke-width: 2; stroke-linejoin: miter"/>
   </g>
   <g id="text_2">
    <!-- $C_1$ -->
    <g transform="translate(150.767756 197.036508) scale(0.16 -0.16)">
     <defs>
      <path id="CMMI12-43" d="M 4781 4422 
C 4781 4480 4736 4480 4723 4480 
C 4710 4480 4685 4480 4634 4415 
L 4192 3881 
C 3968 4262 3616 4480 3136 4480 
C 1754 4480 320 3087 320 1594 
C 320 533 1069 -128 2003 -128 
C 2515 -128 2963 89 3334 400 
C 3891 864 4058 1480 4058 1531 
C 4058 1588 4006 1588 3987 1588 
C 3930 1588 3923 1550 3910 1524 
C 3616 533 2752 57 2112 57 
C 1434 57 845 489 845 1391 
C 845 1594 909 2699 1632 3531 
C 1984 3938 2586 4294 3194 4294 
C 3898 4294 4211 3716 4211 3068 
C 4211 2903 4192 2763 4192 2737 
C 4192 2680 4256 2680 4275 2680 
C 4346 2680 4352 2687 4378 2801 
L 4781 4422 
z
" transform="scale(0.015625)"/>
     </defs>
     <use xlink:href="#CMMI12-43" transform="scale(0.996264)"/>
     <use xlink:href="#CMR17-31" transform="translate(69.792037 -14.943915) scale(0.697382)"/>
    </g>
   </g>
   <g id="patch_3">
    <path d="M 180.106994 285.703196 
C 180.82267 285.703196 181.50913 285.418855 182.015189 284.912796 
C 182.521248 284.406737 182.805589 283.720277 182.805589 283.004602 
C 182.805589 282.288926 182.521248 281.602466 182.015189 281.096407 
C 181.50913 280.590348 180.82267 280.306007 180.106994 280.306007 
C 179.391319 280.306007 178.704859 280.590348 178.1988 281.096407 
C 177.692741 281.602466 177.4084 282.288926 177.4084 283.004602 
C 177.4084 283.720277 177.692741 284.406737 178.1988 284.912796 
C 178.704859 285.418855 179.391319 285.703196 180.106994 285.703196 
z
" clip-path="url(#p5d202f8857)" style="stroke: #000000; stroke-width: 2; stroke-linejoin: miter"/>
   </g>
   <g id="text_3">
    <!-- $R_1$ -->
    <g transform="translate(99.414874 267.311685) scale(0.16 -0.16)">
     <use xlink:href="#CMMI12-52" transform="scale(0.996264)"/>
     <use xlink:href="#CMR17-31" transform="translate(74.250826 -14.943915) scale(0.697382)"/>
    </g>
   </g>
   <g id="text_4">
    <!-- $R_2$ -->
    <g transform="translate(243.339913 87.405386) scale(0.16 -0.16)">
     <defs>
      <path id="CMR17-32" d="M 2669 990 
L 2554 990 
C 2490 537 2438 460 2413 422 
C 2381 371 1920 371 1830 371 
L 602 371 
C 832 620 1280 1073 1824 1596 
C 2214 1966 2669 2400 2669 3033 
C 2669 3788 2067 4224 1395 4224 
C 691 4224 262 3603 262 3027 
C 262 2777 448 2745 525 2745 
C 589 2745 781 2783 781 3007 
C 781 3206 614 3264 525 3264 
C 486 3264 448 3257 422 3244 
C 544 3788 915 4057 1306 4057 
C 1862 4057 2227 3616 2227 3033 
C 2227 2477 1901 1998 1536 1583 
L 262 147 
L 262 0 
L 2515 0 
L 2669 990 
z
" transform="scale(0.015625)"/>
     </defs>
     <use xlink:href="#CMMI12-52" transform="scale(0.996264)"/>
     <use xlink:href="#CMR17-32" transform="translate(74.250826 -14.943915) scale(0.697382)"/>
    </g>
   </g>
   <g id="patch_4">
    <path d="M 324.032033 105.796897 
C 324.747709 105.796897 325.434169 105.512557 325.940228 105.006497 
C 326.446287 104.500438 326.730628 103.813979 326.730628 103.098303 
C 326.730628 102.382627 326.446287 101.696168 325.940228 101.190109 
C 325.434169 100.684049 324.747709 100.399708 324.032033 100.399708 
C 323.316358 100.399708 322.629898 100.684049 322.123839 101.190109 
C 321.61778 101.696168 321.333439 102.382627 321.333439 103.098303 
C 321.333439 103.813979 321.61778 104.500438 322.123839 105.006497 
C 322.629898 105.512557 323.316358 105.796897 324.032033 105.796897 
z
" clip-path="url(#p5d202f8857)" style="stroke: #000000; stroke-width: 2; stroke-linejoin: miter"/>
   </g>
   <g id="text_5">
    <!-- $C_2$ -->
    <g transform="translate(294.692795 197.036508) scale(0.16 -0.16)">
     <use xlink:href="#CMMI12-43" transform="scale(0.996264)"/>
     <use xlink:href="#CMR17-32" transform="translate(69.792037 -14.943915) scale(0.697382)"/>
    </g>
   </g>
   <g id="patch_5">
    <path d="M 324.032033 285.703196 
C 324.747709 285.703196 325.434169 285.418855 325.940228 284.912796 
C 326.446287 284.406737 326.730628 283.720277 326.730628 283.004602 
C 326.730628 282.288926 326.446287 281.602466 325.940228 281.096407 
C 325.434169 280.590348 324.747709 280.306007 324.032033 280.306007 
C 323.316358 280.306007 322.629898 280.590348 322.123839 281.096407 
C 321.61778 281.602466 321.333439 282.288926 321.333439 283.004602 
C 321.333439 283.720277 321.61778 284.406737 322.123839 284.912796 
C 322.629898 285.418855 323.316358 285.703196 324.032033 285.703196 
z
" clip-path="url(#p5d202f8857)" style="stroke: #000000; stroke-width: 2; stroke-linejoin: miter"/>
   </g>
   <g id="text_6">
    <!-- $R_2$ -->
    <g transform="translate(243.339913 267.311685) scale(0.16 -0.16)">
     <use xlink:href="#CMMI12-52" transform="scale(0.996264)"/>
     <use xlink:href="#CMR17-32" transform="translate(74.250826 -14.943915) scale(0.697382)"/>
    </g>
   </g>
   <g id="text_7">
    <!-- $R_3$ -->
    <g transform="translate(387.264952 87.405386) scale(0.16 -0.16)">
     <defs>
      <path id="CMR17-33" d="M 1414 2176 
C 1984 2176 2234 1673 2234 1094 
C 2234 322 1824 25 1453 25 
C 1114 25 563 193 390 691 
C 422 678 454 678 486 678 
C 640 678 755 780 755 947 
C 755 1132 614 1216 486 1216 
C 378 1216 211 1164 211 927 
C 211 335 787 -128 1466 -128 
C 2176 -128 2720 432 2720 1087 
C 2720 1718 2208 2176 1600 2246 
C 2086 2347 2554 2776 2554 3353 
C 2554 3856 2048 4224 1472 4224 
C 890 4224 378 3862 378 3347 
C 378 3123 544 3084 627 3084 
C 762 3084 877 3167 877 3334 
C 877 3500 762 3584 627 3584 
C 602 3584 570 3584 544 3571 
C 730 3999 1235 4076 1459 4076 
C 1683 4076 2106 3966 2106 3347 
C 2106 3167 2080 2851 1862 2574 
C 1670 2329 1453 2316 1242 2297 
C 1210 2297 1062 2284 1037 2284 
C 992 2278 966 2272 966 2227 
C 966 2182 973 2176 1101 2176 
L 1414 2176 
z
" transform="scale(0.015625)"/>
     </defs>
     <use xlink:href="#CMMI12-52" transform="scale(0.996264)"/>
     <use xlink:href="#CMR17-33" transform="translate(74.250826 -14.943915) scale(0.697382)"/>
    </g>
   </g>
   <g id="patch_6">
    <path d="M 467.957072 105.796897 
C 468.672748 105.796897 469.359208 105.512557 469.865267 105.006497 
C 470.371326 104.500438 470.655667 103.813979 470.655667 103.098303 
C 470.655667 102.382627 470.371326 101.696168 469.865267 101.190109 
C 469.359208 100.684049 468.672748 100.399708 467.957072 100.399708 
C 467.241397 100.399708 466.554937 100.684049 466.048878 101.190109 
C 465.542819 101.696168 465.258478 102.382627 465.258478 103.098303 
C 465.258478 103.813979 465.542819 104.500438 466.048878 105.006497 
C 466.554937 105.512557 467.241397 105.796897 467.957072 105.796897 
z
" clip-path="url(#p5d202f8857)" style="stroke: #000000; stroke-width: 2; stroke-linejoin: miter"/>
   </g>
   <g id="text_8">
    <!-- $R_3$ -->
    <g transform="translate(387.264952 267.311685) scale(0.16 -0.16)">
     <use xlink:href="#CMMI12-52" transform="scale(0.996264)"/>
     <use xlink:href="#CMR17-33" transform="translate(74.250826 -14.943915) scale(0.697382)"/>
    </g>
   </g>
   <g id="patch_7">
    <path d="M 467.957072 285.703196 
C 468.672748 285.703196 469.359208 285.418855 469.865267 284.912796 
C 470.371326 284.406737 470.655667 283.720277 470.655667 283.004602 
C 470.655667 282.288926 470.371326 281.602466 469.865267 281.096407 
C 469.359208 280.590348 468.672748 280.306007 467.957072 280.306007 
C 467.241397 280.306007 466.554937 280.590348 466.048878 281.096407 
C 465.542819 281.602466 465.258478 282.288926 465.258478 283.004602 
C 465.258478 283.720277 465.542819 284.406737 466.048878 284.912796 
C 466.554937 285.418855 467.241397 285.703196 467.957072 285.703196 
z
" clip-path="url(#p5d202f8857)" style="stroke: #000000; stroke-width: 2; stroke-linejoin: miter"/>
   </g>
   <g id="patch_8">
    <path d="M 627.835327 180.637918 
C 628.551002 180.637918 629.237462 180.353577 629.743521 179.847518 
C 630.24958 179.341459 630.533921 178.654999 630.533921 177.939323 
C 630.533921 177.223648 630.24958 176.537188 629.743521 176.031129 
C 629.237462 175.52507 628.551002 175.240729 627.835327 175.240729 
C 627.119651 175.240729 626.433191 175.52507 625.927132 176.031129 
C 625.421073 176.537188 625.136732 177.223648 625.136732 177.939323 
C 625.136732 178.654999 625.421073 179.341459 625.927132 179.847518 
C 626.433191 180.353577 627.119651 180.637918 627.835327 180.637918 
z
" clip-path="url(#p5d202f8857)" style="stroke: #000000; stroke-width: 2; stroke-linejoin: miter"/>
   </g>
   <g id="patch_9">
    <path d="M 627.835327 210.862176 
C 628.551002 210.862176 629.237462 210.577835 629.743521 210.071776 
C 630.24958 209.565717 630.533921 208.879257 630.533921 208.163581 
C 630.533921 207.447906 630.24958 206.761446 629.743521 206.255387 
C 629.237462 205.749328 628.551002 205.464987 627.835327 205.464987 
C 627.119651 205.464987 626.433191 205.749328 625.927132 206.255387 
C 625.421073 206.761446 625.136732 207.447906 625.136732 208.163581 
C 625.136732 208.879257 625.421073 209.565717 625.927132 210.071776 
C 626.433191 210.577835 627.119651 210.862176 627.835327 210.862176 
z
" clip-path="url(#p5d202f8857)" style="stroke: #000000; stroke-width: 2; stroke-linejoin: miter"/>
   </g>
   <g id="text_9">
    <!-- $C_3$ -->
    <g transform="translate(531.546693 87.405386) scale(0.16 -0.16)">
     <use xlink:href="#CMMI12-43" transform="scale(0.996264)"/>
     <use xlink:href="#CMR17-33" transform="translate(69.792037 -14.943915) scale(0.697382)"/>
    </g>
   </g>
   <g id="patch_10">
    <path d="M 627.835327 105.796897 
C 628.551002 105.796897 629.237462 105.512557 629.743521 105.006497 
C 630.24958 104.500438 630.533921 103.813979 630.533921 103.098303 
C 630.533921 102.382627 630.24958 101.696168 629.743521 101.190109 
C 629.237462 100.684049 628.551002 100.399708 627.835327 100.399708 
C 627.119651 100.399708 626.433191 100.684049 625.927132 101.190109 
C 625.421073 101.696168 625.136732 102.382627 625.136732 103.098303 
C 625.136732 103.813979 625.421073 104.500438 625.927132 105.006497 
C 626.433191 105.512557 627.119651 105.796897 627.835327 105.796897 
z
" clip-path="url(#p5d202f8857)" style="stroke: #000000; stroke-width: 2; stroke-linejoin: miter"/>
   </g>
   <g id="text_10">
    <!-- $C_3$ -->
    <g transform="translate(531.546693 267.311685) scale(0.16 -0.16)">
     <use xlink:href="#CMMI12-43" transform="scale(0.996264)"/>
     <use xlink:href="#CMR17-33" transform="translate(69.792037 -14.943915) scale(0.697382)"/>
    </g>
   </g>
   <g id="patch_11">
    <path d="M 627.835327 285.703196 
C 628.551002 285.703196 629.237462 285.418855 629.743521 284.912796 
C 630.24958 284.406737 630.533921 283.720277 630.533921 283.004602 
C 630.533921 282.288926 630.24958 281.602466 629.743521 281.096407 
C 629.237462 280.590348 628.551002 280.306007 627.835327 280.306007 
C 627.119651 280.306007 626.433191 280.590348 625.927132 281.096407 
C 625.421073 281.602466 625.136732 282.288926 625.136732 283.004602 
C 625.136732 283.720277 625.421073 284.406737 625.927132 284.912796 
C 626.433191 285.418855 627.119651 285.703196 627.835327 285.703196 
z
" clip-path="url(#p5d202f8857)" style="stroke: #000000; stroke-width: 2; stroke-linejoin: miter"/>
   </g>
   <g id="text_11">
    <!-- $R_4$ -->
    <g transform="translate(387.264952 15.442866) scale(0.16 -0.16)">
     <defs>
      <path id="CMR17-34" d="M 2150 4147 
C 2150 4281 2144 4288 2029 4288 
L 128 1254 
L 128 1088 
L 1779 1088 
L 1779 460 
C 1779 230 1766 166 1318 166 
L 1197 166 
L 1197 0 
C 1402 12 1747 12 1965 12 
C 2182 12 2528 12 2733 0 
L 2733 166 
L 2611 166 
C 2163 166 2150 230 2150 460 
L 2150 1088 
L 2803 1088 
L 2803 1254 
L 2150 1254 
L 2150 4147 
z
M 1798 3723 
L 1798 1254 
L 256 1254 
L 1798 3723 
z
" transform="scale(0.015625)"/>
     </defs>
     <use xlink:href="#CMMI12-52" transform="scale(0.996264)"/>
     <use xlink:href="#CMR17-34" transform="translate(74.250826 -14.943915) scale(0.697382)"/>
    </g>
   </g>
   <g id="text_12">
    <!-- $R_4$ -->
    <g transform="translate(387.264952 339.274204) scale(0.16 -0.16)">
     <use xlink:href="#CMMI12-52" transform="scale(0.996264)"/>
     <use xlink:href="#CMR17-34" transform="translate(74.250826 -14.943915) scale(0.697382)"/>
    </g>
   </g>
   <g id="patch_12">
    <path d="M 36.181955 105.796897 
C 36.897631 105.796897 37.584091 105.512557 38.09015 105.006497 
C 38.596209 104.500438 38.88055 103.813979 38.88055 103.098303 
C 38.88055 102.382627 38.596209 101.696168 38.09015 101.190109 
C 37.584091 100.684049 36.897631 100.399708 36.181955 100.399708 
C 35.46628 100.399708 34.77982 100.684049 34.273761 101.190109 
C 33.767702 101.696168 33.483361 102.382627 33.483361 103.098303 
C 33.483361 103.813979 33.767702 104.500438 34.273761 105.006497 
C 34.77982 105.512557 35.46628 105.796897 36.181955 105.796897 
z
" clip-path="url(#p5d202f8857)" style="fill: #ffffff; stroke: #000000; stroke-width: 2; stroke-linejoin: miter"/>
   </g>
   <g id="text_13">
    <!-- $V_\mathrm{in,p}$ -->
    <g transform="translate(2.189214 106.264219) scale(0.16 -0.16)">
     <defs>
      <path id="CMMI12-56" d="M 3962 3644 
C 4179 3987 4378 4140 4704 4166 
C 4768 4172 4819 4172 4819 4287 
C 4819 4313 4806 4352 4749 4352 
C 4634 4352 4358 4339 4243 4339 
C 4058 4339 3866 4352 3686 4352 
C 3635 4352 3571 4352 3571 4230 
C 3571 4172 3629 4166 3654 4166 
C 3891 4146 3917 4032 3917 3956 
C 3917 3860 3827 3714 3821 3708 
L 1811 540 
L 1363 3968 
C 1363 4153 1696 4166 1766 4166 
C 1862 4166 1920 4166 1920 4287 
C 1920 4352 1850 4352 1830 4352 
C 1722 4352 1594 4339 1485 4339 
L 1126 4339 
C 659 4339 467 4352 461 4352 
C 422 4352 346 4352 346 4236 
C 346 4166 390 4166 493 4166 
C 819 4166 838 4108 858 3949 
L 1370 25 
C 1389 -109 1389 -128 1478 -128 
C 1555 -128 1587 -109 1651 -7 
L 3962 3644 
z
" transform="scale(0.015625)"/>
      <path id="CMR17-69" d="M 992 3961 
C 992 4102 877 4224 730 4224 
C 589 4224 467 4108 467 3961 
C 467 3820 582 3699 730 3699 
C 870 3699 992 3814 992 3961 
z
M 243 2745 
L 243 2579 
C 602 2579 653 2540 653 2231 
L 653 443 
C 653 198 627 166 218 166 
L 218 0 
C 371 12 646 12 806 12 
C 960 12 1222 12 1370 0 
L 1370 166 
C 992 166 979 205 979 436 
L 979 2816 
L 243 2745 
z
" transform="scale(0.015625)"/>
      <path id="CMR17-6e" d="M 2656 1954 
C 2656 2282 2592 2816 1837 2816 
C 1331 2816 1069 2424 973 2166 
L 966 2166 
L 966 2816 
L 211 2745 
L 211 2578 
C 589 2578 646 2540 646 2231 
L 646 443 
C 646 198 621 166 211 166 
L 211 0 
C 365 12 646 12 813 12 
C 979 12 1267 12 1421 0 
L 1421 166 
C 1011 166 986 192 986 443 
L 986 1678 
C 986 2269 1344 2713 1792 2713 
C 2266 2713 2317 2289 2317 1980 
L 2317 443 
C 2317 198 2291 166 1882 166 
L 1882 0 
C 2035 12 2317 12 2483 12 
C 2650 12 2938 12 3091 0 
L 3091 166 
C 2682 166 2656 192 2656 443 
L 2656 1954 
z
" transform="scale(0.015625)"/>
      <path id="CMMI12-3b" d="M 1248 -26 
C 1248 345 1126 620 864 620 
C 659 620 557 454 557 313 
C 557 172 653 0 870 0 
C 954 0 1024 25 1082 83 
C 1094 96 1101 96 1107 96 
C 1120 96 1120 6 1120 -26 
C 1120 -233 1082 -642 710 -1051 
C 640 -1127 640 -1140 640 -1152 
C 640 -1184 672 -1216 704 -1216 
C 755 -1216 1248 -749 1248 -26 
z
" transform="scale(0.015625)"/>
      <path id="CMR17-70" d="M 1408 -1114 
C 998 -1114 973 -1088 973 -834 
L 973 380 
C 1158 109 1427 -64 1766 -64 
C 2406 -64 3053 503 3053 1382 
C 3053 2196 2496 2816 1837 2816 
C 1453 2816 1139 2603 960 2345 
L 960 2816 
L 198 2745 
L 198 2577 
C 576 2577 634 2539 634 2228 
L 634 -834 
C 634 -1081 608 -1114 198 -1114 
L 198 -1280 
C 352 -1268 634 -1268 800 -1268 
C 966 -1268 1254 -1268 1408 -1280 
L 1408 -1114 
z
M 973 2015 
C 973 2106 973 2241 1222 2481 
C 1254 2506 1472 2700 1792 2700 
C 2259 2700 2643 2112 2643 1376 
C 2643 639 2234 38 1728 38 
C 1498 38 1248 148 1056 451 
C 973 594 973 632 973 736 
L 973 2015 
z
" transform="scale(0.015625)"/>
     </defs>
     <use xlink:href="#CMMI12-56" transform="scale(0.996264)"/>
     <use xlink:href="#CMR17-69" transform="translate(56.869579 -14.943915) scale(0.697382)"/>
     <use xlink:href="#CMR17-6e" transform="translate(74.279238 -14.943915) scale(0.697382)"/>
     <use xlink:href="#CMMI12-3b" transform="translate(109.905846 -14.943915) scale(0.697382)"/>
     <use xlink:href="#CMR17-70" transform="translate(128.873779 -14.943915) scale(0.697382)"/>
    </g>
   </g>
   <g id="patch_13">
    <path d="M 36.181955 285.703196 
C 36.897631 285.703196 37.584091 285.418855 38.09015 284.912796 
C 38.596209 284.406737 38.88055 283.720277 38.88055 283.004602 
C 38.88055 282.288926 38.596209 281.602466 38.09015 281.096407 
C 37.584091 280.590348 36.897631 280.306007 36.181955 280.306007 
C 35.46628 280.306007 34.77982 280.590348 34.273761 281.096407 
C 33.767702 281.602466 33.483361 282.288926 33.483361 283.004602 
C 33.483361 283.720277 33.767702 284.406737 34.273761 284.912796 
C 34.77982 285.418855 35.46628 285.703196 36.181955 285.703196 
z
" clip-path="url(#p5d202f8857)" style="fill: #ffffff; stroke: #000000; stroke-width: 2; stroke-linejoin: miter"/>
   </g>
   <g id="text_14">
    <!-- $V_\mathrm{in,n}$ -->
    <g transform="translate(2.189214 286.170517) scale(0.16 -0.16)">
     <use xlink:href="#CMMI12-56" transform="scale(0.996264)"/>
     <use xlink:href="#CMR17-69" transform="translate(56.869579 -14.943915) scale(0.697382)"/>
     <use xlink:href="#CMR17-6e" transform="translate(74.279238 -14.943915) scale(0.697382)"/>
     <use xlink:href="#CMMI12-3b" transform="translate(109.905846 -14.943915) scale(0.697382)"/>
     <use xlink:href="#CMR17-6e" transform="translate(128.873779 -14.943915) scale(0.697382)"/>
    </g>
   </g>
   <g id="patch_14">
    <path d="M 573.863437 180.637918 
C 574.579113 180.637918 575.265572 180.353577 575.771631 179.847518 
C 576.277691 179.341459 576.562032 178.654999 576.562032 177.939323 
C 576.562032 177.223648 576.277691 176.537188 575.771631 176.031129 
C 575.265572 175.52507 574.579113 175.240729 573.863437 175.240729 
C 573.147761 175.240729 572.461302 175.52507 571.955243 176.031129 
C 571.449183 176.537188 571.164843 177.223648 571.164843 177.939323 
C 571.164843 178.654999 571.449183 179.341459 571.955243 179.847518 
C 572.461302 180.353577 573.147761 180.637918 573.863437 180.637918 
z
" clip-path="url(#p5d202f8857)" style="fill: #ffffff; stroke: #000000; stroke-width: 2; stroke-linejoin: miter"/>
   </g>
   <g id="patch_15">
    <path d="M 735.779106 210.862176 
C 736.494782 210.862176 737.181241 210.577835 737.6873 210.071776 
C 738.193359 209.565717 738.4777 208.879257 738.4777 208.163581 
C 738.4777 207.447906 738.193359 206.761446 737.6873 206.255387 
C 737.181241 205.749328 736.494782 205.464987 735.779106 205.464987 
C 735.06343 205.464987 734.376971 205.749328 733.870911 206.255387 
C 733.364852 206.761446 733.080511 207.447906 733.080511 208.163581 
C 733.080511 208.879257 733.364852 209.565717 733.870911 210.071776 
C 734.376971 210.577835 735.06343 210.862176 735.779106 210.862176 
z
" clip-path="url(#p5d202f8857)" style="fill: #ffffff; stroke: #000000; stroke-width: 2; stroke-linejoin: miter"/>
   </g>
   <g id="text_15">
    <!-- $V_\mathrm{out,n}$ -->
    <g transform="translate(742.075826 211.329497) scale(0.16 -0.16)">
     <defs>
      <path id="CMR17-6f" d="M 2758 1356 
C 2758 2176 2163 2816 1466 2816 
C 768 2816 173 2176 173 1356 
C 173 550 768 -64 1466 -64 
C 2163 -64 2758 550 2758 1356 
z
M 1466 51 
C 1165 51 909 230 762 480 
C 602 768 582 1126 582 1408 
C 582 1676 595 2009 762 2297 
C 890 2508 1139 2713 1466 2713 
C 1754 2713 1997 2553 2150 2329 
C 2349 2028 2349 1606 2349 1408 
C 2349 1158 2336 774 2163 467 
C 1984 172 1709 51 1466 51 
z
" transform="scale(0.015625)"/>
      <path id="CMR17-75" d="M 1882 2745 
L 1882 2579 
C 2259 2579 2317 2540 2317 2229 
L 2317 1053 
C 2317 510 2029 38 1555 38 
C 1030 38 986 355 986 691 
L 986 2816 
L 211 2745 
L 211 2579 
C 467 2579 640 2579 646 2320 
L 646 1079 
C 646 646 646 368 813 187 
C 896 103 1056 -64 1517 -64 
C 2061 -64 2272 400 2323 536 
L 2330 536 
L 2330 -64 
L 3091 -13 
L 3091 154 
C 2714 154 2656 193 2656 503 
L 2656 2816 
L 1882 2745 
z
" transform="scale(0.015625)"/>
      <path id="CMR17-74" d="M 966 2585 
L 1862 2585 
L 1862 2752 
L 966 2752 
L 966 3968 
L 851 3968 
C 838 3292 614 2700 70 2687 
L 70 2585 
L 627 2585 
L 627 778 
C 627 655 627 -64 1370 -64 
C 1747 -64 1965 308 1965 784 
L 1965 1151 
L 1850 1151 
L 1850 790 
C 1850 347 1677 51 1408 51 
C 1222 51 966 179 966 765 
L 966 2585 
z
" transform="scale(0.015625)"/>
     </defs>
     <use xlink:href="#CMMI12-56" transform="scale(0.996264)"/>
     <use xlink:href="#CMR17-6f" transform="translate(56.869579 -14.943915) scale(0.697382)"/>
     <use xlink:href="#CMR17-75" transform="translate(88.852761 -14.943915) scale(0.697382)"/>
     <use xlink:href="#CMR17-74" transform="translate(124.479369 -14.943915) scale(0.697382)"/>
     <use xlink:href="#CMMI12-3b" transform="translate(149.17579 -14.943915) scale(0.697382)"/>
     <use xlink:href="#CMR17-6e" transform="translate(168.143723 -14.943915) scale(0.697382)"/>
    </g>
   </g>
   <g id="patch_16">
    <path d="M 735.779106 180.637918 
C 736.494782 180.637918 737.181241 180.353577 737.6873 179.847518 
C 738.193359 179.341459 738.4777 178.654999 738.4777 177.939323 
C 738.4777 177.223648 738.193359 176.537188 737.6873 176.031129 
C 737.181241 175.52507 736.494782 175.240729 735.779106 175.240729 
C 735.06343 175.240729 734.376971 175.52507 733.870911 176.031129 
C 733.364852 176.537188 733.080511 177.223648 733.080511 177.939323 
C 733.080511 178.654999 733.364852 179.341459 733.870911 179.847518 
C 734.376971 180.353577 735.06343 180.637918 735.779106 180.637918 
z
" clip-path="url(#p5d202f8857)" style="fill: #ffffff; stroke: #000000; stroke-width: 2; stroke-linejoin: miter"/>
   </g>
   <g id="text_16">
    <!-- $V_\mathrm{out,p}$ -->
    <g transform="translate(742.075826 181.105239) scale(0.16 -0.16)">
     <use xlink:href="#CMMI12-56" transform="scale(0.996264)"/>
     <use xlink:href="#CMR17-6f" transform="translate(56.869579 -14.943915) scale(0.697382)"/>
     <use xlink:href="#CMR17-75" transform="translate(88.852761 -14.943915) scale(0.697382)"/>
     <use xlink:href="#CMR17-74" transform="translate(124.479369 -14.943915) scale(0.697382)"/>
     <use xlink:href="#CMMI12-3b" transform="translate(149.17579 -14.943915) scale(0.697382)"/>
     <use xlink:href="#CMR17-70" transform="translate(168.143723 -14.943915) scale(0.697382)"/>
    </g>
   </g>
  </g>
 </g>
 <defs>
  <clipPath id="p5d202f8857">
   <rect x="0" y="-0" width="778.800699" height="368.64"/>
  </clipPath>
 </defs>
</svg>
