<?xml version="1.0" encoding="utf-8" standalone="no"?>
<!DOCTYPE svg PUBLIC "-//W3C//DTD SVG 1.1//EN"
  "http://www.w3.org/Graphics/SVG/1.1/DTD/svg11.dtd">
<svg xmlns:xlink="http://www.w3.org/1999/xlink" width="634.32pt" height="368.317357pt" viewBox="0 0 634.32 368.317357" xmlns="http://www.w3.org/2000/svg" version="1.1">
 <metadata>
  <rdf:RDF xmlns:dc="http://purl.org/dc/elements/1.1/" xmlns:cc="http://creativecommons.org/ns#" xmlns:rdf="http://www.w3.org/1999/02/22-rdf-syntax-ns#">
   <cc:Work>
    <dc:type rdf:resource="http://purl.org/dc/dcmitype/StillImage"/>
    <dc:date>2026-03-19T19:09:57.090968</dc:date>
    <dc:format>image/svg+xml</dc:format>
    <dc:creator>
     <cc:Agent>
      <dc:title>Matplotlib v3.10.7, https://matplotlib.org/</dc:title>
     </cc:Agent>
    </dc:creator>
   </cc:Work>
  </rdf:RDF>
 </metadata>
 <defs>
  <style type="text/css">*{stroke-linejoin: round; stroke-linecap: butt}</style>
 </defs>
 <g id="figure_1">
  <g id="patch_1">
   <path d="M 0 368.317357 
L 634.32 368.317357 
L 634.32 0 
L 0 0 
L 0 368.317357 
z
" style="fill: none"/>
  </g>
  <g id="axes_1">
   <g id="line2d_1">
    <path d="M 36.150288 103.008069 
L 54.125172 103.008069 
L 72.100056 103.008069 
" clip-path="url(#p5a4a6b478a)" style="fill: none; stroke: #000000; stroke-width: 2; stroke-linecap: round"/>
   </g>
   <g id="line2d_2">
    <path d="M 72.100056 103.008069 
L 90.07494 103.008069 
L 93.070754 94.020627 
L 99.062382 111.995511 
L 105.05401 94.020627 
L 111.045638 111.995511 
L 117.037266 94.020627 
L 123.028894 111.995511 
L 126.024708 103.008069 
L 143.999592 103.008069 
" clip-path="url(#p5a4a6b478a)" style="fill: none; stroke: #000000; stroke-width: 2; stroke-linecap: round"/>
   </g>
   <g id="line2d_3">
    <path d="M 143.999592 103.008069 
L 161.974476 103.008069 
L 179.94936 103.008069 
" clip-path="url(#p5a4a6b478a)" style="fill: none; stroke: #000000; stroke-width: 2; stroke-linecap: round"/>
   </g>
   <g id="line2d_4">
    <path d="M 179.94936 103.008069 
L 179.94936 129.970395 
L 179.94936 156.932721 
" clip-path="url(#p5a4a6b478a)" style="fill: none; stroke: #000000; stroke-width: 2; stroke-linecap: round"/>
   </g>
   <g id="line2d_5">
    <path d="M 179.94936 156.932721 
L 179.94936 189.64701 
M 170.961918 189.64701 
L 188.936802 189.64701 
M 170.961918 196.117968 
L 188.936802 196.117968 
M 179.94936 196.117968 
L 179.94936 228.832257 
" clip-path="url(#p5a4a6b478a)" style="fill: none; stroke: #000000; stroke-width: 2; stroke-linecap: round"/>
   </g>
   <g id="line2d_6">
    <path d="M 179.94936 228.832257 
L 179.94936 255.794583 
L 179.94936 282.756909 
" clip-path="url(#p5a4a6b478a)" style="fill: none; stroke: #000000; stroke-width: 2; stroke-linecap: round"/>
   </g>
   <g id="line2d_7">
    <path d="M 179.94936 282.756909 
L 161.974476 282.756909 
L 143.999592 282.756909 
" clip-path="url(#p5a4a6b478a)" style="fill: none; stroke: #000000; stroke-width: 2; stroke-linecap: round"/>
   </g>
   <g id="line2d_8">
    <path d="M 143.999592 282.756909 
L 126.024708 282.756909 
L 123.028894 291.744351 
L 117.037266 273.769467 
L 111.045638 291.744351 
L 105.05401 273.769467 
L 99.062382 291.744351 
L 93.070754 273.769467 
L 90.07494 282.756909 
L 72.100056 282.756909 
" clip-path="url(#p5a4a6b478a)" style="fill: none; stroke: #000000; stroke-width: 2; stroke-linecap: round"/>
   </g>
   <g id="line2d_9">
    <path d="M 72.100056 282.756909 
L 54.125172 282.756909 
L 36.150288 282.756909 
" clip-path="url(#p5a4a6b478a)" style="fill: none; stroke: #000000; stroke-width: 2; stroke-linecap: round"/>
   </g>
   <g id="line2d_10">
    <path d="M 179.94936 103.008069 
L 197.924244 103.008069 
L 215.899128 103.008069 
" clip-path="url(#p5a4a6b478a)" style="fill: none; stroke: #000000; stroke-width: 2; stroke-linecap: round"/>
   </g>
   <g id="line2d_11">
    <path d="M 215.899128 103.008069 
L 233.874012 103.008069 
L 236.869826 94.020627 
L 242.861454 111.995511 
L 248.853082 94.020627 
L 254.84471 111.995511 
L 260.836338 94.020627 
L 266.827966 111.995511 
L 269.82378 103.008069 
L 287.798664 103.008069 
" clip-path="url(#p5a4a6b478a)" style="fill: none; stroke: #000000; stroke-width: 2; stroke-linecap: round"/>
   </g>
   <g id="line2d_12">
    <path d="M 287.798664 103.008069 
L 305.773548 103.008069 
L 323.748432 103.008069 
" clip-path="url(#p5a4a6b478a)" style="fill: none; stroke: #000000; stroke-width: 2; stroke-linecap: round"/>
   </g>
   <g id="line2d_13">
    <path d="M 179.94936 282.756909 
L 197.924244 282.756909 
L 215.899128 282.756909 
" clip-path="url(#p5a4a6b478a)" style="fill: none; stroke: #000000; stroke-width: 2; stroke-linecap: round"/>
   </g>
   <g id="line2d_14">
    <path d="M 215.899128 282.756909 
L 233.874012 282.756909 
L 236.869826 273.769467 
L 242.861454 291.744351 
L 248.853082 273.769467 
L 254.84471 291.744351 
L 260.836338 273.769467 
L 266.827966 291.744351 
L 269.82378 282.756909 
L 287.798664 282.756909 
" clip-path="url(#p5a4a6b478a)" style="fill: none; stroke: #000000; stroke-width: 2; stroke-linecap: round"/>
   </g>
   <g id="line2d_15">
    <path d="M 287.798664 282.756909 
L 305.773548 282.756909 
L 323.748432 282.756909 
" clip-path="url(#p5a4a6b478a)" style="fill: none; stroke: #000000; stroke-width: 2; stroke-linecap: round"/>
   </g>
   <g id="line2d_16">
    <path d="M 323.748432 103.008069 
L 323.748432 136.710976 
L 323.748432 170.413884 
" clip-path="url(#p5a4a6b478a)" style="fill: none; stroke: #000000; stroke-width: 2; stroke-linecap: round"/>
   </g>
   <g id="line2d_17">
    <path d="M 323.748432 170.413884 
L 350.710758 170.413884 
L 377.673084 170.413884 
" clip-path="url(#p5a4a6b478a)" style="fill: none; stroke: #000000; stroke-width: 2; stroke-linecap: round"/>
   </g>
   <g id="line2d_18">
    <path d="M 377.673084 192.882489 
L 377.673084 237.819699 
L 455.506615 192.882489 
L 377.673084 147.945279 
L 377.673084 192.882489 
M 455.506615 192.882489 
" clip-path="url(#p5a4a6b478a)" style="fill: none; stroke: #000000; stroke-width: 2; stroke-linecap: round"/>
   </g>
   <g id="line2d_19">
    <path d="M 383.807299 215.351094 
L 390.997252 215.351094 
" clip-path="url(#p5a4a6b478a)" style="fill: none; stroke: #000000; stroke-width: 2; stroke-linecap: round"/>
   </g>
   <g id="line2d_20">
    <path d="M 383.807299 170.413884 
L 390.997252 170.413884 
" clip-path="url(#p5a4a6b478a)" style="fill: none; stroke: #000000; stroke-width: 2; stroke-linecap: round"/>
   </g>
   <g id="line2d_21">
    <path d="M 387.402275 166.818907 
L 387.402275 174.00886 
" clip-path="url(#p5a4a6b478a)" style="fill: none; stroke: #000000; stroke-width: 2; stroke-linecap: round"/>
   </g>
   <g id="line2d_22">
    <path d="M 429.562105 177.783586 
L 456.524431 177.783586 
L 483.486757 177.783586 
" clip-path="url(#p5a4a6b478a)" style="fill: none; stroke: #000000; stroke-width: 2; stroke-linecap: round"/>
   </g>
   <g id="line2d_23">
    <path d="M 483.486757 177.783586 
L 501.461641 177.783586 
L 519.436525 177.783586 
" clip-path="url(#p5a4a6b478a)" style="fill: none; stroke: #000000; stroke-width: 2; stroke-linecap: round"/>
   </g>
   <g id="line2d_24">
    <path d="M 519.436525 177.783586 
L 537.411409 192.882489 
L 555.386293 207.981391 
" clip-path="url(#p5a4a6b478a)" style="fill: none; stroke: #000000; stroke-width: 2; stroke-linecap: round"/>
   </g>
   <g id="line2d_25">
    <path d="M 555.386293 207.981391 
L 573.361177 207.981391 
L 591.336061 207.981391 
" clip-path="url(#p5a4a6b478a)" style="fill: none; stroke: #000000; stroke-width: 2; stroke-linecap: round"/>
   </g>
   <g id="line2d_26">
    <path d="M 323.748432 282.756909 
L 323.748432 249.054001 
L 323.748432 215.351094 
" clip-path="url(#p5a4a6b478a)" style="fill: none; stroke: #000000; stroke-width: 2; stroke-linecap: round"/>
   </g>
   <g id="line2d_27">
    <path d="M 323.748432 215.351094 
L 350.710758 215.351094 
L 377.673084 215.351094 
" clip-path="url(#p5a4a6b478a)" style="fill: none; stroke: #000000; stroke-width: 2; stroke-linecap: round"/>
   </g>
   <g id="line2d_28">
    <path d="M 429.562105 207.981391 
L 456.524431 207.981391 
L 483.486757 207.981391 
" clip-path="url(#p5a4a6b478a)" style="fill: none; stroke: #000000; stroke-width: 2; stroke-linecap: round"/>
   </g>
   <g id="line2d_29">
    <path d="M 483.486757 207.981391 
L 501.461641 207.981391 
L 519.436525 207.981391 
" clip-path="url(#p5a4a6b478a)" style="fill: none; stroke: #000000; stroke-width: 2; stroke-linecap: round"/>
   </g>
   <g id="line2d_30">
    <path d="M 519.436525 207.981391 
L 537.411409 192.882489 
L 555.386293 177.783586 
" clip-path="url(#p5a4a6b478a)" style="fill: none; stroke: #000000; stroke-width: 2; stroke-linecap: round"/>
   </g>
   <g id="line2d_31">
    <path d="M 555.386293 177.783586 
L 573.361177 177.783586 
L 591.336061 177.783586 
" clip-path="url(#p5a4a6b478a)" style="fill: none; stroke: #000000; stroke-width: 2; stroke-linecap: round"/>
   </g>
   <g id="line2d_32">
    <path d="M 323.748432 103.008069 
L 341.723316 103.008069 
L 359.6982 103.008069 
" clip-path="url(#p5a4a6b478a)" style="fill: none; stroke: #000000; stroke-width: 2; stroke-linecap: round"/>
   </g>
   <g id="line2d_33">
    <path d="M 359.6982 103.008069 
L 392.412489 103.008069 
M 392.412489 94.020627 
L 392.412489 111.995511 
M 398.883447 94.020627 
L 398.883447 111.995511 
M 398.883447 103.008069 
L 431.597736 103.008069 
" clip-path="url(#p5a4a6b478a)" style="fill: none; stroke: #000000; stroke-width: 2; stroke-linecap: round"/>
   </g>
   <g id="line2d_34">
    <path d="M 431.597736 103.008069 
L 457.542246 103.008069 
L 483.486757 103.008069 
" clip-path="url(#p5a4a6b478a)" style="fill: none; stroke: #000000; stroke-width: 2; stroke-linecap: round"/>
   </g>
   <g id="line2d_35">
    <path d="M 483.486757 103.008069 
L 483.486757 140.395827 
L 483.486757 177.783586 
" clip-path="url(#p5a4a6b478a)" style="fill: none; stroke: #000000; stroke-width: 2; stroke-linecap: round"/>
   </g>
   <g id="line2d_36">
    <path d="M 323.748432 282.756909 
L 341.723316 282.756909 
L 359.6982 282.756909 
" clip-path="url(#p5a4a6b478a)" style="fill: none; stroke: #000000; stroke-width: 2; stroke-linecap: round"/>
   </g>
   <g id="line2d_37">
    <path d="M 359.6982 282.756909 
L 392.412489 282.756909 
M 392.412489 273.769467 
L 392.412489 291.744351 
M 398.883447 273.769467 
L 398.883447 291.744351 
M 398.883447 282.756909 
L 431.597736 282.756909 
" clip-path="url(#p5a4a6b478a)" style="fill: none; stroke: #000000; stroke-width: 2; stroke-linecap: round"/>
   </g>
   <g id="line2d_38">
    <path d="M 431.597736 282.756909 
L 457.542246 282.756909 
L 483.486757 282.756909 
" clip-path="url(#p5a4a6b478a)" style="fill: none; stroke: #000000; stroke-width: 2; stroke-linecap: round"/>
   </g>
   <g id="line2d_39">
    <path d="M 483.486757 282.756909 
L 483.486757 245.36915 
L 483.486757 207.981391 
" clip-path="url(#p5a4a6b478a)" style="fill: none; stroke: #000000; stroke-width: 2; stroke-linecap: round"/>
   </g>
   <g id="line2d_40">
    <path d="M 179.94936 103.008069 
L 179.94936 67.058301 
L 179.94936 31.108533 
" clip-path="url(#p5a4a6b478a)" style="fill: none; stroke: #000000; stroke-width: 2; stroke-linecap: round"/>
   </g>
   <g id="line2d_41">
    <path d="M 179.94936 31.108533 
L 197.924244 31.108533 
L 215.899128 31.108533 
" clip-path="url(#p5a4a6b478a)" style="fill: none; stroke: #000000; stroke-width: 2; stroke-linecap: round"/>
   </g>
   <g id="line2d_42">
    <path d="M 215.899128 31.108533 
L 233.874012 31.108533 
L 236.869826 22.121091 
L 242.861454 40.095975 
L 248.853082 22.121091 
L 254.84471 40.095975 
L 260.836338 22.121091 
L 266.827966 40.095975 
L 269.82378 31.108533 
L 287.798664 31.108533 
" clip-path="url(#p5a4a6b478a)" style="fill: none; stroke: #000000; stroke-width: 2; stroke-linecap: round"/>
   </g>
   <g id="line2d_43">
    <path d="M 287.798664 31.108533 
L 385.64271 31.108533 
L 483.486757 31.108533 
" clip-path="url(#p5a4a6b478a)" style="fill: none; stroke: #000000; stroke-width: 2; stroke-linecap: round"/>
   </g>
   <g id="line2d_44">
    <path d="M 483.486757 31.108533 
L 483.486757 104.446059 
L 483.486757 177.783586 
" clip-path="url(#p5a4a6b478a)" style="fill: none; stroke: #000000; stroke-width: 2; stroke-linecap: round"/>
   </g>
   <g id="line2d_45">
    <path d="M 179.94936 282.756909 
L 179.94936 318.706677 
L 179.94936 354.656445 
" clip-path="url(#p5a4a6b478a)" style="fill: none; stroke: #000000; stroke-width: 2; stroke-linecap: round"/>
   </g>
   <g id="line2d_46">
    <path d="M 179.94936 354.656445 
L 197.924244 354.656445 
L 215.899128 354.656445 
" clip-path="url(#p5a4a6b478a)" style="fill: none; stroke: #000000; stroke-width: 2; stroke-linecap: round"/>
   </g>
   <g id="line2d_47">
    <path d="M 215.899128 354.656445 
L 233.874012 354.656445 
L 236.869826 345.669003 
L 242.861454 363.643887 
L 248.853082 345.669003 
L 254.84471 363.643887 
L 260.836338 345.669003 
L 266.827966 363.643887 
L 269.82378 354.656445 
L 287.798664 354.656445 
" clip-path="url(#p5a4a6b478a)" style="fill: none; stroke: #000000; stroke-width: 2; stroke-linecap: round"/>
   </g>
   <g id="line2d_48">
    <path d="M 287.798664 354.656445 
L 385.64271 354.656445 
L 483.486757 354.656445 
" clip-path="url(#p5a4a6b478a)" style="fill: none; stroke: #000000; stroke-width: 2; stroke-linecap: round"/>
   </g>
   <g id="line2d_49">
    <path d="M 483.486757 354.656445 
L 483.486757 281.318918 
L 483.486757 207.981391 
" clip-path="url(#p5a4a6b478a)" style="fill: none; stroke: #000000; stroke-width: 2; stroke-linecap: round"/>
   </g>
   <g id="text_1">
    <!-- $R_1$ -->
    <g transform="translate(99.320223 87.326174) scale(0.16 -0.16)">
     <defs>
      <path id="CMMI12-52" d="M 2355 3917 
C 2413 4153 2438 4166 2688 4166 
L 3149 4166 
C 3699 4166 4109 4000 4109 3503 
C 4109 3177 3942 2240 2656 2240 
L 1933 2240 
L 2355 3917 
z
M 3245 2163 
C 4038 2335 4659 2846 4659 3394 
C 4659 3892 4154 4352 3264 4352 
L 1530 4352 
C 1402 4352 1344 4352 1344 4230 
C 1344 4166 1389 4166 1510 4166 
C 1894 4166 1894 4115 1894 4045 
C 1894 4032 1894 3994 1869 3898 
L 1005 475 
C 947 253 934 190 493 190 
C 346 190 301 190 301 69 
C 301 6 371 6 390 6 
C 506 6 640 19 762 19 
L 1517 19 
C 1632 19 1766 6 1882 6 
C 1933 6 2003 6 2003 126 
C 2003 190 1946 190 1850 190 
C 1459 190 1459 241 1459 304 
C 1459 310 1459 355 1472 405 
L 1901 2112 
L 2669 2112 
C 3277 2112 3392 1731 3392 1522 
C 3392 1426 3328 1179 3283 1014 
C 3213 723 3194 653 3194 532 
C 3194 82 3565 -128 3994 -128 
C 4512 -128 4736 501 4736 589 
C 4736 634 4704 653 4666 653 
C 4614 653 4602 615 4589 564 
C 4435 114 4173 0 4013 0 
C 3853 0 3750 69 3750 355 
C 3750 507 3827 1084 3834 1116 
C 3866 1350 3866 1376 3866 1426 
C 3866 1889 3488 2086 3245 2163 
z
" transform="scale(0.015625)"/>
      <path id="CMR17-31" d="M 1702 4083 
C 1702 4217 1696 4224 1606 4224 
C 1357 3927 979 3833 621 3820 
C 602 3820 570 3820 563 3808 
C 557 3795 557 3782 557 3648 
C 755 3648 1088 3686 1344 3839 
L 1344 467 
C 1344 243 1331 166 781 166 
L 589 166 
L 589 0 
C 896 6 1216 12 1523 12 
C 1830 12 2150 6 2458 0 
L 2458 166 
L 2266 166 
C 1715 166 1702 236 1702 467 
L 1702 4083 
z
" transform="scale(0.015625)"/>
     </defs>
     <use xlink:href="#CMMI12-52" transform="scale(0.996264)"/>
     <use xlink:href="#CMR17-31" transform="translate(74.250826 -14.943915) scale(0.697382)"/>
    </g>
   </g>
   <g id="patch_2">
    <path d="M 179.94936 105.704301 
C 180.664409 105.704301 181.350268 105.420209 181.855884 104.914593 
C 182.3615 104.408977 182.645593 103.723118 182.645593 103.008069 
C 182.645593 102.293019 182.3615 101.60716 181.855884 101.101544 
C 181.350268 100.595928 180.664409 100.311836 179.94936 100.311836 
C 179.234311 100.311836 178.548452 100.595928 178.042836 101.101544 
C 177.537219 101.60716 177.253127 102.293019 177.253127 103.008069 
C 177.253127 103.723118 177.537219 104.408977 178.042836 104.914593 
C 178.548452 105.420209 179.234311 105.704301 179.94936 105.704301 
z
" clip-path="url(#p5a4a6b478a)" style="stroke: #000000; stroke-width: 2; stroke-linejoin: miter"/>
   </g>
   <g id="text_2">
    <!-- $C_2$ -->
    <g transform="translate(150.621144 196.867545) scale(0.16 -0.16)">
     <defs>
      <path id="CMMI12-43" d="M 4781 4422 
C 4781 4480 4736 4480 4723 4480 
C 4710 4480 4685 4480 4634 4415 
L 4192 3881 
C 3968 4262 3616 4480 3136 4480 
C 1754 4480 320 3087 320 1594 
C 320 533 1069 -128 2003 -128 
C 2515 -128 2963 89 3334 400 
C 3891 864 4058 1480 4058 1531 
C 4058 1588 4006 1588 3987 1588 
C 3930 1588 3923 1550 3910 1524 
C 3616 533 2752 57 2112 57 
C 1434 57 845 489 845 1391 
C 845 1594 909 2699 1632 3531 
C 1984 3938 2586 4294 3194 4294 
C 3898 4294 4211 3716 4211 3068 
C 4211 2903 4192 2763 4192 2737 
C 4192 2680 4256 2680 4275 2680 
C 4346 2680 4352 2687 4378 2801 
L 4781 4422 
z
" transform="scale(0.015625)"/>
      <path id="CMR17-32" d="M 2669 990 
L 2554 990 
C 2490 537 2438 460 2413 422 
C 2381 371 1920 371 1830 371 
L 602 371 
C 832 620 1280 1073 1824 1596 
C 2214 1966 2669 2400 2669 3033 
C 2669 3788 2067 4224 1395 4224 
C 691 4224 262 3603 262 3027 
C 262 2777 448 2745 525 2745 
C 589 2745 781 2783 781 3007 
C 781 3206 614 3264 525 3264 
C 486 3264 448 3257 422 3244 
C 544 3788 915 4057 1306 4057 
C 1862 4057 2227 3616 2227 3033 
C 2227 2477 1901 1998 1536 1583 
L 262 147 
L 262 0 
L 2515 0 
L 2669 990 
z
" transform="scale(0.015625)"/>
     </defs>
     <use xlink:href="#CMMI12-43" transform="scale(0.996264)"/>
     <use xlink:href="#CMR17-32" transform="translate(69.792037 -14.943915) scale(0.697382)"/>
    </g>
   </g>
   <g id="patch_3">
    <path d="M 179.94936 285.453141 
C 180.664409 285.453141 181.350268 285.169049 181.855884 284.663433 
C 182.3615 284.157817 182.645593 283.471958 182.645593 282.756909 
C 182.645593 282.041859 182.3615 281.356001 181.855884 280.850384 
C 181.350268 280.344768 180.664409 280.060676 179.94936 280.060676 
C 179.234311 280.060676 178.548452 280.344768 178.042836 280.850384 
C 177.537219 281.356001 177.253127 282.041859 177.253127 282.756909 
C 177.253127 283.471958 177.537219 284.157817 178.042836 284.663433 
C 178.548452 285.169049 179.234311 285.453141 179.94936 285.453141 
z
" clip-path="url(#p5a4a6b478a)" style="stroke: #000000; stroke-width: 2; stroke-linejoin: miter"/>
   </g>
   <g id="text_3">
    <!-- $R_1$ -->
    <g transform="translate(99.320223 267.075014) scale(0.16 -0.16)">
     <use xlink:href="#CMMI12-52" transform="scale(0.996264)"/>
     <use xlink:href="#CMR17-31" transform="translate(74.250826 -14.943915) scale(0.697382)"/>
    </g>
   </g>
   <g id="text_4">
    <!-- $R_3$ -->
    <g transform="translate(243.119295 87.326174) scale(0.16 -0.16)">
     <defs>
      <path id="CMR17-33" d="M 1414 2176 
C 1984 2176 2234 1673 2234 1094 
C 2234 322 1824 25 1453 25 
C 1114 25 563 193 390 691 
C 422 678 454 678 486 678 
C 640 678 755 780 755 947 
C 755 1132 614 1216 486 1216 
C 378 1216 211 1164 211 927 
C 211 335 787 -128 1466 -128 
C 2176 -128 2720 432 2720 1087 
C 2720 1718 2208 2176 1600 2246 
C 2086 2347 2554 2776 2554 3353 
C 2554 3856 2048 4224 1472 4224 
C 890 4224 378 3862 378 3347 
C 378 3123 544 3084 627 3084 
C 762 3084 877 3167 877 3334 
C 877 3500 762 3584 627 3584 
C 602 3584 570 3584 544 3571 
C 730 3999 1235 4076 1459 4076 
C 1683 4076 2106 3966 2106 3347 
C 2106 3167 2080 2851 1862 2574 
C 1670 2329 1453 2316 1242 2297 
C 1210 2297 1062 2284 1037 2284 
C 992 2278 966 2272 966 2227 
C 966 2182 973 2176 1101 2176 
L 1414 2176 
z
" transform="scale(0.015625)"/>
     </defs>
     <use xlink:href="#CMMI12-52" transform="scale(0.996264)"/>
     <use xlink:href="#CMR17-33" transform="translate(74.250826 -14.943915) scale(0.697382)"/>
    </g>
   </g>
   <g id="patch_4">
    <path d="M 323.748432 105.704301 
C 324.463481 105.704301 325.14934 105.420209 325.654956 104.914593 
C 326.160573 104.408977 326.444665 103.723118 326.444665 103.008069 
C 326.444665 102.293019 326.160573 101.60716 325.654956 101.101544 
C 325.14934 100.595928 324.463481 100.311836 323.748432 100.311836 
C 323.033383 100.311836 322.347524 100.595928 321.841908 101.101544 
C 321.336291 101.60716 321.052199 102.293019 321.052199 103.008069 
C 321.052199 103.723118 321.336291 104.408977 321.841908 104.914593 
C 322.347524 105.420209 323.033383 105.704301 323.748432 105.704301 
z
" clip-path="url(#p5a4a6b478a)" style="stroke: #000000; stroke-width: 2; stroke-linejoin: miter"/>
   </g>
   <g id="text_5">
    <!-- $R_3$ -->
    <g transform="translate(243.119295 267.075014) scale(0.16 -0.16)">
     <use xlink:href="#CMMI12-52" transform="scale(0.996264)"/>
     <use xlink:href="#CMR17-33" transform="translate(74.250826 -14.943915) scale(0.697382)"/>
    </g>
   </g>
   <g id="patch_5">
    <path d="M 323.748432 285.453141 
C 324.463481 285.453141 325.14934 285.169049 325.654956 284.663433 
C 326.160573 284.157817 326.444665 283.471958 326.444665 282.756909 
C 326.444665 282.041859 326.160573 281.356001 325.654956 280.850384 
C 325.14934 280.344768 324.463481 280.060676 323.748432 280.060676 
C 323.033383 280.060676 322.347524 280.344768 321.841908 280.850384 
C 321.336291 281.356001 321.052199 282.041859 321.052199 282.756909 
C 321.052199 283.471958 321.336291 284.157817 321.841908 284.663433 
C 322.347524 285.169049 323.033383 285.453141 323.748432 285.453141 
z
" clip-path="url(#p5a4a6b478a)" style="stroke: #000000; stroke-width: 2; stroke-linejoin: miter"/>
   </g>
   <g id="patch_6">
    <path d="M 483.486757 180.479819 
C 484.201806 180.479819 484.887665 180.195727 485.393281 179.69011 
C 485.898897 179.184494 486.182989 178.498635 486.182989 177.783586 
C 486.182989 177.068537 485.898897 176.382678 485.393281 175.877062 
C 484.887665 175.371446 484.201806 175.087354 483.486757 175.087354 
C 482.771707 175.087354 482.085848 175.371446 481.580232 175.877062 
C 481.074616 176.382678 480.790524 177.068537 480.790524 177.783586 
C 480.790524 178.498635 481.074616 179.184494 481.580232 179.69011 
C 482.085848 180.195727 482.771707 180.479819 483.486757 180.479819 
z
" clip-path="url(#p5a4a6b478a)" style="stroke: #000000; stroke-width: 2; stroke-linejoin: miter"/>
   </g>
   <g id="patch_7">
    <path d="M 483.486757 210.677624 
C 484.201806 210.677624 484.887665 210.393532 485.393281 209.887916 
C 485.898897 209.382299 486.182989 208.69644 486.182989 207.981391 
C 486.182989 207.266342 485.898897 206.580483 485.393281 206.074867 
C 484.887665 205.569251 484.201806 205.285159 483.486757 205.285159 
C 482.771707 205.285159 482.085848 205.569251 481.580232 206.074867 
C 481.074616 206.580483 480.790524 207.266342 480.790524 207.981391 
C 480.790524 208.69644 481.074616 209.382299 481.580232 209.887916 
C 482.085848 210.393532 482.771707 210.677624 483.486757 210.677624 
z
" clip-path="url(#p5a4a6b478a)" style="stroke: #000000; stroke-width: 2; stroke-linejoin: miter"/>
   </g>
   <g id="text_6">
    <!-- $C_1$ -->
    <g transform="translate(387.27507 87.326174) scale(0.16 -0.16)">
     <use xlink:href="#CMMI12-43" transform="scale(0.996264)"/>
     <use xlink:href="#CMR17-31" transform="translate(69.792037 -14.943915) scale(0.697382)"/>
    </g>
   </g>
   <g id="patch_8">
    <path d="M 483.486757 105.704301 
C 484.201806 105.704301 484.887665 105.420209 485.393281 104.914593 
C 485.898897 104.408977 486.182989 103.723118 486.182989 103.008069 
C 486.182989 102.293019 485.898897 101.60716 485.393281 101.101544 
C 484.887665 100.595928 484.201806 100.311836 483.486757 100.311836 
C 482.771707 100.311836 482.085848 100.595928 481.580232 101.101544 
C 481.074616 101.60716 480.790524 102.293019 480.790524 103.008069 
C 480.790524 103.723118 481.074616 104.408977 481.580232 104.914593 
C 482.085848 105.420209 482.771707 105.704301 483.486757 105.704301 
z
" clip-path="url(#p5a4a6b478a)" style="stroke: #000000; stroke-width: 2; stroke-linejoin: miter"/>
   </g>
   <g id="text_7">
    <!-- $C_1$ -->
    <g transform="translate(387.27507 267.075014) scale(0.16 -0.16)">
     <use xlink:href="#CMMI12-43" transform="scale(0.996264)"/>
     <use xlink:href="#CMR17-31" transform="translate(69.792037 -14.943915) scale(0.697382)"/>
    </g>
   </g>
   <g id="patch_9">
    <path d="M 483.486757 285.453141 
C 484.201806 285.453141 484.887665 285.169049 485.393281 284.663433 
C 485.898897 284.157817 486.182989 283.471958 486.182989 282.756909 
C 486.182989 282.041859 485.898897 281.356001 485.393281 280.850384 
C 484.887665 280.344768 484.201806 280.060676 483.486757 280.060676 
C 482.771707 280.060676 482.085848 280.344768 481.580232 280.850384 
C 481.074616 281.356001 480.790524 282.041859 480.790524 282.756909 
C 480.790524 283.471958 481.074616 284.157817 481.580232 284.663433 
C 482.085848 285.169049 482.771707 285.453141 483.486757 285.453141 
z
" clip-path="url(#p5a4a6b478a)" style="stroke: #000000; stroke-width: 2; stroke-linejoin: miter"/>
   </g>
   <g id="text_8">
    <!-- $R_2$ -->
    <g transform="translate(243.119295 15.426638) scale(0.16 -0.16)">
     <use xlink:href="#CMMI12-52" transform="scale(0.996264)"/>
     <use xlink:href="#CMR17-32" transform="translate(74.250826 -14.943915) scale(0.697382)"/>
    </g>
   </g>
   <g id="text_9">
    <!-- $R_2$ -->
    <g transform="translate(243.119295 338.97455) scale(0.16 -0.16)">
     <use xlink:href="#CMMI12-52" transform="scale(0.996264)"/>
     <use xlink:href="#CMR17-32" transform="translate(74.250826 -14.943915) scale(0.697382)"/>
    </g>
   </g>
   <g id="patch_10">
    <path d="M 36.150288 105.704301 
C 36.865337 105.704301 37.551196 105.420209 38.056812 104.914593 
C 38.562428 104.408977 38.84652 103.723118 38.84652 103.008069 
C 38.84652 102.293019 38.562428 101.60716 38.056812 101.101544 
C 37.551196 100.595928 36.865337 100.311836 36.150288 100.311836 
C 35.435239 100.311836 34.74938 100.595928 34.243763 101.101544 
C 33.738147 101.60716 33.454055 102.293019 33.454055 103.008069 
C 33.454055 103.723118 33.738147 104.408977 34.243763 104.914593 
C 34.74938 105.420209 35.435239 105.704301 36.150288 105.704301 
z
" clip-path="url(#p5a4a6b478a)" style="fill: #ffffff; stroke: #000000; stroke-width: 2; stroke-linejoin: miter"/>
   </g>
   <g id="text_10">
    <!-- $V_\mathrm{in,p}$ -->
    <g transform="translate(2.163058 106.173984) scale(0.16 -0.16)">
     <defs>
      <path id="CMMI12-56" d="M 3962 3644 
C 4179 3987 4378 4140 4704 4166 
C 4768 4172 4819 4172 4819 4287 
C 4819 4313 4806 4352 4749 4352 
C 4634 4352 4358 4339 4243 4339 
C 4058 4339 3866 4352 3686 4352 
C 3635 4352 3571 4352 3571 4230 
C 3571 4172 3629 4166 3654 4166 
C 3891 4146 3917 4032 3917 3956 
C 3917 3860 3827 3714 3821 3708 
L 1811 540 
L 1363 3968 
C 1363 4153 1696 4166 1766 4166 
C 1862 4166 1920 4166 1920 4287 
C 1920 4352 1850 4352 1830 4352 
C 1722 4352 1594 4339 1485 4339 
L 1126 4339 
C 659 4339 467 4352 461 4352 
C 422 4352 346 4352 346 4236 
C 346 4166 390 4166 493 4166 
C 819 4166 838 4108 858 3949 
L 1370 25 
C 1389 -109 1389 -128 1478 -128 
C 1555 -128 1587 -109 1651 -7 
L 3962 3644 
z
" transform="scale(0.015625)"/>
      <path id="CMR17-69" d="M 992 3961 
C 992 4102 877 4224 730 4224 
C 589 4224 467 4108 467 3961 
C 467 3820 582 3699 730 3699 
C 870 3699 992 3814 992 3961 
z
M 243 2745 
L 243 2579 
C 602 2579 653 2540 653 2231 
L 653 443 
C 653 198 627 166 218 166 
L 218 0 
C 371 12 646 12 806 12 
C 960 12 1222 12 1370 0 
L 1370 166 
C 992 166 979 205 979 436 
L 979 2816 
L 243 2745 
z
" transform="scale(0.015625)"/>
      <path id="CMR17-6e" d="M 2656 1954 
C 2656 2282 2592 2816 1837 2816 
C 1331 2816 1069 2424 973 2166 
L 966 2166 
L 966 2816 
L 211 2745 
L 211 2578 
C 589 2578 646 2540 646 2231 
L 646 443 
C 646 198 621 166 211 166 
L 211 0 
C 365 12 646 12 813 12 
C 979 12 1267 12 1421 0 
L 1421 166 
C 1011 166 986 192 986 443 
L 986 1678 
C 986 2269 1344 2713 1792 2713 
C 2266 2713 2317 2289 2317 1980 
L 2317 443 
C 2317 198 2291 166 1882 166 
L 1882 0 
C 2035 12 2317 12 2483 12 
C 2650 12 2938 12 3091 0 
L 3091 166 
C 2682 166 2656 192 2656 443 
L 2656 1954 
z
" transform="scale(0.015625)"/>
      <path id="CMMI12-3b" d="M 1248 -26 
C 1248 345 1126 620 864 620 
C 659 620 557 454 557 313 
C 557 172 653 0 870 0 
C 954 0 1024 25 1082 83 
C 1094 96 1101 96 1107 96 
C 1120 96 1120 6 1120 -26 
C 1120 -233 1082 -642 710 -1051 
C 640 -1127 640 -1140 640 -1152 
C 640 -1184 672 -1216 704 -1216 
C 755 -1216 1248 -749 1248 -26 
z
" transform="scale(0.015625)"/>
      <path id="CMR17-70" d="M 1408 -1114 
C 998 -1114 973 -1088 973 -834 
L 973 380 
C 1158 109 1427 -64 1766 -64 
C 2406 -64 3053 503 3053 1382 
C 3053 2196 2496 2816 1837 2816 
C 1453 2816 1139 2603 960 2345 
L 960 2816 
L 198 2745 
L 198 2577 
C 576 2577 634 2539 634 2228 
L 634 -834 
C 634 -1081 608 -1114 198 -1114 
L 198 -1280 
C 352 -1268 634 -1268 800 -1268 
C 966 -1268 1254 -1268 1408 -1280 
L 1408 -1114 
z
M 973 2015 
C 973 2106 973 2241 1222 2481 
C 1254 2506 1472 2700 1792 2700 
C 2259 2700 2643 2112 2643 1376 
C 2643 639 2234 38 1728 38 
C 1498 38 1248 148 1056 451 
C 973 594 973 632 973 736 
L 973 2015 
z
" transform="scale(0.015625)"/>
     </defs>
     <use xlink:href="#CMMI12-56" transform="scale(0.996264)"/>
     <use xlink:href="#CMR17-69" transform="translate(56.869579 -14.943915) scale(0.697382)"/>
     <use xlink:href="#CMR17-6e" transform="translate(74.279238 -14.943915) scale(0.697382)"/>
     <use xlink:href="#CMMI12-3b" transform="translate(109.905846 -14.943915) scale(0.697382)"/>
     <use xlink:href="#CMR17-70" transform="translate(128.873779 -14.943915) scale(0.697382)"/>
    </g>
   </g>
   <g id="patch_11">
    <path d="M 36.150288 285.453141 
C 36.865337 285.453141 37.551196 285.169049 38.056812 284.663433 
C 38.562428 284.157817 38.84652 283.471958 38.84652 282.756909 
C 38.84652 282.041859 38.562428 281.356001 38.056812 280.850384 
C 37.551196 280.344768 36.865337 280.060676 36.150288 280.060676 
C 35.435239 280.060676 34.74938 280.344768 34.243763 280.850384 
C 33.738147 281.356001 33.454055 282.041859 33.454055 282.756909 
C 33.454055 283.471958 33.738147 284.157817 34.243763 284.663433 
C 34.74938 285.169049 35.435239 285.453141 36.150288 285.453141 
z
" clip-path="url(#p5a4a6b478a)" style="fill: #ffffff; stroke: #000000; stroke-width: 2; stroke-linejoin: miter"/>
   </g>
   <g id="text_11">
    <!-- $V_\mathrm{in,n}$ -->
    <g transform="translate(2.163058 285.922824) scale(0.16 -0.16)">
     <use xlink:href="#CMMI12-56" transform="scale(0.996264)"/>
     <use xlink:href="#CMR17-69" transform="translate(56.869579 -14.943915) scale(0.697382)"/>
     <use xlink:href="#CMR17-6e" transform="translate(74.279238 -14.943915) scale(0.697382)"/>
     <use xlink:href="#CMMI12-3b" transform="translate(109.905846 -14.943915) scale(0.697382)"/>
     <use xlink:href="#CMR17-6e" transform="translate(128.873779 -14.943915) scale(0.697382)"/>
    </g>
   </g>
   <g id="patch_12">
    <path d="M 429.562105 180.479819 
C 430.277154 180.479819 430.963013 180.195727 431.468629 179.69011 
C 431.974245 179.184494 432.258337 178.498635 432.258337 177.783586 
C 432.258337 177.068537 431.974245 176.382678 431.468629 175.877062 
C 430.963013 175.371446 430.277154 175.087354 429.562105 175.087354 
C 428.847055 175.087354 428.161196 175.371446 427.65558 175.877062 
C 427.149964 176.382678 426.865872 177.068537 426.865872 177.783586 
C 426.865872 178.498635 427.149964 179.184494 427.65558 179.69011 
C 428.161196 180.195727 428.847055 180.479819 429.562105 180.479819 
z
" clip-path="url(#p5a4a6b478a)" style="fill: #ffffff; stroke: #000000; stroke-width: 2; stroke-linejoin: miter"/>
   </g>
   <g id="patch_13">
    <path d="M 591.336061 210.677624 
C 592.05111 210.677624 592.736969 210.393532 593.242585 209.887916 
C 593.748201 209.382299 594.032293 208.69644 594.032293 207.981391 
C 594.032293 207.266342 593.748201 206.580483 593.242585 206.074867 
C 592.736969 205.569251 592.05111 205.285159 591.336061 205.285159 
C 590.621011 205.285159 589.935153 205.569251 589.429536 206.074867 
C 588.92392 206.580483 588.639828 207.266342 588.639828 207.981391 
C 588.639828 208.69644 588.92392 209.382299 589.429536 209.887916 
C 589.935153 210.393532 590.621011 210.677624 591.336061 210.677624 
z
" clip-path="url(#p5a4a6b478a)" style="fill: #ffffff; stroke: #000000; stroke-width: 2; stroke-linejoin: miter"/>
   </g>
   <g id="text_12">
    <!-- $V_\mathrm{out,n}$ -->
    <g transform="translate(597.62727 211.147307) scale(0.16 -0.16)">
     <defs>
      <path id="CMR17-6f" d="M 2758 1356 
C 2758 2176 2163 2816 1466 2816 
C 768 2816 173 2176 173 1356 
C 173 550 768 -64 1466 -64 
C 2163 -64 2758 550 2758 1356 
z
M 1466 51 
C 1165 51 909 230 762 480 
C 602 768 582 1126 582 1408 
C 582 1676 595 2009 762 2297 
C 890 2508 1139 2713 1466 2713 
C 1754 2713 1997 2553 2150 2329 
C 2349 2028 2349 1606 2349 1408 
C 2349 1158 2336 774 2163 467 
C 1984 172 1709 51 1466 51 
z
" transform="scale(0.015625)"/>
      <path id="CMR17-75" d="M 1882 2745 
L 1882 2579 
C 2259 2579 2317 2540 2317 2229 
L 2317 1053 
C 2317 510 2029 38 1555 38 
C 1030 38 986 355 986 691 
L 986 2816 
L 211 2745 
L 211 2579 
C 467 2579 640 2579 646 2320 
L 646 1079 
C 646 646 646 368 813 187 
C 896 103 1056 -64 1517 -64 
C 2061 -64 2272 400 2323 536 
L 2330 536 
L 2330 -64 
L 3091 -13 
L 3091 154 
C 2714 154 2656 193 2656 503 
L 2656 2816 
L 1882 2745 
z
" transform="scale(0.015625)"/>
      <path id="CMR17-74" d="M 966 2585 
L 1862 2585 
L 1862 2752 
L 966 2752 
L 966 3968 
L 851 3968 
C 838 3292 614 2700 70 2687 
L 70 2585 
L 627 2585 
L 627 778 
C 627 655 627 -64 1370 -64 
C 1747 -64 1965 308 1965 784 
L 1965 1151 
L 1850 1151 
L 1850 790 
C 1850 347 1677 51 1408 51 
C 1222 51 966 179 966 765 
L 966 2585 
z
" transform="scale(0.015625)"/>
     </defs>
     <use xlink:href="#CMMI12-56" transform="scale(0.996264)"/>
     <use xlink:href="#CMR17-6f" transform="translate(56.869579 -14.943915) scale(0.697382)"/>
     <use xlink:href="#CMR17-75" transform="translate(88.852761 -14.943915) scale(0.697382)"/>
     <use xlink:href="#CMR17-74" transform="translate(124.479369 -14.943915) scale(0.697382)"/>
     <use xlink:href="#CMMI12-3b" transform="translate(149.17579 -14.943915) scale(0.697382)"/>
     <use xlink:href="#CMR17-6e" transform="translate(168.143723 -14.943915) scale(0.697382)"/>
    </g>
   </g>
   <g id="patch_14">
    <path d="M 591.336061 180.479819 
C 592.05111 180.479819 592.736969 180.195727 593.242585 179.69011 
C 593.748201 179.184494 594.032293 178.498635 594.032293 177.783586 
C 594.032293 177.068537 593.748201 176.382678 593.242585 175.877062 
C 592.736969 175.371446 592.05111 175.087354 591.336061 175.087354 
C 590.621011 175.087354 589.935153 175.371446 589.429536 175.877062 
C 588.92392 176.382678 588.639828 177.068537 588.639828 177.783586 
C 588.639828 178.498635 588.92392 179.184494 589.429536 179.69011 
C 589.935153 180.195727 590.621011 180.479819 591.336061 180.479819 
z
" clip-path="url(#p5a4a6b478a)" style="fill: #ffffff; stroke: #000000; stroke-width: 2; stroke-linejoin: miter"/>
   </g>
   <g id="text_13">
    <!-- $V_\mathrm{out,p}$ -->
    <g transform="translate(597.62727 180.949502) scale(0.16 -0.16)">
     <use xlink:href="#CMMI12-56" transform="scale(0.996264)"/>
     <use xlink:href="#CMR17-6f" transform="translate(56.869579 -14.943915) scale(0.697382)"/>
     <use xlink:href="#CMR17-75" transform="translate(88.852761 -14.943915) scale(0.697382)"/>
     <use xlink:href="#CMR17-74" transform="translate(124.479369 -14.943915) scale(0.697382)"/>
     <use xlink:href="#CMMI12-3b" transform="translate(149.17579 -14.943915) scale(0.697382)"/>
     <use xlink:href="#CMR17-70" transform="translate(168.143723 -14.943915) scale(0.697382)"/>
    </g>
   </g>
  </g>
 </g>
 <defs>
  <clipPath id="p5a4a6b478a">
   <rect x="0" y="-0" width="634.32" height="368.317357"/>
  </clipPath>
 </defs>
</svg>
