<?xml version="1.0" encoding="utf-8" standalone="no"?>
<!DOCTYPE svg PUBLIC "-//W3C//DTD SVG 1.1//EN"
  "http://www.w3.org/Graphics/SVG/1.1/DTD/svg11.dtd">
<svg xmlns:xlink="http://www.w3.org/1999/xlink" width="607.9048pt" height="453.8184pt" viewBox="0 0 607.9048 453.8184" xmlns="http://www.w3.org/2000/svg" version="1.1">
 <metadata>
  <rdf:RDF xmlns:dc="http://purl.org/dc/elements/1.1/" xmlns:cc="http://creativecommons.org/ns#" xmlns:rdf="http://www.w3.org/1999/02/22-rdf-syntax-ns#">
   <cc:Work>
    <dc:type rdf:resource="http://purl.org/dc/dcmitype/StillImage"/>
    <dc:date>2026-03-22T21:17:04.348103</dc:date>
    <dc:format>image/svg+xml</dc:format>
    <dc:creator>
     <cc:Agent>
      <dc:title>Matplotlib v3.10.7, https://matplotlib.org/</dc:title>
     </cc:Agent>
    </dc:creator>
   </cc:Work>
  </rdf:RDF>
 </metadata>
 <defs>
  <style type="text/css">*{stroke-linejoin: round; stroke-linecap: butt}</style>
 </defs>
 <g id="figure_1">
  <g id="patch_1">
   <path d="M 0 453.8184 
L 607.9048 453.8184 
L 607.9048 0 
L 0 0 
L 0 453.8184 
z
" style="fill: none"/>
  </g>
  <g id="axes_1">
   <g id="patch_2">
    <path d="M 193.7008 65.3064 
C 194.846477 65.3064 195.945385 64.851218 196.755501 64.041101 
C 197.565618 63.230985 198.0208 62.132077 198.0208 60.9864 
C 198.0208 59.840723 197.565618 58.741815 196.755501 57.931699 
C 195.945385 57.121582 194.846477 56.6664 193.7008 56.6664 
C 192.555123 56.6664 191.456215 57.121582 190.646099 57.931699 
C 189.835982 58.741815 189.3808 59.840723 189.3808 60.9864 
C 189.3808 62.132077 189.835982 63.230985 190.646099 64.041101 
C 191.456215 64.851218 192.555123 65.3064 193.7008 65.3064 
L 193.7008 65.3064 
z
" clip-path="url(#p28b4c470bc)" style="fill: none; stroke: #000000; stroke-width: 2; stroke-linejoin: miter"/>
   </g>
   <g id="patch_3">
    <path d="M 252.0208 143.6064 
C 253.166477 143.6064 254.265385 143.151218 255.075501 142.341101 
C 255.885618 141.530985 256.3408 140.432077 256.3408 139.2864 
C 256.3408 138.140723 255.885618 137.041815 255.075501 136.231699 
C 254.265385 135.421582 253.166477 134.9664 252.0208 134.9664 
C 250.875123 134.9664 249.776215 135.421582 248.966099 136.231699 
C 248.155982 137.041815 247.7008 138.140723 247.7008 139.2864 
C 247.7008 140.432077 248.155982 141.530985 248.966099 142.341101 
C 249.776215 143.151218 250.875123 143.6064 252.0208 143.6064 
L 252.0208 143.6064 
z
" clip-path="url(#p28b4c470bc)" style="fill: none; stroke: #000000; stroke-width: 2; stroke-linejoin: miter"/>
   </g>
   <g id="patch_4">
    <path d="M 252.0208 345.0264 
C 253.166477 345.0264 254.265385 344.571218 255.075501 343.761101 
C 255.885618 342.950985 256.3408 341.852077 256.3408 340.7064 
C 256.3408 339.560723 255.885618 338.461815 255.075501 337.651699 
C 254.265385 336.841582 253.166477 336.3864 252.0208 336.3864 
C 250.875123 336.3864 249.776215 336.841582 248.966099 337.651699 
C 248.155982 338.461815 247.7008 339.560723 247.7008 340.7064 
C 247.7008 341.852077 248.155982 342.950985 248.966099 343.761101 
C 249.776215 344.571218 250.875123 345.0264 252.0208 345.0264 
L 252.0208 345.0264 
z
" clip-path="url(#p28b4c470bc)" style="fill: none; stroke: #000000; stroke-width: 2; stroke-linejoin: miter"/>
   </g>
   <g id="patch_5">
    <path d="M 191.7208 421.3464 
C 192.866477 421.3464 193.965385 420.891218 194.775501 420.081101 
C 195.585618 419.270985 196.0408 418.172077 196.0408 417.0264 
C 196.0408 415.880723 195.585618 414.781815 194.775501 413.971699 
C 193.965385 413.161582 192.866477 412.7064 191.7208 412.7064 
C 190.575123 412.7064 189.476215 413.161582 188.666099 413.971699 
C 187.855982 414.781815 187.4008 415.880723 187.4008 417.0264 
C 187.4008 418.172077 187.855982 419.270985 188.666099 420.081101 
C 189.476215 420.891218 190.575123 421.3464 191.7208 421.3464 
L 191.7208 421.3464 
z
" clip-path="url(#p28b4c470bc)" style="fill: none; stroke: #000000; stroke-width: 2; stroke-linejoin: miter"/>
   </g>
   <g id="patch_6">
    <path d="M 110.0008 319.6464 
C 111.146477 319.6464 112.245385 319.191218 113.055501 318.381101 
C 113.865618 317.570985 114.3208 316.472077 114.3208 315.3264 
C 114.3208 314.180723 113.865618 313.081815 113.055501 312.271699 
C 112.245385 311.461582 111.146477 311.0064 110.0008 311.0064 
C 108.855123 311.0064 107.756215 311.461582 106.946099 312.271699 
C 106.135982 313.081815 105.6808 314.180723 105.6808 315.3264 
C 105.6808 316.472077 106.135982 317.570985 106.946099 318.381101 
C 107.756215 319.191218 108.855123 319.6464 110.0008 319.6464 
L 110.0008 319.6464 
z
" clip-path="url(#p28b4c470bc)" style="fill: none; stroke: #000000; stroke-width: 2; stroke-linejoin: miter"/>
   </g>
   <g id="patch_7">
    <path d="M 193.7008 243.3264 
C 194.846477 243.3264 195.945385 242.871218 196.755501 242.061101 
C 197.565618 241.250985 198.0208 240.152077 198.0208 239.0064 
C 198.0208 237.860723 197.565618 236.761815 196.755501 235.951699 
C 195.945385 235.141582 194.846477 234.6864 193.7008 234.6864 
C 192.555123 234.6864 191.456215 235.141582 190.646099 235.951699 
C 189.835982 236.761815 189.3808 237.860723 189.3808 239.0064 
C 189.3808 240.152077 189.835982 241.250985 190.646099 242.061101 
C 191.456215 242.871218 192.555123 243.3264 193.7008 243.3264 
L 193.7008 243.3264 
z
" clip-path="url(#p28b4c470bc)" style="fill: none; stroke: #000000; stroke-width: 2; stroke-linejoin: miter"/>
   </g>
   <g id="patch_8">
    <path d="M 110.0008 165.0264 
C 111.146477 165.0264 112.245385 164.571218 113.055501 163.761101 
C 113.865618 162.950985 114.3208 161.852077 114.3208 160.7064 
C 114.3208 159.560723 113.865618 158.461815 113.055501 157.651699 
C 112.245385 156.841582 111.146477 156.3864 110.0008 156.3864 
C 108.855123 156.3864 107.756215 156.841582 106.946099 157.651699 
C 106.135982 158.461815 105.6808 159.560723 105.6808 160.7064 
C 105.6808 161.852077 106.135982 162.950985 106.946099 163.761101 
C 107.756215 164.571218 108.855123 165.0264 110.0008 165.0264 
L 110.0008 165.0264 
z
" clip-path="url(#p28b4c470bc)" style="fill: none; stroke: #000000; stroke-width: 2; stroke-linejoin: miter"/>
   </g>
   <g id="patch_9">
    <path d="M 294.3208 243.3264 
C 295.466477 243.3264 296.565385 242.871218 297.375501 242.061101 
C 298.185618 241.250985 298.6408 240.152077 298.6408 239.0064 
C 298.6408 237.860723 298.185618 236.761815 297.375501 235.951699 
C 296.565385 235.141582 295.466477 234.6864 294.3208 234.6864 
C 293.175123 234.6864 292.076215 235.141582 291.266099 235.951699 
C 290.455982 236.761815 290.0008 237.860723 290.0008 239.0064 
C 290.0008 240.152077 290.455982 241.250985 291.266099 242.061101 
C 292.076215 242.871218 293.175123 243.3264 294.3208 243.3264 
L 294.3208 243.3264 
z
" clip-path="url(#p28b4c470bc)" style="fill: none; stroke: #000000; stroke-width: 2; stroke-linejoin: miter"/>
   </g>
   <g id="patch_10">
    <path d="M 391.3408 243.3264 
C 392.486477 243.3264 393.585385 242.871218 394.395501 242.061101 
C 395.205618 241.250985 395.6608 240.152077 395.6608 239.0064 
C 395.6608 237.860723 395.205618 236.761815 394.395501 235.951699 
C 393.585385 235.141582 392.486477 234.6864 391.3408 234.6864 
C 390.195123 234.6864 389.096215 235.141582 388.286099 235.951699 
C 387.475982 236.761815 387.0208 237.860723 387.0208 239.0064 
C 387.0208 240.152077 387.475982 241.250985 388.286099 242.061101 
C 389.096215 242.871218 390.195123 243.3264 391.3408 243.3264 
L 391.3408 243.3264 
z
" clip-path="url(#p28b4c470bc)" style="fill: none; stroke: #000000; stroke-width: 2; stroke-linejoin: miter"/>
   </g>
   <g id="patch_11">
    <path d="M 491.0608 165.0264 
C 492.206477 165.0264 493.305385 164.571218 494.115501 163.761101 
C 494.925618 162.950985 495.3808 161.852077 495.3808 160.7064 
C 495.3808 159.560723 494.925618 158.461815 494.115501 157.651699 
C 493.305385 156.841582 492.206477 156.3864 491.0608 156.3864 
C 489.915123 156.3864 488.816215 156.841582 488.006099 157.651699 
C 487.195982 158.461815 486.7408 159.560723 486.7408 160.7064 
C 486.7408 161.852077 487.195982 162.950985 488.006099 163.761101 
C 488.816215 164.571218 489.915123 165.0264 491.0608 165.0264 
L 491.0608 165.0264 
z
" clip-path="url(#p28b4c470bc)" style="fill: none; stroke: #000000; stroke-width: 2; stroke-linejoin: miter"/>
   </g>
   <g id="patch_12">
    <path d="M 491.0608 321.6264 
C 492.206477 321.6264 493.305385 321.171218 494.115501 320.361101 
C 494.925618 319.550985 495.3808 318.452077 495.3808 317.3064 
C 495.3808 316.160723 494.925618 315.061815 494.115501 314.251699 
C 493.305385 313.441582 492.206477 312.9864 491.0608 312.9864 
C 489.915123 312.9864 488.816215 313.441582 488.006099 314.251699 
C 487.195982 315.061815 486.7408 316.160723 486.7408 317.3064 
C 486.7408 318.452077 487.195982 319.550985 488.006099 320.361101 
C 488.816215 321.171218 489.915123 321.6264 491.0608 321.6264 
L 491.0608 321.6264 
z
" clip-path="url(#p28b4c470bc)" style="fill: none; stroke: #000000; stroke-width: 2; stroke-linejoin: miter"/>
   </g>
   <g id="line2d_1">
    <path d="M 38.0008 60.9864 
L 74.0008 60.9864 
L 110.0008 60.9864 
" clip-path="url(#p28b4c470bc)" style="fill: none; stroke: #000000; stroke-width: 2; stroke-linecap: round"/>
   </g>
   <g id="line2d_2">
    <path d="M 110.0008 60.9864 
L 128.0008 60.9864 
L 146.0008 60.9864 
" clip-path="url(#p28b4c470bc)" style="fill: none; stroke: #000000; stroke-width: 2; stroke-linecap: round"/>
   </g>
   <g id="line2d_3">
    <path d="M 146.0008 60.9864 
L 165.9808 60.9864 
M 198.0208 60.9864 
L 218.0008 60.9864 
" clip-path="url(#p28b4c470bc)" style="fill: none; stroke: #000000; stroke-width: 2; stroke-linecap: round"/>
   </g>
   <g id="line2d_4">
    <path d="M 165.9808 42.9864 
L 189.3808 60.9864 
L 165.9808 78.9864 
L 165.9808 42.9864 
" clip-path="url(#p28b4c470bc)" style="fill: none; stroke: #000000; stroke-width: 2; stroke-linecap: round"/>
   </g>
   <g id="line2d_5">
    <path d="M 177.6808 50.9064 
L 177.6808 35.7864 
" clip-path="url(#p28b4c470bc)" style="fill: none; stroke: #000000; stroke-width: 2; stroke-linecap: round"/>
   </g>
   <g id="line2d_6">
    <path d="M 177.6808 35.7864 
L 177.6808 31.2864 
L 177.6808 26.7864 
" clip-path="url(#p28b4c470bc)" style="fill: none; stroke: #000000; stroke-width: 2; stroke-linecap: round"/>
   </g>
   <g id="line2d_7">
    <path d="M 198.0208 60.9864 
L 225.0208 60.9864 
L 252.0208 60.9864 
" clip-path="url(#p28b4c470bc)" style="fill: none; stroke: #000000; stroke-width: 2; stroke-linecap: round"/>
   </g>
   <g id="line2d_8">
    <path d="M 252.0208 60.9864 
L 252.0208 87.9864 
L 252.0208 114.9864 
" clip-path="url(#p28b4c470bc)" style="fill: none; stroke: #000000; stroke-width: 2; stroke-linecap: round"/>
   </g>
   <g id="line2d_9">
    <path d="M 252.0208 114.9864 
L 252.0208 134.9664 
M 252.0208 167.0064 
L 252.0208 186.9864 
" clip-path="url(#p28b4c470bc)" style="fill: none; stroke: #000000; stroke-width: 2; stroke-linecap: round"/>
   </g>
   <g id="line2d_10">
    <path d="M 270.0208 167.0064 
L 234.0208 167.0064 
L 252.0208 143.6064 
L 270.0208 167.0064 
" clip-path="url(#p28b4c470bc)" style="fill: none; stroke: #000000; stroke-width: 2; stroke-linecap: round"/>
   </g>
   <g id="line2d_11">
    <path d="M 277.2208 155.3064 
L 262.1008 155.3064 
" clip-path="url(#p28b4c470bc)" style="fill: none; stroke: #000000; stroke-width: 2; stroke-linecap: round"/>
   </g>
   <g id="line2d_12">
    <path d="M 277.2208 155.3064 
L 281.7208 155.3064 
L 286.2208 155.3064 
" clip-path="url(#p28b4c470bc)" style="fill: none; stroke: #000000; stroke-width: 2; stroke-linecap: round"/>
   </g>
   <g id="line2d_13">
    <path d="M 252.0208 167.0064 
L 252.0208 203.0064 
L 252.0208 239.0064 
" clip-path="url(#p28b4c470bc)" style="fill: none; stroke: #000000; stroke-width: 2; stroke-linecap: round"/>
   </g>
   <g id="line2d_14">
    <path d="M 252.0208 239.0064 
L 252.0208 266.0064 
L 252.0208 293.0064 
" clip-path="url(#p28b4c470bc)" style="fill: none; stroke: #000000; stroke-width: 2; stroke-linecap: round"/>
   </g>
   <g id="line2d_15">
    <path d="M 252.0208 293.0064 
L 252.0208 312.9864 
M 252.0208 345.0264 
L 252.0208 365.0064 
" clip-path="url(#p28b4c470bc)" style="fill: none; stroke: #000000; stroke-width: 2; stroke-linecap: round"/>
   </g>
   <g id="line2d_16">
    <path d="M 270.0208 312.9864 
L 252.0208 336.3864 
L 234.0208 312.9864 
L 270.0208 312.9864 
" clip-path="url(#p28b4c470bc)" style="fill: none; stroke: #000000; stroke-width: 2; stroke-linecap: round"/>
   </g>
   <g id="line2d_17">
    <path d="M 262.1008 324.6864 
L 277.2208 324.6864 
" clip-path="url(#p28b4c470bc)" style="fill: none; stroke: #000000; stroke-width: 2; stroke-linecap: round"/>
   </g>
   <g id="line2d_18">
    <path d="M 277.2208 324.6864 
L 281.7208 324.6864 
L 286.2208 324.6864 
" clip-path="url(#p28b4c470bc)" style="fill: none; stroke: #000000; stroke-width: 2; stroke-linecap: round"/>
   </g>
   <g id="line2d_19">
    <path d="M 252.0208 345.0264 
L 252.0208 381.0264 
L 252.0208 417.0264 
" clip-path="url(#p28b4c470bc)" style="fill: none; stroke: #000000; stroke-width: 2; stroke-linecap: round"/>
   </g>
   <g id="line2d_20">
    <path d="M 252.0208 417.0264 
L 234.0208 417.0264 
L 216.0208 417.0264 
" clip-path="url(#p28b4c470bc)" style="fill: none; stroke: #000000; stroke-width: 2; stroke-linecap: round"/>
   </g>
   <g id="line2d_21">
    <path d="M 216.0208 417.0264 
L 196.0408 417.0264 
M 164.0008 417.0264 
L 144.0208 417.0264 
" clip-path="url(#p28b4c470bc)" style="fill: none; stroke: #000000; stroke-width: 2; stroke-linecap: round"/>
   </g>
   <g id="line2d_22">
    <path d="M 164.0008 399.0264 
L 164.0008 435.0264 
L 187.4008 417.0264 
L 164.0008 399.0264 
" clip-path="url(#p28b4c470bc)" style="fill: none; stroke: #000000; stroke-width: 2; stroke-linecap: round"/>
   </g>
   <g id="line2d_23">
    <path d="M 175.7008 391.8264 
L 175.7008 406.9464 
" clip-path="url(#p28b4c470bc)" style="fill: none; stroke: #000000; stroke-width: 2; stroke-linecap: round"/>
   </g>
   <g id="line2d_24">
    <path d="M 175.7008 391.8264 
L 175.7008 387.3264 
L 175.7008 382.8264 
" clip-path="url(#p28b4c470bc)" style="fill: none; stroke: #000000; stroke-width: 2; stroke-linecap: round"/>
   </g>
   <g id="line2d_25">
    <path d="M 164.0008 417.0264 
L 137.0008 417.0264 
L 110.0008 417.0264 
" clip-path="url(#p28b4c470bc)" style="fill: none; stroke: #000000; stroke-width: 2; stroke-linecap: round"/>
   </g>
   <g id="line2d_26">
    <path d="M 110.0008 417.0264 
L 74.0008 417.0264 
L 38.0008 417.0264 
" clip-path="url(#p28b4c470bc)" style="fill: none; stroke: #000000; stroke-width: 2; stroke-linecap: round"/>
   </g>
   <g id="line2d_27">
    <path d="M 110.0008 417.0264 
L 110.0008 390.0264 
L 110.0008 363.0264 
" clip-path="url(#p28b4c470bc)" style="fill: none; stroke: #000000; stroke-width: 2; stroke-linecap: round"/>
   </g>
   <g id="line2d_28">
    <path d="M 110.0008 363.0264 
L 110.0008 343.0464 
M 110.0008 311.0064 
L 110.0008 291.0264 
" clip-path="url(#p28b4c470bc)" style="fill: none; stroke: #000000; stroke-width: 2; stroke-linecap: round"/>
   </g>
   <g id="line2d_29">
    <path d="M 92.0008 343.0464 
L 110.0008 319.6464 
L 128.0008 343.0464 
L 92.0008 343.0464 
" clip-path="url(#p28b4c470bc)" style="fill: none; stroke: #000000; stroke-width: 2; stroke-linecap: round"/>
   </g>
   <g id="line2d_30">
    <path d="M 99.9208 331.3464 
L 84.8008 331.3464 
" clip-path="url(#p28b4c470bc)" style="fill: none; stroke: #000000; stroke-width: 2; stroke-linecap: round"/>
   </g>
   <g id="line2d_31">
    <path d="M 84.8008 331.3464 
L 80.3008 331.3464 
L 75.8008 331.3464 
" clip-path="url(#p28b4c470bc)" style="fill: none; stroke: #000000; stroke-width: 2; stroke-linecap: round"/>
   </g>
   <g id="line2d_32">
    <path d="M 110.0008 311.0064 
L 110.0008 275.0064 
L 110.0008 239.0064 
" clip-path="url(#p28b4c470bc)" style="fill: none; stroke: #000000; stroke-width: 2; stroke-linecap: round"/>
   </g>
   <g id="line2d_33">
    <path d="M 110.0008 239.0064 
L 123.5008 239.0064 
L 137.0008 239.0064 
" clip-path="url(#p28b4c470bc)" style="fill: none; stroke: #000000; stroke-width: 2; stroke-linecap: round"/>
   </g>
   <g id="line2d_34">
    <path d="M 137.0008 239.0064 
L 141.5008 239.0064 
L 146.0008 239.0064 
" clip-path="url(#p28b4c470bc)" style="fill: none; stroke: #000000; stroke-width: 2; stroke-linecap: round"/>
   </g>
   <g id="line2d_35">
    <path d="M 146.0008 239.0064 
L 165.9808 239.0064 
M 198.0208 239.0064 
L 218.0008 239.0064 
" clip-path="url(#p28b4c470bc)" style="fill: none; stroke: #000000; stroke-width: 2; stroke-linecap: round"/>
   </g>
   <g id="line2d_36">
    <path d="M 165.9808 221.0064 
L 189.3808 239.0064 
L 165.9808 257.0064 
L 165.9808 221.0064 
" clip-path="url(#p28b4c470bc)" style="fill: none; stroke: #000000; stroke-width: 2; stroke-linecap: round"/>
   </g>
   <g id="line2d_37">
    <path d="M 177.6808 228.9264 
L 177.6808 213.8064 
" clip-path="url(#p28b4c470bc)" style="fill: none; stroke: #000000; stroke-width: 2; stroke-linecap: round"/>
   </g>
   <g id="line2d_38">
    <path d="M 177.6808 213.8064 
L 177.6808 209.3064 
L 177.6808 204.8064 
" clip-path="url(#p28b4c470bc)" style="fill: none; stroke: #000000; stroke-width: 2; stroke-linecap: round"/>
   </g>
   <g id="line2d_39">
    <path d="M 198.0208 239.0064 
L 225.0208 239.0064 
L 252.0208 239.0064 
" clip-path="url(#p28b4c470bc)" style="fill: none; stroke: #000000; stroke-width: 2; stroke-linecap: round"/>
   </g>
   <g id="line2d_40">
    <path d="M 137.0008 239.0064 
L 137.0008 261.5064 
L 137.0008 284.0064 
" clip-path="url(#p28b4c470bc)" style="fill: none; stroke: #000000; stroke-width: 2; stroke-linecap: round"/>
   </g>
   <g id="line2d_41">
    <path d="M 137.0008 284.0064 
L 167.5108 284.0064 
L 198.0208 284.0064 
" clip-path="url(#p28b4c470bc)" style="fill: none; stroke: #000000; stroke-width: 2; stroke-linecap: round"/>
   </g>
   <g id="line2d_42">
    <path d="M 198.0208 284.0064 
L 211.5208 284.0064 
L 225.0208 284.0064 
" clip-path="url(#p28b4c470bc)" style="fill: none; stroke: #000000; stroke-width: 2; stroke-linecap: round"/>
   </g>
   <g id="line2d_43">
    <path d="M 225.0208 284.0064 
L 225.0208 261.5064 
L 225.0208 239.0064 
" clip-path="url(#p28b4c470bc)" style="fill: none; stroke: #000000; stroke-width: 2; stroke-linecap: round"/>
   </g>
   <g id="line2d_44">
    <path d="M 110.0008 239.0064 
L 110.0008 212.0064 
L 110.0008 185.0064 
" clip-path="url(#p28b4c470bc)" style="fill: none; stroke: #000000; stroke-width: 2; stroke-linecap: round"/>
   </g>
   <g id="line2d_45">
    <path d="M 110.0008 185.0064 
L 110.0008 165.0264 
M 110.0008 132.9864 
L 110.0008 113.0064 
" clip-path="url(#p28b4c470bc)" style="fill: none; stroke: #000000; stroke-width: 2; stroke-linecap: round"/>
   </g>
   <g id="line2d_46">
    <path d="M 92.0008 132.9864 
L 128.0008 132.9864 
L 110.0008 156.3864 
L 92.0008 132.9864 
" clip-path="url(#p28b4c470bc)" style="fill: none; stroke: #000000; stroke-width: 2; stroke-linecap: round"/>
   </g>
   <g id="line2d_47">
    <path d="M 84.8008 144.6864 
L 99.9208 144.6864 
" clip-path="url(#p28b4c470bc)" style="fill: none; stroke: #000000; stroke-width: 2; stroke-linecap: round"/>
   </g>
   <g id="line2d_48">
    <path d="M 84.8008 144.6864 
L 80.3008 144.6864 
L 75.8008 144.6864 
" clip-path="url(#p28b4c470bc)" style="fill: none; stroke: #000000; stroke-width: 2; stroke-linecap: round"/>
   </g>
   <g id="line2d_49">
    <path d="M 110.0008 132.9864 
L 110.0008 96.9864 
L 110.0008 60.9864 
" clip-path="url(#p28b4c470bc)" style="fill: none; stroke: #000000; stroke-width: 2; stroke-linecap: round"/>
   </g>
   <g id="line2d_50">
    <path d="M 252.0208 239.0064 
L 261.0208 239.0064 
L 270.0208 239.0064 
" clip-path="url(#p28b4c470bc)" style="fill: none; stroke: #000000; stroke-width: 2; stroke-linecap: round"/>
   </g>
   <g id="line2d_51">
    <path d="M 270.0208 239.0064 
L 290.0008 239.0064 
M 322.0408 239.0064 
L 342.0208 239.0064 
" clip-path="url(#p28b4c470bc)" style="fill: none; stroke: #000000; stroke-width: 2; stroke-linecap: round"/>
   </g>
   <g id="line2d_52">
    <path d="M 322.0408 221.0064 
L 322.0408 257.0064 
L 298.6408 239.0064 
L 322.0408 221.0064 
" clip-path="url(#p28b4c470bc)" style="fill: none; stroke: #000000; stroke-width: 2; stroke-linecap: round"/>
   </g>
   <g id="line2d_53">
    <path d="M 310.3408 213.8064 
L 310.3408 228.9264 
" clip-path="url(#p28b4c470bc)" style="fill: none; stroke: #000000; stroke-width: 2; stroke-linecap: round"/>
   </g>
   <g id="line2d_54">
    <path d="M 310.3408 213.8064 
L 310.3408 209.3064 
L 310.3408 204.8064 
" clip-path="url(#p28b4c470bc)" style="fill: none; stroke: #000000; stroke-width: 2; stroke-linecap: round"/>
   </g>
   <g id="line2d_55">
    <path d="M 322.0408 239.0064 
L 340.0408 239.0064 
L 358.0408 239.0064 
" clip-path="url(#p28b4c470bc)" style="fill: none; stroke: #000000; stroke-width: 2; stroke-linecap: round"/>
   </g>
   <g id="line2d_56">
    <path d="M 358.0408 239.0064 
L 362.5408 239.0064 
L 367.0408 239.0064 
" clip-path="url(#p28b4c470bc)" style="fill: none; stroke: #000000; stroke-width: 2; stroke-linecap: round"/>
   </g>
   <g id="line2d_57">
    <path d="M 367.0408 239.0064 
L 387.0208 239.0064 
M 419.0608 239.0064 
L 439.0408 239.0064 
" clip-path="url(#p28b4c470bc)" style="fill: none; stroke: #000000; stroke-width: 2; stroke-linecap: round"/>
   </g>
   <g id="line2d_58">
    <path d="M 419.0608 221.0064 
L 419.0608 257.0064 
L 395.6608 239.0064 
L 419.0608 221.0064 
" clip-path="url(#p28b4c470bc)" style="fill: none; stroke: #000000; stroke-width: 2; stroke-linecap: round"/>
   </g>
   <g id="line2d_59">
    <path d="M 407.3608 213.8064 
L 407.3608 228.9264 
" clip-path="url(#p28b4c470bc)" style="fill: none; stroke: #000000; stroke-width: 2; stroke-linecap: round"/>
   </g>
   <g id="line2d_60">
    <path d="M 407.3608 213.8064 
L 407.3608 209.3064 
L 407.3608 204.8064 
" clip-path="url(#p28b4c470bc)" style="fill: none; stroke: #000000; stroke-width: 2; stroke-linecap: round"/>
   </g>
   <g id="line2d_61">
    <path d="M 358.0408 239.0064 
L 358.0408 261.5064 
L 358.0408 284.0064 
" clip-path="url(#p28b4c470bc)" style="fill: none; stroke: #000000; stroke-width: 2; stroke-linecap: round"/>
   </g>
   <g id="line2d_62">
    <path d="M 358.0408 284.0064 
L 388.5508 284.0064 
L 419.0608 284.0064 
" clip-path="url(#p28b4c470bc)" style="fill: none; stroke: #000000; stroke-width: 2; stroke-linecap: round"/>
   </g>
   <g id="line2d_63">
    <path d="M 419.0608 284.0064 
L 437.0608 284.0064 
L 455.0608 284.0064 
" clip-path="url(#p28b4c470bc)" style="fill: none; stroke: #000000; stroke-width: 2; stroke-linecap: round"/>
   </g>
   <g id="line2d_64">
    <path d="M 455.0608 284.0064 
L 455.0608 261.5064 
L 455.0608 239.0064 
" clip-path="url(#p28b4c470bc)" style="fill: none; stroke: #000000; stroke-width: 2; stroke-linecap: round"/>
   </g>
   <g id="line2d_65">
    <path d="M 419.0608 239.0064 
L 437.0608 239.0064 
L 455.0608 239.0064 
" clip-path="url(#p28b4c470bc)" style="fill: none; stroke: #000000; stroke-width: 2; stroke-linecap: round"/>
   </g>
   <g id="line2d_66">
    <path d="M 455.0608 239.0064 
L 473.0608 239.0064 
L 491.0608 239.0064 
" clip-path="url(#p28b4c470bc)" style="fill: none; stroke: #000000; stroke-width: 2; stroke-linecap: round"/>
   </g>
   <g id="line2d_67">
    <path d="M 491.0608 239.0064 
L 491.0608 212.0064 
L 491.0608 185.0064 
" clip-path="url(#p28b4c470bc)" style="fill: none; stroke: #000000; stroke-width: 2; stroke-linecap: round"/>
   </g>
   <g id="line2d_68">
    <path d="M 491.0608 185.0064 
L 491.0608 165.0264 
M 491.0608 132.9864 
L 491.0608 113.0064 
" clip-path="url(#p28b4c470bc)" style="fill: none; stroke: #000000; stroke-width: 2; stroke-linecap: round"/>
   </g>
   <g id="line2d_69">
    <path d="M 509.0608 132.9864 
L 473.0608 132.9864 
L 491.0608 156.3864 
L 509.0608 132.9864 
" clip-path="url(#p28b4c470bc)" style="fill: none; stroke: #000000; stroke-width: 2; stroke-linecap: round"/>
   </g>
   <g id="line2d_70">
    <path d="M 516.2608 144.6864 
L 501.1408 144.6864 
" clip-path="url(#p28b4c470bc)" style="fill: none; stroke: #000000; stroke-width: 2; stroke-linecap: round"/>
   </g>
   <g id="line2d_71">
    <path d="M 516.2608 144.6864 
L 520.7608 144.6864 
L 525.2608 144.6864 
" clip-path="url(#p28b4c470bc)" style="fill: none; stroke: #000000; stroke-width: 2; stroke-linecap: round"/>
   </g>
   <g id="line2d_72">
    <path d="M 491.0608 132.9864 
L 491.0608 96.9864 
L 491.0608 60.9864 
" clip-path="url(#p28b4c470bc)" style="fill: none; stroke: #000000; stroke-width: 2; stroke-linecap: round"/>
   </g>
   <g id="line2d_73">
    <path d="M 491.0608 60.9864 
L 371.5408 60.9864 
L 252.0208 60.9864 
" clip-path="url(#p28b4c470bc)" style="fill: none; stroke: #000000; stroke-width: 2; stroke-linecap: round"/>
   </g>
   <g id="line2d_74">
    <path d="M 491.0608 60.9864 
L 527.0608 60.9864 
L 563.0608 60.9864 
" clip-path="url(#p28b4c470bc)" style="fill: none; stroke: #000000; stroke-width: 2; stroke-linecap: round"/>
   </g>
   <g id="line2d_75">
    <path d="M 491.0608 239.0064 
L 491.0608 266.0064 
L 491.0608 293.0064 
" clip-path="url(#p28b4c470bc)" style="fill: none; stroke: #000000; stroke-width: 2; stroke-linecap: round"/>
   </g>
   <g id="line2d_76">
    <path d="M 491.0608 293.0064 
L 491.0608 312.9864 
M 491.0608 345.0264 
L 491.0608 365.0064 
" clip-path="url(#p28b4c470bc)" style="fill: none; stroke: #000000; stroke-width: 2; stroke-linecap: round"/>
   </g>
   <g id="line2d_77">
    <path d="M 509.0608 345.0264 
L 473.0608 345.0264 
L 491.0608 321.6264 
L 509.0608 345.0264 
" clip-path="url(#p28b4c470bc)" style="fill: none; stroke: #000000; stroke-width: 2; stroke-linecap: round"/>
   </g>
   <g id="line2d_78">
    <path d="M 516.2608 333.3264 
L 501.1408 333.3264 
" clip-path="url(#p28b4c470bc)" style="fill: none; stroke: #000000; stroke-width: 2; stroke-linecap: round"/>
   </g>
   <g id="line2d_79">
    <path d="M 516.2608 333.3264 
L 520.7608 333.3264 
L 525.2608 333.3264 
" clip-path="url(#p28b4c470bc)" style="fill: none; stroke: #000000; stroke-width: 2; stroke-linecap: round"/>
   </g>
   <g id="line2d_80">
    <path d="M 491.0608 345.0264 
L 491.0608 381.0264 
L 491.0608 417.0264 
" clip-path="url(#p28b4c470bc)" style="fill: none; stroke: #000000; stroke-width: 2; stroke-linecap: round"/>
   </g>
   <g id="line2d_81">
    <path d="M 491.0608 417.0264 
L 371.5408 417.0264 
L 252.0208 417.0264 
" clip-path="url(#p28b4c470bc)" style="fill: none; stroke: #000000; stroke-width: 2; stroke-linecap: round"/>
   </g>
   <g id="line2d_82">
    <path d="M 491.0608 417.0264 
L 527.0608 417.0264 
L 563.0608 417.0264 
" clip-path="url(#p28b4c470bc)" style="fill: none; stroke: #000000; stroke-width: 2; stroke-linecap: round"/>
   </g>
   <g id="patch_13">
    <path d="M 110.0008 63.6864 
C 110.716848 63.6864 111.403666 63.401911 111.909988 62.895588 
C 112.416311 62.389266 112.7008 61.702448 112.7008 60.9864 
C 112.7008 60.270352 112.416311 59.583534 111.909988 59.077212 
C 111.403666 58.570889 110.716848 58.2864 110.0008 58.2864 
C 109.284752 58.2864 108.597934 58.570889 108.091612 59.077212 
C 107.585289 59.583534 107.3008 60.270352 107.3008 60.9864 
C 107.3008 61.702448 107.585289 62.389266 108.091612 62.895588 
C 108.597934 63.401911 109.284752 63.6864 110.0008 63.6864 
z
" clip-path="url(#p28b4c470bc)" style="stroke: #000000; stroke-width: 2; stroke-linejoin: miter"/>
   </g>
   <g id="text_1">
    <!-- $\mathrm{A}$ -->
    <g transform="translate(176.150569 93.655988) scale(0.16 -0.16)">
     <defs>
      <path id="CMR17-41" d="M 2323 4441 
C 2291 4524 2278 4544 2214 4544 
C 2150 4544 2138 4524 2106 4441 
L 749 580 
C 627 236 371 166 147 166 
L 147 0 
C 262 12 518 12 640 12 
C 800 12 1056 12 1210 0 
L 1210 166 
C 909 179 864 382 864 459 
C 864 516 877 548 890 586 
L 1229 1536 
L 2906 1536 
L 3290 453 
C 3322 376 3322 363 3322 338 
C 3322 166 3046 166 2925 166 
L 2925 0 
C 3110 12 3443 12 3642 12 
C 3808 12 4128 12 4282 0 
L 4282 166 
C 3942 166 3827 166 3744 402 
L 2323 4441 
z
M 2067 3924 
L 2848 1702 
L 1286 1702 
L 2067 3924 
z
" transform="scale(0.015625)"/>
     </defs>
     <use xlink:href="#CMR17-41" transform="scale(0.996264)"/>
    </g>
   </g>
   <g id="patch_14">
    <path d="M 177.6808 29.4864 
C 178.396848 29.4864 179.083666 29.201911 179.589988 28.695588 
C 180.096311 28.189266 180.3808 27.502448 180.3808 26.7864 
C 180.3808 26.070352 180.096311 25.383534 179.589988 24.877212 
C 179.083666 24.370889 178.396848 24.0864 177.6808 24.0864 
C 176.964752 24.0864 176.277934 24.370889 175.771612 24.877212 
C 175.265289 25.383534 174.9808 26.070352 174.9808 26.7864 
C 174.9808 27.502448 175.265289 28.189266 175.771612 28.695588 
C 176.277934 29.201911 176.964752 29.4864 177.6808 29.4864 
z
" clip-path="url(#p28b4c470bc)" style="fill: #ffffff; stroke: #000000; stroke-width: 2; stroke-linejoin: miter"/>
   </g>
   <g id="text_2">
    <!-- $V_\mathrm{en}$ -->
    <g transform="translate(167.552164 15.586924) scale(0.16 -0.16)">
     <defs>
      <path id="CMMI12-56" d="M 3962 3644 
C 4179 3987 4378 4140 4704 4166 
C 4768 4172 4819 4172 4819 4287 
C 4819 4313 4806 4352 4749 4352 
C 4634 4352 4358 4339 4243 4339 
C 4058 4339 3866 4352 3686 4352 
C 3635 4352 3571 4352 3571 4230 
C 3571 4172 3629 4166 3654 4166 
C 3891 4146 3917 4032 3917 3956 
C 3917 3860 3827 3714 3821 3708 
L 1811 540 
L 1363 3968 
C 1363 4153 1696 4166 1766 4166 
C 1862 4166 1920 4166 1920 4287 
C 1920 4352 1850 4352 1830 4352 
C 1722 4352 1594 4339 1485 4339 
L 1126 4339 
C 659 4339 467 4352 461 4352 
C 422 4352 346 4352 346 4236 
C 346 4166 390 4166 493 4166 
C 819 4166 838 4108 858 3949 
L 1370 25 
C 1389 -109 1389 -128 1478 -128 
C 1555 -128 1587 -109 1651 -7 
L 3962 3644 
z
" transform="scale(0.015625)"/>
      <path id="CMR17-65" d="M 2438 1503 
C 2464 1529 2464 1542 2464 1606 
C 2464 2251 2118 2816 1389 2816 
C 710 2816 173 2175 173 1394 
C 173 554 781 -64 1459 -64 
C 2176 -64 2458 619 2458 755 
C 2458 800 2419 800 2406 800 
C 2362 800 2355 787 2330 709 
C 2189 270 1837 51 1504 51 
C 1229 51 954 206 781 490 
C 582 819 582 1200 582 1503 
L 2438 1503 
z
M 589 1600 
C 634 2511 1126 2713 1382 2713 
C 1818 2713 2112 2308 2118 1600 
L 589 1600 
z
" transform="scale(0.015625)"/>
      <path id="CMR17-6e" d="M 2656 1954 
C 2656 2282 2592 2816 1837 2816 
C 1331 2816 1069 2424 973 2166 
L 966 2166 
L 966 2816 
L 211 2745 
L 211 2578 
C 589 2578 646 2540 646 2231 
L 646 443 
C 646 198 621 166 211 166 
L 211 0 
C 365 12 646 12 813 12 
C 979 12 1267 12 1421 0 
L 1421 166 
C 1011 166 986 192 986 443 
L 986 1678 
C 986 2269 1344 2713 1792 2713 
C 2266 2713 2317 2289 2317 1980 
L 2317 443 
C 2317 198 2291 166 1882 166 
L 1882 0 
C 2035 12 2317 12 2483 12 
C 2650 12 2938 12 3091 0 
L 3091 166 
C 2682 166 2656 192 2656 443 
L 2656 1954 
z
" transform="scale(0.015625)"/>
     </defs>
     <use xlink:href="#CMMI12-56" transform="scale(0.996264)"/>
     <use xlink:href="#CMR17-65" transform="translate(56.869579 -14.943915) scale(0.697382)"/>
     <use xlink:href="#CMR17-6e" transform="translate(85.209411 -14.943915) scale(0.697382)"/>
    </g>
   </g>
   <g id="patch_15">
    <path d="M 252.0208 63.6864 
C 252.736848 63.6864 253.423666 63.401911 253.929988 62.895588 
C 254.436311 62.389266 254.7208 61.702448 254.7208 60.9864 
C 254.7208 60.270352 254.436311 59.583534 253.929988 59.077212 
C 253.423666 58.570889 252.736848 58.2864 252.0208 58.2864 
C 251.304752 58.2864 250.617934 58.570889 250.111612 59.077212 
C 249.605289 59.583534 249.3208 60.270352 249.3208 60.9864 
C 249.3208 61.702448 249.605289 62.389266 250.111612 62.895588 
C 250.617934 63.401911 251.304752 63.6864 252.0208 63.6864 
z
" clip-path="url(#p28b4c470bc)" style="stroke: #000000; stroke-width: 2; stroke-linejoin: miter"/>
   </g>
   <g id="text_3">
    <!-- $\mathrm{D}$ -->
    <g transform="translate(218.500794 154.971456) scale(0.16 -0.16)">
     <defs>
      <path id="CMR17-44" d="M 333 4352 
L 333 4185 
C 774 4185 845 4185 845 3898 
L 845 453 
C 845 166 774 166 333 166 
L 333 0 
L 2368 0 
C 3398 0 4224 943 4224 2140 
C 4224 3344 3411 4352 2368 4352 
L 333 4352 
z
M 1523 166 
C 1267 166 1254 198 1254 414 
L 1254 3936 
C 1254 4153 1267 4185 1523 4185 
L 2240 4185 
C 2771 4185 3750 3873 3750 2140 
C 3750 1242 3488 879 3366 707 
C 3213 510 2848 166 2240 166 
L 1523 166 
z
" transform="scale(0.015625)"/>
     </defs>
     <use xlink:href="#CMR17-44" transform="scale(0.996264)"/>
    </g>
   </g>
   <g id="patch_16">
    <path d="M 286.2208 158.0064 
C 286.936848 158.0064 287.623666 157.721911 288.129988 157.215588 
C 288.636311 156.709266 288.9208 156.022448 288.9208 155.3064 
C 288.9208 154.590352 288.636311 153.903534 288.129988 153.397212 
C 287.623666 152.890889 286.936848 152.6064 286.2208 152.6064 
C 285.504752 152.6064 284.817934 152.890889 284.311612 153.397212 
C 283.805289 153.903534 283.5208 154.590352 283.5208 155.3064 
C 283.5208 156.022448 283.805289 156.709266 284.311612 157.215588 
C 284.817934 157.721911 285.504752 158.0064 286.2208 158.0064 
z
" clip-path="url(#p28b4c470bc)" style="fill: #ffffff; stroke: #000000; stroke-width: 2; stroke-linejoin: miter"/>
   </g>
   <g id="text_4">
    <!-- $V_\mathrm{en}$ -->
    <g transform="translate(294.3208 159.291456) scale(0.16 -0.16)">
     <use xlink:href="#CMMI12-56" transform="scale(0.996264)"/>
     <use xlink:href="#CMR17-65" transform="translate(56.869579 -14.943915) scale(0.697382)"/>
     <use xlink:href="#CMR17-6e" transform="translate(85.209411 -14.943915) scale(0.697382)"/>
    </g>
   </g>
   <g id="patch_17">
    <path d="M 252.0208 241.7064 
C 252.736848 241.7064 253.423666 241.421911 253.929988 240.915588 
C 254.436311 240.409266 254.7208 239.722448 254.7208 239.0064 
C 254.7208 238.290352 254.436311 237.603534 253.929988 237.097212 
C 253.423666 236.590889 252.736848 236.3064 252.0208 236.3064 
C 251.304752 236.3064 250.617934 236.590889 250.111612 237.097212 
C 249.605289 237.603534 249.3208 238.290352 249.3208 239.0064 
C 249.3208 239.722448 249.605289 240.409266 250.111612 240.915588 
C 250.617934 241.421911 251.304752 241.7064 252.0208 241.7064 
z
" clip-path="url(#p28b4c470bc)" style="stroke: #000000; stroke-width: 2; stroke-linejoin: miter"/>
   </g>
   <g id="text_5">
    <!-- $\mathrm{D}$ -->
    <g transform="translate(218.500794 332.991456) scale(0.16 -0.16)">
     <use xlink:href="#CMR17-44" transform="scale(0.996264)"/>
    </g>
   </g>
   <g id="patch_18">
    <path d="M 286.2208 327.3864 
C 286.936848 327.3864 287.623666 327.101911 288.129988 326.595588 
C 288.636311 326.089266 288.9208 325.402448 288.9208 324.6864 
C 288.9208 323.970352 288.636311 323.283534 288.129988 322.777212 
C 287.623666 322.270889 286.936848 321.9864 286.2208 321.9864 
C 285.504752 321.9864 284.817934 322.270889 284.311612 322.777212 
C 283.805289 323.283534 283.5208 323.970352 283.5208 324.6864 
C 283.5208 325.402448 283.805289 326.089266 284.311612 326.595588 
C 284.817934 327.101911 285.504752 327.3864 286.2208 327.3864 
z
" clip-path="url(#p28b4c470bc)" style="fill: #ffffff; stroke: #000000; stroke-width: 2; stroke-linejoin: miter"/>
   </g>
   <g id="text_6">
    <!-- $V_\mathrm{en}$ -->
    <g transform="translate(294.3208 328.671456) scale(0.16 -0.16)">
     <use xlink:href="#CMMI12-56" transform="scale(0.996264)"/>
     <use xlink:href="#CMR17-65" transform="translate(56.869579 -14.943915) scale(0.697382)"/>
     <use xlink:href="#CMR17-6e" transform="translate(85.209411 -14.943915) scale(0.697382)"/>
    </g>
   </g>
   <g id="patch_19">
    <path d="M 252.0208 419.7264 
C 252.736848 419.7264 253.423666 419.441911 253.929988 418.935588 
C 254.436311 418.429266 254.7208 417.742448 254.7208 417.0264 
C 254.7208 416.310352 254.436311 415.623534 253.929988 415.117212 
C 253.423666 414.610889 252.736848 414.3264 252.0208 414.3264 
C 251.304752 414.3264 250.617934 414.610889 250.111612 415.117212 
C 249.605289 415.623534 249.3208 416.310352 249.3208 417.0264 
C 249.3208 417.742448 249.605289 418.429266 250.111612 418.935588 
C 250.617934 419.441911 251.304752 419.7264 252.0208 419.7264 
z
" clip-path="url(#p28b4c470bc)" style="stroke: #000000; stroke-width: 2; stroke-linejoin: miter"/>
   </g>
   <g id="text_7">
    <!-- $\mathrm{A}$ -->
    <g transform="translate(174.170569 449.695988) scale(0.16 -0.16)">
     <use xlink:href="#CMR17-41" transform="scale(0.996264)"/>
    </g>
   </g>
   <g id="patch_20">
    <path d="M 175.7008 385.5264 
C 176.416848 385.5264 177.103666 385.241911 177.609988 384.735588 
C 178.116311 384.229266 178.4008 383.542448 178.4008 382.8264 
C 178.4008 382.110352 178.116311 381.423534 177.609988 380.917212 
C 177.103666 380.410889 176.416848 380.1264 175.7008 380.1264 
C 174.984752 380.1264 174.297934 380.410889 173.791612 380.917212 
C 173.285289 381.423534 173.0008 382.110352 173.0008 382.8264 
C 173.0008 383.542448 173.285289 384.229266 173.791612 384.735588 
C 174.297934 385.241911 174.984752 385.5264 175.7008 385.5264 
z
" clip-path="url(#p28b4c470bc)" style="fill: #ffffff; stroke: #000000; stroke-width: 2; stroke-linejoin: miter"/>
   </g>
   <g id="text_8">
    <!-- $V_\mathrm{en}$ -->
    <g transform="translate(165.572164 371.626924) scale(0.16 -0.16)">
     <use xlink:href="#CMMI12-56" transform="scale(0.996264)"/>
     <use xlink:href="#CMR17-65" transform="translate(56.869579 -14.943915) scale(0.697382)"/>
     <use xlink:href="#CMR17-6e" transform="translate(85.209411 -14.943915) scale(0.697382)"/>
    </g>
   </g>
   <g id="patch_21">
    <path d="M 110.0008 419.7264 
C 110.716848 419.7264 111.403666 419.441911 111.909988 418.935588 
C 112.416311 418.429266 112.7008 417.742448 112.7008 417.0264 
C 112.7008 416.310352 112.416311 415.623534 111.909988 415.117212 
C 111.403666 414.610889 110.716848 414.3264 110.0008 414.3264 
C 109.284752 414.3264 108.597934 414.610889 108.091612 415.117212 
C 107.585289 415.623534 107.3008 416.310352 107.3008 417.0264 
C 107.3008 417.742448 107.585289 418.429266 108.091612 418.935588 
C 108.597934 419.441911 109.284752 419.7264 110.0008 419.7264 
z
" clip-path="url(#p28b4c470bc)" style="stroke: #000000; stroke-width: 2; stroke-linejoin: miter"/>
   </g>
   <g id="patch_22">
    <path d="M 38.0008 419.7264 
C 38.716848 419.7264 39.403666 419.441911 39.909988 418.935588 
C 40.416311 418.429266 40.7008 417.742448 40.7008 417.0264 
C 40.7008 416.310352 40.416311 415.623534 39.909988 415.117212 
C 39.403666 414.610889 38.716848 414.3264 38.0008 414.3264 
C 37.284752 414.3264 36.597934 414.610889 36.091612 415.117212 
C 35.585289 415.623534 35.3008 416.310352 35.3008 417.0264 
C 35.3008 417.742448 35.585289 418.429266 36.091612 418.935588 
C 36.597934 419.441911 37.284752 419.7264 38.0008 419.7264 
z
" clip-path="url(#p28b4c470bc)" style="fill: #ffffff; stroke: #000000; stroke-width: 2; stroke-linejoin: miter"/>
   </g>
   <g id="text_9">
    <!-- $V_\mathrm{in,n}$ -->
    <g transform="translate(2.204779 420.192316) scale(0.16 -0.16)">
     <defs>
      <path id="CMR17-69" d="M 992 3961 
C 992 4102 877 4224 730 4224 
C 589 4224 467 4108 467 3961 
C 467 3820 582 3699 730 3699 
C 870 3699 992 3814 992 3961 
z
M 243 2745 
L 243 2579 
C 602 2579 653 2540 653 2231 
L 653 443 
C 653 198 627 166 218 166 
L 218 0 
C 371 12 646 12 806 12 
C 960 12 1222 12 1370 0 
L 1370 166 
C 992 166 979 205 979 436 
L 979 2816 
L 243 2745 
z
" transform="scale(0.015625)"/>
      <path id="CMMI12-3b" d="M 1248 -26 
C 1248 345 1126 620 864 620 
C 659 620 557 454 557 313 
C 557 172 653 0 870 0 
C 954 0 1024 25 1082 83 
C 1094 96 1101 96 1107 96 
C 1120 96 1120 6 1120 -26 
C 1120 -233 1082 -642 710 -1051 
C 640 -1127 640 -1140 640 -1152 
C 640 -1184 672 -1216 704 -1216 
C 755 -1216 1248 -749 1248 -26 
z
" transform="scale(0.015625)"/>
     </defs>
     <use xlink:href="#CMMI12-56" transform="scale(0.996264)"/>
     <use xlink:href="#CMR17-69" transform="translate(56.869579 -14.943915) scale(0.697382)"/>
     <use xlink:href="#CMR17-6e" transform="translate(74.279238 -14.943915) scale(0.697382)"/>
     <use xlink:href="#CMMI12-3b" transform="translate(109.905846 -14.943915) scale(0.697382)"/>
     <use xlink:href="#CMR17-6e" transform="translate(128.873779 -14.943915) scale(0.697382)"/>
    </g>
   </g>
   <g id="text_10">
    <!-- $\mathrm{B}$ -->
    <g transform="translate(131.6008 331.011456) scale(0.16 -0.16)">
     <defs>
      <path id="CMR17-42" d="M 333 4352 
L 333 4185 
C 774 4185 845 4185 845 3897 
L 845 451 
C 845 166 774 166 333 166 
L 333 0 
L 2534 0 
C 3354 0 3885 578 3885 1155 
C 3885 1726 3360 2214 2675 2259 
C 3290 2380 3718 2790 3718 3276 
C 3718 3808 3194 4352 2368 4352 
L 333 4352 
z
M 1248 2304 
L 1248 3936 
C 1248 4153 1261 4185 1517 4185 
L 2336 4185 
C 2970 4185 3251 3673 3251 3276 
C 3251 2790 2861 2304 2170 2304 
L 1248 2304 
z
M 1517 166 
C 1261 166 1248 198 1248 413 
L 1248 2201 
L 2432 2201 
C 3091 2201 3411 1624 3411 1161 
C 3411 698 3046 166 2349 166 
L 1517 166 
z
" transform="scale(0.015625)"/>
     </defs>
     <use xlink:href="#CMR17-42" transform="scale(0.996264)"/>
    </g>
   </g>
   <g id="patch_23">
    <path d="M 75.8008 334.0464 
C 76.516848 334.0464 77.203666 333.761911 77.709988 333.255588 
C 78.216311 332.749266 78.5008 332.062448 78.5008 331.3464 
C 78.5008 330.630352 78.216311 329.943534 77.709988 329.437212 
C 77.203666 328.930889 76.516848 328.6464 75.8008 328.6464 
C 75.084752 328.6464 74.397934 328.930889 73.891612 329.437212 
C 73.385289 329.943534 73.1008 330.630352 73.1008 331.3464 
C 73.1008 332.062448 73.385289 332.749266 73.891612 333.255588 
C 74.397934 333.761911 75.084752 334.0464 75.8008 334.0464 
z
" clip-path="url(#p28b4c470bc)" style="fill: #ffffff; stroke: #000000; stroke-width: 2; stroke-linejoin: miter"/>
   </g>
   <g id="text_11">
    <!-- $V_\mathrm{en}$ -->
    <g transform="translate(47.443528 335.331456) scale(0.16 -0.16)">
     <use xlink:href="#CMMI12-56" transform="scale(0.996264)"/>
     <use xlink:href="#CMR17-65" transform="translate(56.869579 -14.943915) scale(0.697382)"/>
     <use xlink:href="#CMR17-6e" transform="translate(85.209411 -14.943915) scale(0.697382)"/>
    </g>
   </g>
   <g id="patch_24">
    <path d="M 110.0008 241.7064 
C 110.716848 241.7064 111.403666 241.421911 111.909988 240.915588 
C 112.416311 240.409266 112.7008 239.722448 112.7008 239.0064 
C 112.7008 238.290352 112.416311 237.603534 111.909988 237.097212 
C 111.403666 236.590889 110.716848 236.3064 110.0008 236.3064 
C 109.284752 236.3064 108.597934 236.590889 108.091612 237.097212 
C 107.585289 237.603534 107.3008 238.290352 107.3008 239.0064 
C 107.3008 239.722448 107.585289 240.409266 108.091612 240.915588 
C 108.597934 241.421911 109.284752 241.7064 110.0008 241.7064 
z
" clip-path="url(#p28b4c470bc)" style="stroke: #000000; stroke-width: 2; stroke-linejoin: miter"/>
   </g>
   <g id="patch_25">
    <path d="M 137.0008 241.7064 
C 137.716848 241.7064 138.403666 241.421911 138.909988 240.915588 
C 139.416311 240.409266 139.7008 239.722448 139.7008 239.0064 
C 139.7008 238.290352 139.416311 237.603534 138.909988 237.097212 
C 138.403666 236.590889 137.716848 236.3064 137.0008 236.3064 
C 136.284752 236.3064 135.597934 236.590889 135.091612 237.097212 
C 134.585289 237.603534 134.3008 238.290352 134.3008 239.0064 
C 134.3008 239.722448 134.585289 240.409266 135.091612 240.915588 
C 135.597934 241.421911 136.284752 241.7064 137.0008 241.7064 
z
" clip-path="url(#p28b4c470bc)" style="stroke: #000000; stroke-width: 2; stroke-linejoin: miter"/>
   </g>
   <g id="text_12">
    <!-- $\mathrm{C}$ -->
    <g transform="translate(176.364587 271.675988) scale(0.16 -0.16)">
     <defs>
      <path id="CMR17-43" d="M 3974 4351 
C 3974 4467 3968 4473 3930 4473 
C 3904 4473 3898 4467 3853 4390 
L 3571 3849 
C 3258 4249 2874 4480 2381 4480 
C 1286 4480 294 3507 294 2179 
C 294 837 1286 -128 2387 -128 
C 3366 -128 3974 741 3974 1482 
C 3974 1547 3974 1573 3917 1573 
C 3866 1573 3866 1553 3859 1495 
C 3808 592 3168 38 2477 38 
C 1824 38 781 502 781 2179 
C 781 3862 1843 4313 2464 4313 
C 3187 4313 3712 3681 3834 2785 
C 3846 2707 3846 2695 3904 2695 
C 3974 2695 3974 2707 3974 2824 
L 3974 4351 
z
" transform="scale(0.015625)"/>
     </defs>
     <use xlink:href="#CMR17-43" transform="scale(0.996264)"/>
    </g>
   </g>
   <g id="patch_26">
    <path d="M 177.6808 207.5064 
C 178.396848 207.5064 179.083666 207.221911 179.589988 206.715588 
C 180.096311 206.209266 180.3808 205.522448 180.3808 204.8064 
C 180.3808 204.090352 180.096311 203.403534 179.589988 202.897212 
C 179.083666 202.390889 178.396848 202.1064 177.6808 202.1064 
C 176.964752 202.1064 176.277934 202.390889 175.771612 202.897212 
C 175.265289 203.403534 174.9808 204.090352 174.9808 204.8064 
C 174.9808 205.522448 175.265289 206.209266 175.771612 206.715588 
C 176.277934 207.221911 176.964752 207.5064 177.6808 207.5064 
z
" clip-path="url(#p28b4c470bc)" style="fill: #ffffff; stroke: #000000; stroke-width: 2; stroke-linejoin: miter"/>
   </g>
   <g id="text_13">
    <!-- $V_\mathrm{en}$ -->
    <g transform="translate(167.552164 193.606924) scale(0.16 -0.16)">
     <use xlink:href="#CMMI12-56" transform="scale(0.996264)"/>
     <use xlink:href="#CMR17-65" transform="translate(56.869579 -14.943915) scale(0.697382)"/>
     <use xlink:href="#CMR17-6e" transform="translate(85.209411 -14.943915) scale(0.697382)"/>
    </g>
   </g>
   <g id="patch_27">
    <path d="M 225.0208 241.7064 
C 225.736848 241.7064 226.423666 241.421911 226.929988 240.915588 
C 227.436311 240.409266 227.7208 239.722448 227.7208 239.0064 
C 227.7208 238.290352 227.436311 237.603534 226.929988 237.097212 
C 226.423666 236.590889 225.736848 236.3064 225.0208 236.3064 
C 224.304752 236.3064 223.617934 236.590889 223.111612 237.097212 
C 222.605289 237.603534 222.3208 238.290352 222.3208 239.0064 
C 222.3208 239.722448 222.605289 240.409266 223.111612 240.915588 
C 223.617934 241.421911 224.304752 241.7064 225.0208 241.7064 
z
" clip-path="url(#p28b4c470bc)" style="stroke: #000000; stroke-width: 2; stroke-linejoin: miter"/>
   </g>
   <g id="text_14">
    <!-- $\mathrm{B}$ -->
    <g transform="translate(131.6008 152.991456) scale(0.16 -0.16)">
     <use xlink:href="#CMR17-42" transform="scale(0.996264)"/>
    </g>
   </g>
   <g id="patch_28">
    <path d="M 75.8008 147.3864 
C 76.516848 147.3864 77.203666 147.101911 77.709988 146.595588 
C 78.216311 146.089266 78.5008 145.402448 78.5008 144.6864 
C 78.5008 143.970352 78.216311 143.283534 77.709988 142.777212 
C 77.203666 142.270889 76.516848 141.9864 75.8008 141.9864 
C 75.084752 141.9864 74.397934 142.270889 73.891612 142.777212 
C 73.385289 143.283534 73.1008 143.970352 73.1008 144.6864 
C 73.1008 145.402448 73.385289 146.089266 73.891612 146.595588 
C 74.397934 147.101911 75.084752 147.3864 75.8008 147.3864 
z
" clip-path="url(#p28b4c470bc)" style="fill: #ffffff; stroke: #000000; stroke-width: 2; stroke-linejoin: miter"/>
   </g>
   <g id="text_15">
    <!-- $V_\mathrm{en}$ -->
    <g transform="translate(47.443528 148.671456) scale(0.16 -0.16)">
     <use xlink:href="#CMMI12-56" transform="scale(0.996264)"/>
     <use xlink:href="#CMR17-65" transform="translate(56.869579 -14.943915) scale(0.697382)"/>
     <use xlink:href="#CMR17-6e" transform="translate(85.209411 -14.943915) scale(0.697382)"/>
    </g>
   </g>
   <g id="text_16">
    <!-- $\mathrm{G}$ -->
    <g transform="translate(299.897522 271.675988) scale(0.16 -0.16)">
     <defs>
      <path id="CMR17-47" d="M 3974 1258 
C 3974 1503 3994 1536 4390 1536 
L 4390 1702 
C 4237 1689 3891 1689 3718 1689 
C 3539 1689 3040 1696 2797 1702 
L 2797 1536 
L 2989 1536 
C 3539 1536 3552 1464 3552 1232 
L 3552 806 
C 3552 96 2720 38 2522 38 
C 1862 38 781 496 781 2179 
C 781 3862 1843 4313 2464 4313 
C 3187 4313 3712 3681 3834 2785 
C 3846 2708 3846 2695 3904 2695 
C 3974 2695 3974 2708 3974 2824 
L 3974 4351 
C 3974 4467 3968 4473 3930 4473 
C 3904 4473 3898 4467 3853 4390 
L 3571 3849 
C 3258 4249 2874 4480 2381 4480 
C 1286 4480 294 3507 294 2179 
C 294 858 1267 -128 2394 -128 
C 2912 -128 3418 57 3616 425 
C 3725 161 3904 -20 3936 -20 
C 3968 -20 3974 -13 3974 102 
L 3974 1258 
z
" transform="scale(0.015625)"/>
     </defs>
     <use xlink:href="#CMR17-47" transform="scale(0.996264)"/>
    </g>
   </g>
   <g id="patch_29">
    <path d="M 310.3408 207.5064 
C 311.056848 207.5064 311.743666 207.221911 312.249988 206.715588 
C 312.756311 206.209266 313.0408 205.522448 313.0408 204.8064 
C 313.0408 204.090352 312.756311 203.403534 312.249988 202.897212 
C 311.743666 202.390889 311.056848 202.1064 310.3408 202.1064 
C 309.624752 202.1064 308.937934 202.390889 308.431612 202.897212 
C 307.925289 203.403534 307.6408 204.090352 307.6408 204.8064 
C 307.6408 205.522448 307.925289 206.209266 308.431612 206.715588 
C 308.937934 207.221911 309.624752 207.5064 310.3408 207.5064 
z
" clip-path="url(#p28b4c470bc)" style="fill: #ffffff; stroke: #000000; stroke-width: 2; stroke-linejoin: miter"/>
   </g>
   <g id="text_17">
    <!-- $V_\mathrm{en}$ -->
    <g transform="translate(300.212164 193.606924) scale(0.16 -0.16)">
     <use xlink:href="#CMMI12-56" transform="scale(0.996264)"/>
     <use xlink:href="#CMR17-65" transform="translate(56.869579 -14.943915) scale(0.697382)"/>
     <use xlink:href="#CMR17-6e" transform="translate(85.209411 -14.943915) scale(0.697382)"/>
    </g>
   </g>
   <g id="patch_30">
    <path d="M 358.0408 241.7064 
C 358.756848 241.7064 359.443666 241.421911 359.949988 240.915588 
C 360.456311 240.409266 360.7408 239.722448 360.7408 239.0064 
C 360.7408 238.290352 360.456311 237.603534 359.949988 237.097212 
C 359.443666 236.590889 358.756848 236.3064 358.0408 236.3064 
C 357.324752 236.3064 356.637934 236.590889 356.131612 237.097212 
C 355.625289 237.603534 355.3408 238.290352 355.3408 239.0064 
C 355.3408 239.722448 355.625289 240.409266 356.131612 240.915588 
C 356.637934 241.421911 357.324752 241.7064 358.0408 241.7064 
z
" clip-path="url(#p28b4c470bc)" style="stroke: #000000; stroke-width: 2; stroke-linejoin: miter"/>
   </g>
   <g id="text_18">
    <!-- $\mathrm{F}$ -->
    <g transform="translate(397.947906 271.675988) scale(0.16 -0.16)">
     <defs>
      <path id="CMR17-46" d="M 3482 4339 
L 326 4339 
L 326 4172 
C 768 4172 838 4172 838 3883 
L 838 450 
C 838 166 768 166 326 166 
L 326 0 
C 512 12 870 12 1069 12 
C 1331 12 1638 12 1901 0 
L 1901 166 
L 1760 166 
C 1274 166 1261 229 1261 456 
L 1261 2073 
L 1837 2073 
C 2432 2073 2490 1865 2490 1334 
L 2605 1334 
L 2605 2991 
L 2490 2991 
C 2490 2451 2432 2240 1837 2240 
L 1261 2240 
L 1261 3922 
C 1261 4140 1274 4172 1530 4172 
L 2355 4172 
C 3322 4172 3430 3774 3520 2920 
L 3635 2920 
L 3482 4339 
z
" transform="scale(0.015625)"/>
     </defs>
     <use xlink:href="#CMR17-46" transform="scale(0.996264)"/>
    </g>
   </g>
   <g id="patch_31">
    <path d="M 407.3608 207.5064 
C 408.076848 207.5064 408.763666 207.221911 409.269988 206.715588 
C 409.776311 206.209266 410.0608 205.522448 410.0608 204.8064 
C 410.0608 204.090352 409.776311 203.403534 409.269988 202.897212 
C 408.763666 202.390889 408.076848 202.1064 407.3608 202.1064 
C 406.644752 202.1064 405.957934 202.390889 405.451612 202.897212 
C 404.945289 203.403534 404.6608 204.090352 404.6608 204.8064 
C 404.6608 205.522448 404.945289 206.209266 405.451612 206.715588 
C 405.957934 207.221911 406.644752 207.5064 407.3608 207.5064 
z
" clip-path="url(#p28b4c470bc)" style="fill: #ffffff; stroke: #000000; stroke-width: 2; stroke-linejoin: miter"/>
   </g>
   <g id="text_19">
    <!-- $V_\mathrm{en}$ -->
    <g transform="translate(397.232164 193.606924) scale(0.16 -0.16)">
     <use xlink:href="#CMMI12-56" transform="scale(0.996264)"/>
     <use xlink:href="#CMR17-65" transform="translate(56.869579 -14.943915) scale(0.697382)"/>
     <use xlink:href="#CMR17-6e" transform="translate(85.209411 -14.943915) scale(0.697382)"/>
    </g>
   </g>
   <g id="patch_32">
    <path d="M 455.0608 241.7064 
C 455.776848 241.7064 456.463666 241.421911 456.969988 240.915588 
C 457.476311 240.409266 457.7608 239.722448 457.7608 239.0064 
C 457.7608 238.290352 457.476311 237.603534 456.969988 237.097212 
C 456.463666 236.590889 455.776848 236.3064 455.0608 236.3064 
C 454.344752 236.3064 453.657934 236.590889 453.151612 237.097212 
C 452.645289 237.603534 452.3608 238.290352 452.3608 239.0064 
C 452.3608 239.722448 452.645289 240.409266 453.151612 240.915588 
C 453.657934 241.421911 454.344752 241.7064 455.0608 241.7064 
z
" clip-path="url(#p28b4c470bc)" style="stroke: #000000; stroke-width: 2; stroke-linejoin: miter"/>
   </g>
   <g id="patch_33">
    <path d="M 491.0608 241.7064 
C 491.776848 241.7064 492.463666 241.421911 492.969988 240.915588 
C 493.476311 240.409266 493.7608 239.722448 493.7608 239.0064 
C 493.7608 238.290352 493.476311 237.603534 492.969988 237.097212 
C 492.463666 236.590889 491.776848 236.3064 491.0608 236.3064 
C 490.344752 236.3064 489.657934 236.590889 489.151612 237.097212 
C 488.645289 237.603534 488.3608 238.290352 488.3608 239.0064 
C 488.3608 239.722448 488.645289 240.409266 489.151612 240.915588 
C 489.657934 241.421911 490.344752 241.7064 491.0608 241.7064 
z
" clip-path="url(#p28b4c470bc)" style="stroke: #000000; stroke-width: 2; stroke-linejoin: miter"/>
   </g>
   <g id="text_20">
    <!-- $\mathrm{E}$ -->
    <g transform="translate(458.841458 152.991456) scale(0.16 -0.16)">
     <defs>
      <path id="CMR17-45" d="M 3885 1614 
L 3770 1614 
C 3629 676 3546 166 2419 166 
L 1530 166 
C 1274 166 1261 198 1261 415 
L 1261 2176 
L 1862 2176 
C 2464 2176 2522 1959 2522 1429 
L 2637 1429 
L 2637 3086 
L 2522 3086 
C 2522 2558 2464 2342 1862 2342 
L 1261 2342 
L 1261 3924 
C 1261 4141 1274 4172 1530 4172 
L 2406 4172 
C 3398 4172 3514 3778 3603 2933 
L 3718 2933 
L 3565 4339 
L 326 4339 
L 326 4172 
C 768 4172 838 4172 838 3886 
L 838 453 
C 838 166 768 166 326 166 
L 326 0 
L 3654 0 
L 3885 1614 
z
" transform="scale(0.015625)"/>
     </defs>
     <use xlink:href="#CMR17-45" transform="scale(0.996264)"/>
    </g>
   </g>
   <g id="patch_34">
    <path d="M 525.2608 147.3864 
C 525.976848 147.3864 526.663666 147.101911 527.169988 146.595588 
C 527.676311 146.089266 527.9608 145.402448 527.9608 144.6864 
C 527.9608 143.970352 527.676311 143.283534 527.169988 142.777212 
C 526.663666 142.270889 525.976848 141.9864 525.2608 141.9864 
C 524.544752 141.9864 523.857934 142.270889 523.351612 142.777212 
C 522.845289 143.283534 522.5608 143.970352 522.5608 144.6864 
C 522.5608 145.402448 522.845289 146.089266 523.351612 146.595588 
C 523.857934 147.101911 524.544752 147.3864 525.2608 147.3864 
z
" clip-path="url(#p28b4c470bc)" style="fill: #ffffff; stroke: #000000; stroke-width: 2; stroke-linejoin: miter"/>
   </g>
   <g id="text_21">
    <!-- $V_\mathrm{en}$ -->
    <g transform="translate(533.3608 148.671456) scale(0.16 -0.16)">
     <use xlink:href="#CMMI12-56" transform="scale(0.996264)"/>
     <use xlink:href="#CMR17-65" transform="translate(56.869579 -14.943915) scale(0.697382)"/>
     <use xlink:href="#CMR17-6e" transform="translate(85.209411 -14.943915) scale(0.697382)"/>
    </g>
   </g>
   <g id="patch_35">
    <path d="M 491.0608 63.6864 
C 491.776848 63.6864 492.463666 63.401911 492.969988 62.895588 
C 493.476311 62.389266 493.7608 61.702448 493.7608 60.9864 
C 493.7608 60.270352 493.476311 59.583534 492.969988 59.077212 
C 492.463666 58.570889 491.776848 58.2864 491.0608 58.2864 
C 490.344752 58.2864 489.657934 58.570889 489.151612 59.077212 
C 488.645289 59.583534 488.3608 60.270352 488.3608 60.9864 
C 488.3608 61.702448 488.645289 62.389266 489.151612 62.895588 
C 489.657934 63.401911 490.344752 63.6864 491.0608 63.6864 
z
" clip-path="url(#p28b4c470bc)" style="stroke: #000000; stroke-width: 2; stroke-linejoin: miter"/>
   </g>
   <g id="patch_36">
    <path d="M 563.0608 63.6864 
C 563.776848 63.6864 564.463666 63.401911 564.969988 62.895588 
C 565.476311 62.389266 565.7608 61.702448 565.7608 60.9864 
C 565.7608 60.270352 565.476311 59.583534 564.969988 59.077212 
C 564.463666 58.570889 563.776848 58.2864 563.0608 58.2864 
C 562.344752 58.2864 561.657934 58.570889 561.151612 59.077212 
C 560.645289 59.583534 560.3608 60.270352 560.3608 60.9864 
C 560.3608 61.702448 560.645289 62.389266 561.151612 62.895588 
C 561.657934 63.401911 562.344752 63.6864 563.0608 63.6864 
z
" clip-path="url(#p28b4c470bc)" style="fill: #ffffff; stroke: #000000; stroke-width: 2; stroke-linejoin: miter"/>
   </g>
   <g id="text_22">
    <!-- $V_\mathrm{out,n}$ -->
    <g transform="translate(571.1608 64.152316) scale(0.16 -0.16)">
     <defs>
      <path id="CMR17-6f" d="M 2758 1356 
C 2758 2176 2163 2816 1466 2816 
C 768 2816 173 2176 173 1356 
C 173 550 768 -64 1466 -64 
C 2163 -64 2758 550 2758 1356 
z
M 1466 51 
C 1165 51 909 230 762 480 
C 602 768 582 1126 582 1408 
C 582 1676 595 2009 762 2297 
C 890 2508 1139 2713 1466 2713 
C 1754 2713 1997 2553 2150 2329 
C 2349 2028 2349 1606 2349 1408 
C 2349 1158 2336 774 2163 467 
C 1984 172 1709 51 1466 51 
z
" transform="scale(0.015625)"/>
      <path id="CMR17-75" d="M 1882 2745 
L 1882 2579 
C 2259 2579 2317 2540 2317 2229 
L 2317 1053 
C 2317 510 2029 38 1555 38 
C 1030 38 986 355 986 691 
L 986 2816 
L 211 2745 
L 211 2579 
C 467 2579 640 2579 646 2320 
L 646 1079 
C 646 646 646 368 813 187 
C 896 103 1056 -64 1517 -64 
C 2061 -64 2272 400 2323 536 
L 2330 536 
L 2330 -64 
L 3091 -13 
L 3091 154 
C 2714 154 2656 193 2656 503 
L 2656 2816 
L 1882 2745 
z
" transform="scale(0.015625)"/>
      <path id="CMR17-74" d="M 966 2585 
L 1862 2585 
L 1862 2752 
L 966 2752 
L 966 3968 
L 851 3968 
C 838 3292 614 2700 70 2687 
L 70 2585 
L 627 2585 
L 627 778 
C 627 655 627 -64 1370 -64 
C 1747 -64 1965 308 1965 784 
L 1965 1151 
L 1850 1151 
L 1850 790 
C 1850 347 1677 51 1408 51 
C 1222 51 966 179 966 765 
L 966 2585 
z
" transform="scale(0.015625)"/>
     </defs>
     <use xlink:href="#CMMI12-56" transform="scale(0.996264)"/>
     <use xlink:href="#CMR17-6f" transform="translate(56.869579 -14.943915) scale(0.697382)"/>
     <use xlink:href="#CMR17-75" transform="translate(88.852761 -14.943915) scale(0.697382)"/>
     <use xlink:href="#CMR17-74" transform="translate(124.479369 -14.943915) scale(0.697382)"/>
     <use xlink:href="#CMMI12-3b" transform="translate(149.17579 -14.943915) scale(0.697382)"/>
     <use xlink:href="#CMR17-6e" transform="translate(168.143723 -14.943915) scale(0.697382)"/>
    </g>
   </g>
   <g id="text_23">
    <!-- $\mathrm{E}$ -->
    <g transform="translate(458.841458 332.991456) scale(0.16 -0.16)">
     <use xlink:href="#CMR17-45" transform="scale(0.996264)"/>
    </g>
   </g>
   <g id="patch_37">
    <path d="M 525.2608 336.0264 
C 525.976848 336.0264 526.663666 335.741911 527.169988 335.235588 
C 527.676311 334.729266 527.9608 334.042448 527.9608 333.3264 
C 527.9608 332.610352 527.676311 331.923534 527.169988 331.417212 
C 526.663666 330.910889 525.976848 330.6264 525.2608 330.6264 
C 524.544752 330.6264 523.857934 330.910889 523.351612 331.417212 
C 522.845289 331.923534 522.5608 332.610352 522.5608 333.3264 
C 522.5608 334.042448 522.845289 334.729266 523.351612 335.235588 
C 523.857934 335.741911 524.544752 336.0264 525.2608 336.0264 
z
" clip-path="url(#p28b4c470bc)" style="fill: #ffffff; stroke: #000000; stroke-width: 2; stroke-linejoin: miter"/>
   </g>
   <g id="text_24">
    <!-- $V_\mathrm{en}$ -->
    <g transform="translate(533.3608 337.311456) scale(0.16 -0.16)">
     <use xlink:href="#CMMI12-56" transform="scale(0.996264)"/>
     <use xlink:href="#CMR17-65" transform="translate(56.869579 -14.943915) scale(0.697382)"/>
     <use xlink:href="#CMR17-6e" transform="translate(85.209411 -14.943915) scale(0.697382)"/>
    </g>
   </g>
   <g id="patch_38">
    <path d="M 491.0608 419.7264 
C 491.776848 419.7264 492.463666 419.441911 492.969988 418.935588 
C 493.476311 418.429266 493.7608 417.742448 493.7608 417.0264 
C 493.7608 416.310352 493.476311 415.623534 492.969988 415.117212 
C 492.463666 414.610889 491.776848 414.3264 491.0608 414.3264 
C 490.344752 414.3264 489.657934 414.610889 489.151612 415.117212 
C 488.645289 415.623534 488.3608 416.310352 488.3608 417.0264 
C 488.3608 417.742448 488.645289 418.429266 489.151612 418.935588 
C 489.657934 419.441911 490.344752 419.7264 491.0608 419.7264 
z
" clip-path="url(#p28b4c470bc)" style="stroke: #000000; stroke-width: 2; stroke-linejoin: miter"/>
   </g>
   <g id="patch_39">
    <path d="M 563.0608 419.7264 
C 563.776848 419.7264 564.463666 419.441911 564.969988 418.935588 
C 565.476311 418.429266 565.7608 417.742448 565.7608 417.0264 
C 565.7608 416.310352 565.476311 415.623534 564.969988 415.117212 
C 564.463666 414.610889 563.776848 414.3264 563.0608 414.3264 
C 562.344752 414.3264 561.657934 414.610889 561.151612 415.117212 
C 560.645289 415.623534 560.3608 416.310352 560.3608 417.0264 
C 560.3608 417.742448 560.645289 418.429266 561.151612 418.935588 
C 561.657934 419.441911 562.344752 419.7264 563.0608 419.7264 
z
" clip-path="url(#p28b4c470bc)" style="fill: #ffffff; stroke: #000000; stroke-width: 2; stroke-linejoin: miter"/>
   </g>
   <g id="text_25">
    <!-- $V_\mathrm{out,p}$ -->
    <g transform="translate(571.1608 420.192316) scale(0.16 -0.16)">
     <defs>
      <path id="CMR17-70" d="M 1408 -1114 
C 998 -1114 973 -1088 973 -834 
L 973 380 
C 1158 109 1427 -64 1766 -64 
C 2406 -64 3053 503 3053 1382 
C 3053 2196 2496 2816 1837 2816 
C 1453 2816 1139 2603 960 2345 
L 960 2816 
L 198 2745 
L 198 2577 
C 576 2577 634 2539 634 2228 
L 634 -834 
C 634 -1081 608 -1114 198 -1114 
L 198 -1280 
C 352 -1268 634 -1268 800 -1268 
C 966 -1268 1254 -1268 1408 -1280 
L 1408 -1114 
z
M 973 2015 
C 973 2106 973 2241 1222 2481 
C 1254 2506 1472 2700 1792 2700 
C 2259 2700 2643 2112 2643 1376 
C 2643 639 2234 38 1728 38 
C 1498 38 1248 148 1056 451 
C 973 594 973 632 973 736 
L 973 2015 
z
" transform="scale(0.015625)"/>
     </defs>
     <use xlink:href="#CMMI12-56" transform="scale(0.996264)"/>
     <use xlink:href="#CMR17-6f" transform="translate(56.869579 -14.943915) scale(0.697382)"/>
     <use xlink:href="#CMR17-75" transform="translate(88.852761 -14.943915) scale(0.697382)"/>
     <use xlink:href="#CMR17-74" transform="translate(124.479369 -14.943915) scale(0.697382)"/>
     <use xlink:href="#CMMI12-3b" transform="translate(149.17579 -14.943915) scale(0.697382)"/>
     <use xlink:href="#CMR17-70" transform="translate(168.143723 -14.943915) scale(0.697382)"/>
    </g>
   </g>
   <g id="patch_40">
    <path d="M 38.0008 63.6864 
C 38.716848 63.6864 39.403666 63.401911 39.909988 62.895588 
C 40.416311 62.389266 40.7008 61.702448 40.7008 60.9864 
C 40.7008 60.270352 40.416311 59.583534 39.909988 59.077212 
C 39.403666 58.570889 38.716848 58.2864 38.0008 58.2864 
C 37.284752 58.2864 36.597934 58.570889 36.091612 59.077212 
C 35.585289 59.583534 35.3008 60.270352 35.3008 60.9864 
C 35.3008 61.702448 35.585289 62.389266 36.091612 62.895588 
C 36.597934 63.401911 37.284752 63.6864 38.0008 63.6864 
z
" clip-path="url(#p28b4c470bc)" style="fill: #ffffff; stroke: #000000; stroke-width: 2; stroke-linejoin: miter"/>
   </g>
   <g id="text_26">
    <!-- $V_\mathrm{in,p}$ -->
    <g transform="translate(2.204779 64.152316) scale(0.16 -0.16)">
     <use xlink:href="#CMMI12-56" transform="scale(0.996264)"/>
     <use xlink:href="#CMR17-69" transform="translate(56.869579 -14.943915) scale(0.697382)"/>
     <use xlink:href="#CMR17-6e" transform="translate(74.279238 -14.943915) scale(0.697382)"/>
     <use xlink:href="#CMMI12-3b" transform="translate(109.905846 -14.943915) scale(0.697382)"/>
     <use xlink:href="#CMR17-70" transform="translate(128.873779 -14.943915) scale(0.697382)"/>
    </g>
   </g>
  </g>
 </g>
 <defs>
  <clipPath id="p28b4c470bc">
   <rect x="0" y="-0" width="607.9048" height="453.8184"/>
  </clipPath>
 </defs>
</svg>
