<?xml version="1.0" encoding="utf-8" standalone="no"?>
<!DOCTYPE svg PUBLIC "-//W3C//DTD SVG 1.1//EN"
  "http://www.w3.org/Graphics/SVG/1.1/DTD/svg11.dtd">
<svg xmlns:xlink="http://www.w3.org/1999/xlink" width="659.9248pt" height="381.8184pt" viewBox="0 0 659.9248 381.8184" xmlns="http://www.w3.org/2000/svg" version="1.1">
 <metadata>
  <rdf:RDF xmlns:dc="http://purl.org/dc/elements/1.1/" xmlns:cc="http://creativecommons.org/ns#" xmlns:rdf="http://www.w3.org/1999/02/22-rdf-syntax-ns#">
   <cc:Work>
    <dc:type rdf:resource="http://purl.org/dc/dcmitype/StillImage"/>
    <dc:date>2026-05-06T16:38:47.511365</dc:date>
    <dc:format>image/svg+xml</dc:format>
    <dc:creator>
     <cc:Agent>
      <dc:title>Matplotlib v3.10.7, https://matplotlib.org/</dc:title>
     </cc:Agent>
    </dc:creator>
   </cc:Work>
  </rdf:RDF>
 </metadata>
 <defs>
  <style type="text/css">*{stroke-linejoin: round; stroke-linecap: butt}</style>
 </defs>
 <g id="figure_1">
  <g id="patch_1">
   <path d="M 0 381.8184 
L 659.9248 381.8184 
L 659.9248 0 
L 0 0 
L 0 381.8184 
z
" style="fill: none"/>
  </g>
  <g id="axes_1">
   <g id="patch_2">
    <path d="M 121.7008 65.3064 
C 122.846477 65.3064 123.945385 64.851218 124.755501 64.041101 
C 125.565618 63.230985 126.0208 62.132077 126.0208 60.9864 
C 126.0208 59.840723 125.565618 58.741815 124.755501 57.931699 
C 123.945385 57.121582 122.846477 56.6664 121.7008 56.6664 
C 120.555123 56.6664 119.456215 57.121582 118.646099 57.931699 
C 117.835982 58.741815 117.3808 59.840723 117.3808 60.9864 
C 117.3808 62.132077 117.835982 63.230985 118.646099 64.041101 
C 119.456215 64.851218 120.555123 65.3064 121.7008 65.3064 
L 121.7008 65.3064 
z
" clip-path="url(#pcf23c61403)" style="fill: none; stroke: #000000; stroke-width: 2; stroke-linejoin: miter"/>
   </g>
   <g id="patch_3">
    <path d="M 180.0208 125.6064 
C 181.166477 125.6064 182.265385 125.151218 183.075501 124.341101 
C 183.885618 123.530985 184.3408 122.432077 184.3408 121.2864 
C 184.3408 120.140723 183.885618 119.041815 183.075501 118.231699 
C 182.265385 117.421582 181.166477 116.9664 180.0208 116.9664 
C 178.875123 116.9664 177.776215 117.421582 176.966099 118.231699 
C 176.155982 119.041815 175.7008 120.140723 175.7008 121.2864 
C 175.7008 122.432077 176.155982 123.530985 176.966099 124.341101 
C 177.776215 125.151218 178.875123 125.6064 180.0208 125.6064 
L 180.0208 125.6064 
z
" clip-path="url(#pcf23c61403)" style="fill: none; stroke: #000000; stroke-width: 2; stroke-linejoin: miter"/>
   </g>
   <g id="patch_4">
    <path d="M 180.0208 291.0264 
C 181.166477 291.0264 182.265385 290.571218 183.075501 289.761101 
C 183.885618 288.950985 184.3408 287.852077 184.3408 286.7064 
C 184.3408 285.560723 183.885618 284.461815 183.075501 283.651699 
C 182.265385 282.841582 181.166477 282.3864 180.0208 282.3864 
C 178.875123 282.3864 177.776215 282.841582 176.966099 283.651699 
C 176.155982 284.461815 175.7008 285.560723 175.7008 286.7064 
C 175.7008 287.852077 176.155982 288.950985 176.966099 289.761101 
C 177.776215 290.571218 178.875123 291.0264 180.0208 291.0264 
L 180.0208 291.0264 
z
" clip-path="url(#pcf23c61403)" style="fill: none; stroke: #000000; stroke-width: 2; stroke-linejoin: miter"/>
   </g>
   <g id="patch_5">
    <path d="M 119.7208 349.3464 
C 120.866477 349.3464 121.965385 348.891218 122.775501 348.081101 
C 123.585618 347.270985 124.0408 346.172077 124.0408 345.0264 
C 124.0408 343.880723 123.585618 342.781815 122.775501 341.971699 
C 121.965385 341.161582 120.866477 340.7064 119.7208 340.7064 
C 118.575123 340.7064 117.476215 341.161582 116.666099 341.971699 
C 115.855982 342.781815 115.4008 343.880723 115.4008 345.0264 
C 115.4008 346.172077 115.855982 347.270985 116.666099 348.081101 
C 117.476215 348.891218 118.575123 349.3464 119.7208 349.3464 
L 119.7208 349.3464 
z
" clip-path="url(#pcf23c61403)" style="fill: none; stroke: #000000; stroke-width: 2; stroke-linejoin: miter"/>
   </g>
   <g id="patch_6">
    <path d="M 249.3208 207.3264 
C 250.466477 207.3264 251.565385 206.871218 252.375501 206.061101 
C 253.185618 205.250985 253.6408 204.152077 253.6408 203.0064 
C 253.6408 201.860723 253.185618 200.761815 252.375501 199.951699 
C 251.565385 199.141582 250.466477 198.6864 249.3208 198.6864 
C 248.175123 198.6864 247.076215 199.141582 246.266099 199.951699 
C 245.455982 200.761815 245.0008 201.860723 245.0008 203.0064 
C 245.0008 204.152077 245.455982 205.250985 246.266099 206.061101 
C 247.076215 206.871218 248.175123 207.3264 249.3208 207.3264 
L 249.3208 207.3264 
z
" clip-path="url(#pcf23c61403)" style="fill: none; stroke: #000000; stroke-width: 2; stroke-linejoin: miter"/>
   </g>
   <g id="patch_7">
    <path d="M 346.3408 207.3264 
C 347.486477 207.3264 348.585385 206.871218 349.395501 206.061101 
C 350.205618 205.250985 350.6608 204.152077 350.6608 203.0064 
C 350.6608 201.860723 350.205618 200.761815 349.395501 199.951699 
C 348.585385 199.141582 347.486477 198.6864 346.3408 198.6864 
C 345.195123 198.6864 344.096215 199.141582 343.286099 199.951699 
C 342.475982 200.761815 342.0208 201.860723 342.0208 203.0064 
C 342.0208 204.152077 342.475982 205.250985 343.286099 206.061101 
C 344.096215 206.871218 345.195123 207.3264 346.3408 207.3264 
L 346.3408 207.3264 
z
" clip-path="url(#pcf23c61403)" style="fill: none; stroke: #000000; stroke-width: 2; stroke-linejoin: miter"/>
   </g>
   <g id="patch_8">
    <path d="M 443.3608 207.3264 
C 444.506477 207.3264 445.605385 206.871218 446.415501 206.061101 
C 447.225618 205.250985 447.6808 204.152077 447.6808 203.0064 
C 447.6808 201.860723 447.225618 200.761815 446.415501 199.951699 
C 445.605385 199.141582 444.506477 198.6864 443.3608 198.6864 
C 442.215123 198.6864 441.116215 199.141582 440.306099 199.951699 
C 439.495982 200.761815 439.0408 201.860723 439.0408 203.0064 
C 439.0408 204.152077 439.495982 205.250985 440.306099 206.061101 
C 441.116215 206.871218 442.215123 207.3264 443.3608 207.3264 
L 443.3608 207.3264 
z
" clip-path="url(#pcf23c61403)" style="fill: none; stroke: #000000; stroke-width: 2; stroke-linejoin: miter"/>
   </g>
   <g id="patch_9">
    <path d="M 543.0808 147.0264 
C 544.226477 147.0264 545.325385 146.571218 546.135501 145.761101 
C 546.945618 144.950985 547.4008 143.852077 547.4008 142.7064 
C 547.4008 141.560723 546.945618 140.461815 546.135501 139.651699 
C 545.325385 138.841582 544.226477 138.3864 543.0808 138.3864 
C 541.935123 138.3864 540.836215 138.841582 540.026099 139.651699 
C 539.215982 140.461815 538.7608 141.560723 538.7608 142.7064 
C 538.7608 143.852077 539.215982 144.950985 540.026099 145.761101 
C 540.836215 146.571218 541.935123 147.0264 543.0808 147.0264 
L 543.0808 147.0264 
z
" clip-path="url(#pcf23c61403)" style="fill: none; stroke: #000000; stroke-width: 2; stroke-linejoin: miter"/>
   </g>
   <g id="patch_10">
    <path d="M 543.0808 267.6264 
C 544.226477 267.6264 545.325385 267.171218 546.135501 266.361101 
C 546.945618 265.550985 547.4008 264.452077 547.4008 263.3064 
C 547.4008 262.160723 546.945618 261.061815 546.135501 260.251699 
C 545.325385 259.441582 544.226477 258.9864 543.0808 258.9864 
C 541.935123 258.9864 540.836215 259.441582 540.026099 260.251699 
C 539.215982 261.061815 538.7608 262.160723 538.7608 263.3064 
C 538.7608 264.452077 539.215982 265.550985 540.026099 266.361101 
C 540.836215 267.171218 541.935123 267.6264 543.0808 267.6264 
L 543.0808 267.6264 
z
" clip-path="url(#pcf23c61403)" style="fill: none; stroke: #000000; stroke-width: 2; stroke-linejoin: miter"/>
   </g>
   <g id="line2d_1">
    <path d="M 38.0008 60.9864 
L 56.0008 60.9864 
L 74.0008 60.9864 
" clip-path="url(#pcf23c61403)" style="fill: none; stroke: #000000; stroke-width: 2; stroke-linecap: round"/>
   </g>
   <g id="line2d_2">
    <path d="M 74.0008 60.9864 
L 93.9808 60.9864 
M 126.0208 60.9864 
L 146.0008 60.9864 
" clip-path="url(#pcf23c61403)" style="fill: none; stroke: #000000; stroke-width: 2; stroke-linecap: round"/>
   </g>
   <g id="line2d_3">
    <path d="M 93.9808 42.9864 
L 117.3808 60.9864 
L 93.9808 78.9864 
L 93.9808 42.9864 
" clip-path="url(#pcf23c61403)" style="fill: none; stroke: #000000; stroke-width: 2; stroke-linecap: round"/>
   </g>
   <g id="line2d_4">
    <path d="M 105.6808 50.9064 
L 105.6808 35.7864 
" clip-path="url(#pcf23c61403)" style="fill: none; stroke: #000000; stroke-width: 2; stroke-linecap: round"/>
   </g>
   <g id="line2d_5">
    <path d="M 105.6808 35.7864 
L 105.6808 31.2864 
L 105.6808 26.7864 
" clip-path="url(#pcf23c61403)" style="fill: none; stroke: #000000; stroke-width: 2; stroke-linecap: round"/>
   </g>
   <g id="line2d_6">
    <path d="M 126.0208 60.9864 
L 153.0208 60.9864 
L 180.0208 60.9864 
" clip-path="url(#pcf23c61403)" style="fill: none; stroke: #000000; stroke-width: 2; stroke-linecap: round"/>
   </g>
   <g id="line2d_7">
    <path d="M 180.0208 60.9864 
L 180.0208 78.9864 
L 180.0208 96.9864 
" clip-path="url(#pcf23c61403)" style="fill: none; stroke: #000000; stroke-width: 2; stroke-linecap: round"/>
   </g>
   <g id="line2d_8">
    <path d="M 180.0208 96.9864 
L 180.0208 116.9664 
M 180.0208 149.0064 
L 180.0208 168.9864 
" clip-path="url(#pcf23c61403)" style="fill: none; stroke: #000000; stroke-width: 2; stroke-linecap: round"/>
   </g>
   <g id="line2d_9">
    <path d="M 162.0208 149.0064 
L 198.0208 149.0064 
L 180.0208 125.6064 
L 162.0208 149.0064 
" clip-path="url(#pcf23c61403)" style="fill: none; stroke: #000000; stroke-width: 2; stroke-linecap: round"/>
   </g>
   <g id="line2d_10">
    <path d="M 154.8208 137.3064 
L 169.9408 137.3064 
" clip-path="url(#pcf23c61403)" style="fill: none; stroke: #000000; stroke-width: 2; stroke-linecap: round"/>
   </g>
   <g id="line2d_11">
    <path d="M 154.8208 137.3064 
L 150.3208 137.3064 
L 145.8208 137.3064 
" clip-path="url(#pcf23c61403)" style="fill: none; stroke: #000000; stroke-width: 2; stroke-linecap: round"/>
   </g>
   <g id="line2d_12">
    <path d="M 180.0208 149.0064 
L 180.0208 176.0064 
L 180.0208 203.0064 
" clip-path="url(#pcf23c61403)" style="fill: none; stroke: #000000; stroke-width: 2; stroke-linecap: round"/>
   </g>
   <g id="line2d_13">
    <path d="M 180.0208 203.0064 
L 180.0208 221.0064 
L 180.0208 239.0064 
" clip-path="url(#pcf23c61403)" style="fill: none; stroke: #000000; stroke-width: 2; stroke-linecap: round"/>
   </g>
   <g id="line2d_14">
    <path d="M 180.0208 239.0064 
L 180.0208 258.9864 
M 180.0208 291.0264 
L 180.0208 311.0064 
" clip-path="url(#pcf23c61403)" style="fill: none; stroke: #000000; stroke-width: 2; stroke-linecap: round"/>
   </g>
   <g id="line2d_15">
    <path d="M 162.0208 258.9864 
L 180.0208 282.3864 
L 198.0208 258.9864 
L 162.0208 258.9864 
" clip-path="url(#pcf23c61403)" style="fill: none; stroke: #000000; stroke-width: 2; stroke-linecap: round"/>
   </g>
   <g id="line2d_16">
    <path d="M 169.9408 270.6864 
L 154.8208 270.6864 
" clip-path="url(#pcf23c61403)" style="fill: none; stroke: #000000; stroke-width: 2; stroke-linecap: round"/>
   </g>
   <g id="line2d_17">
    <path d="M 154.8208 270.6864 
L 150.3208 270.6864 
L 145.8208 270.6864 
" clip-path="url(#pcf23c61403)" style="fill: none; stroke: #000000; stroke-width: 2; stroke-linecap: round"/>
   </g>
   <g id="line2d_18">
    <path d="M 180.0208 291.0264 
L 180.0208 318.0264 
L 180.0208 345.0264 
" clip-path="url(#pcf23c61403)" style="fill: none; stroke: #000000; stroke-width: 2; stroke-linecap: round"/>
   </g>
   <g id="line2d_19">
    <path d="M 180.0208 345.0264 
L 162.0208 345.0264 
L 144.0208 345.0264 
" clip-path="url(#pcf23c61403)" style="fill: none; stroke: #000000; stroke-width: 2; stroke-linecap: round"/>
   </g>
   <g id="line2d_20">
    <path d="M 144.0208 345.0264 
L 124.0408 345.0264 
M 92.0008 345.0264 
L 72.0208 345.0264 
" clip-path="url(#pcf23c61403)" style="fill: none; stroke: #000000; stroke-width: 2; stroke-linecap: round"/>
   </g>
   <g id="line2d_21">
    <path d="M 92.0008 327.0264 
L 92.0008 363.0264 
L 115.4008 345.0264 
L 92.0008 327.0264 
" clip-path="url(#pcf23c61403)" style="fill: none; stroke: #000000; stroke-width: 2; stroke-linecap: round"/>
   </g>
   <g id="line2d_22">
    <path d="M 103.7008 319.8264 
L 103.7008 334.9464 
" clip-path="url(#pcf23c61403)" style="fill: none; stroke: #000000; stroke-width: 2; stroke-linecap: round"/>
   </g>
   <g id="line2d_23">
    <path d="M 103.7008 319.8264 
L 103.7008 315.3264 
L 103.7008 310.8264 
" clip-path="url(#pcf23c61403)" style="fill: none; stroke: #000000; stroke-width: 2; stroke-linecap: round"/>
   </g>
   <g id="line2d_24">
    <path d="M 92.0008 345.0264 
L 65.0008 345.0264 
L 38.0008 345.0264 
" clip-path="url(#pcf23c61403)" style="fill: none; stroke: #000000; stroke-width: 2; stroke-linecap: round"/>
   </g>
   <g id="line2d_25">
    <path d="M 180.0208 203.0064 
L 198.0208 203.0064 
L 216.0208 203.0064 
" clip-path="url(#pcf23c61403)" style="fill: none; stroke: #000000; stroke-width: 2; stroke-linecap: round"/>
   </g>
   <g id="line2d_26">
    <path d="M 216.0208 203.0064 
L 220.5208 203.0064 
L 225.0208 203.0064 
" clip-path="url(#pcf23c61403)" style="fill: none; stroke: #000000; stroke-width: 2; stroke-linecap: round"/>
   </g>
   <g id="line2d_27">
    <path d="M 225.0208 203.0064 
L 245.0008 203.0064 
M 277.0408 203.0064 
L 297.0208 203.0064 
" clip-path="url(#pcf23c61403)" style="fill: none; stroke: #000000; stroke-width: 2; stroke-linecap: round"/>
   </g>
   <g id="line2d_28">
    <path d="M 277.0408 185.0064 
L 277.0408 221.0064 
L 253.6408 203.0064 
L 277.0408 185.0064 
" clip-path="url(#pcf23c61403)" style="fill: none; stroke: #000000; stroke-width: 2; stroke-linecap: round"/>
   </g>
   <g id="line2d_29">
    <path d="M 265.3408 177.8064 
L 265.3408 192.9264 
" clip-path="url(#pcf23c61403)" style="fill: none; stroke: #000000; stroke-width: 2; stroke-linecap: round"/>
   </g>
   <g id="line2d_30">
    <path d="M 265.3408 177.8064 
L 265.3408 173.3064 
L 265.3408 168.8064 
" clip-path="url(#pcf23c61403)" style="fill: none; stroke: #000000; stroke-width: 2; stroke-linecap: round"/>
   </g>
   <g id="line2d_31">
    <path d="M 216.0208 203.0064 
L 216.0208 225.5064 
L 216.0208 248.0064 
" clip-path="url(#pcf23c61403)" style="fill: none; stroke: #000000; stroke-width: 2; stroke-linecap: round"/>
   </g>
   <g id="line2d_32">
    <path d="M 216.0208 248.0064 
L 246.5308 248.0064 
L 277.0408 248.0064 
" clip-path="url(#pcf23c61403)" style="fill: none; stroke: #000000; stroke-width: 2; stroke-linecap: round"/>
   </g>
   <g id="line2d_33">
    <path d="M 277.0408 248.0064 
L 295.0408 248.0064 
L 313.0408 248.0064 
" clip-path="url(#pcf23c61403)" style="fill: none; stroke: #000000; stroke-width: 2; stroke-linecap: round"/>
   </g>
   <g id="line2d_34">
    <path d="M 313.0408 248.0064 
L 313.0408 225.5064 
L 313.0408 203.0064 
" clip-path="url(#pcf23c61403)" style="fill: none; stroke: #000000; stroke-width: 2; stroke-linecap: round"/>
   </g>
   <g id="line2d_35">
    <path d="M 277.0408 203.0064 
L 299.5408 203.0064 
L 322.0408 203.0064 
" clip-path="url(#pcf23c61403)" style="fill: none; stroke: #000000; stroke-width: 2; stroke-linecap: round"/>
   </g>
   <g id="line2d_36">
    <path d="M 322.0408 203.0064 
L 342.0208 203.0064 
M 374.0608 203.0064 
L 394.0408 203.0064 
" clip-path="url(#pcf23c61403)" style="fill: none; stroke: #000000; stroke-width: 2; stroke-linecap: round"/>
   </g>
   <g id="line2d_37">
    <path d="M 374.0608 185.0064 
L 374.0608 221.0064 
L 350.6608 203.0064 
L 374.0608 185.0064 
" clip-path="url(#pcf23c61403)" style="fill: none; stroke: #000000; stroke-width: 2; stroke-linecap: round"/>
   </g>
   <g id="line2d_38">
    <path d="M 362.3608 177.8064 
L 362.3608 192.9264 
" clip-path="url(#pcf23c61403)" style="fill: none; stroke: #000000; stroke-width: 2; stroke-linecap: round"/>
   </g>
   <g id="line2d_39">
    <path d="M 362.3608 177.8064 
L 362.3608 173.3064 
L 362.3608 168.8064 
" clip-path="url(#pcf23c61403)" style="fill: none; stroke: #000000; stroke-width: 2; stroke-linecap: round"/>
   </g>
   <g id="line2d_40">
    <path d="M 374.0608 203.0064 
L 392.0608 203.0064 
L 410.0608 203.0064 
" clip-path="url(#pcf23c61403)" style="fill: none; stroke: #000000; stroke-width: 2; stroke-linecap: round"/>
   </g>
   <g id="line2d_41">
    <path d="M 410.0608 203.0064 
L 414.5608 203.0064 
L 419.0608 203.0064 
" clip-path="url(#pcf23c61403)" style="fill: none; stroke: #000000; stroke-width: 2; stroke-linecap: round"/>
   </g>
   <g id="line2d_42">
    <path d="M 419.0608 203.0064 
L 439.0408 203.0064 
M 471.0808 203.0064 
L 491.0608 203.0064 
" clip-path="url(#pcf23c61403)" style="fill: none; stroke: #000000; stroke-width: 2; stroke-linecap: round"/>
   </g>
   <g id="line2d_43">
    <path d="M 471.0808 185.0064 
L 471.0808 221.0064 
L 447.6808 203.0064 
L 471.0808 185.0064 
" clip-path="url(#pcf23c61403)" style="fill: none; stroke: #000000; stroke-width: 2; stroke-linecap: round"/>
   </g>
   <g id="line2d_44">
    <path d="M 459.3808 177.8064 
L 459.3808 192.9264 
" clip-path="url(#pcf23c61403)" style="fill: none; stroke: #000000; stroke-width: 2; stroke-linecap: round"/>
   </g>
   <g id="line2d_45">
    <path d="M 459.3808 177.8064 
L 459.3808 173.3064 
L 459.3808 168.8064 
" clip-path="url(#pcf23c61403)" style="fill: none; stroke: #000000; stroke-width: 2; stroke-linecap: round"/>
   </g>
   <g id="line2d_46">
    <path d="M 410.0608 203.0064 
L 410.0608 225.5064 
L 410.0608 248.0064 
" clip-path="url(#pcf23c61403)" style="fill: none; stroke: #000000; stroke-width: 2; stroke-linecap: round"/>
   </g>
   <g id="line2d_47">
    <path d="M 410.0608 248.0064 
L 440.5708 248.0064 
L 471.0808 248.0064 
" clip-path="url(#pcf23c61403)" style="fill: none; stroke: #000000; stroke-width: 2; stroke-linecap: round"/>
   </g>
   <g id="line2d_48">
    <path d="M 471.0808 248.0064 
L 489.0808 248.0064 
L 507.0808 248.0064 
" clip-path="url(#pcf23c61403)" style="fill: none; stroke: #000000; stroke-width: 2; stroke-linecap: round"/>
   </g>
   <g id="line2d_49">
    <path d="M 507.0808 248.0064 
L 507.0808 225.5064 
L 507.0808 203.0064 
" clip-path="url(#pcf23c61403)" style="fill: none; stroke: #000000; stroke-width: 2; stroke-linecap: round"/>
   </g>
   <g id="line2d_50">
    <path d="M 471.0808 203.0064 
L 489.0808 203.0064 
L 507.0808 203.0064 
" clip-path="url(#pcf23c61403)" style="fill: none; stroke: #000000; stroke-width: 2; stroke-linecap: round"/>
   </g>
   <g id="line2d_51">
    <path d="M 507.0808 203.0064 
L 525.0808 203.0064 
L 543.0808 203.0064 
" clip-path="url(#pcf23c61403)" style="fill: none; stroke: #000000; stroke-width: 2; stroke-linecap: round"/>
   </g>
   <g id="line2d_52">
    <path d="M 543.0808 203.0064 
L 543.0808 185.0064 
L 543.0808 167.0064 
" clip-path="url(#pcf23c61403)" style="fill: none; stroke: #000000; stroke-width: 2; stroke-linecap: round"/>
   </g>
   <g id="line2d_53">
    <path d="M 543.0808 167.0064 
L 543.0808 147.0264 
M 543.0808 114.9864 
L 543.0808 95.0064 
" clip-path="url(#pcf23c61403)" style="fill: none; stroke: #000000; stroke-width: 2; stroke-linecap: round"/>
   </g>
   <g id="line2d_54">
    <path d="M 561.0808 114.9864 
L 525.0808 114.9864 
L 543.0808 138.3864 
L 561.0808 114.9864 
" clip-path="url(#pcf23c61403)" style="fill: none; stroke: #000000; stroke-width: 2; stroke-linecap: round"/>
   </g>
   <g id="line2d_55">
    <path d="M 568.2808 126.6864 
L 553.1608 126.6864 
" clip-path="url(#pcf23c61403)" style="fill: none; stroke: #000000; stroke-width: 2; stroke-linecap: round"/>
   </g>
   <g id="line2d_56">
    <path d="M 568.2808 126.6864 
L 572.7808 126.6864 
L 577.2808 126.6864 
" clip-path="url(#pcf23c61403)" style="fill: none; stroke: #000000; stroke-width: 2; stroke-linecap: round"/>
   </g>
   <g id="line2d_57">
    <path d="M 543.0808 114.9864 
L 543.0808 87.9864 
L 543.0808 60.9864 
" clip-path="url(#pcf23c61403)" style="fill: none; stroke: #000000; stroke-width: 2; stroke-linecap: round"/>
   </g>
   <g id="line2d_58">
    <path d="M 543.0808 60.9864 
L 361.5508 60.9864 
L 180.0208 60.9864 
" clip-path="url(#pcf23c61403)" style="fill: none; stroke: #000000; stroke-width: 2; stroke-linecap: round"/>
   </g>
   <g id="line2d_59">
    <path d="M 543.0808 60.9864 
L 579.0808 60.9864 
L 615.0808 60.9864 
" clip-path="url(#pcf23c61403)" style="fill: none; stroke: #000000; stroke-width: 2; stroke-linecap: round"/>
   </g>
   <g id="line2d_60">
    <path d="M 543.0808 203.0064 
L 543.0808 221.0064 
L 543.0808 239.0064 
" clip-path="url(#pcf23c61403)" style="fill: none; stroke: #000000; stroke-width: 2; stroke-linecap: round"/>
   </g>
   <g id="line2d_61">
    <path d="M 543.0808 239.0064 
L 543.0808 258.9864 
M 543.0808 291.0264 
L 543.0808 311.0064 
" clip-path="url(#pcf23c61403)" style="fill: none; stroke: #000000; stroke-width: 2; stroke-linecap: round"/>
   </g>
   <g id="line2d_62">
    <path d="M 561.0808 291.0264 
L 525.0808 291.0264 
L 543.0808 267.6264 
L 561.0808 291.0264 
" clip-path="url(#pcf23c61403)" style="fill: none; stroke: #000000; stroke-width: 2; stroke-linecap: round"/>
   </g>
   <g id="line2d_63">
    <path d="M 568.2808 279.3264 
L 553.1608 279.3264 
" clip-path="url(#pcf23c61403)" style="fill: none; stroke: #000000; stroke-width: 2; stroke-linecap: round"/>
   </g>
   <g id="line2d_64">
    <path d="M 568.2808 279.3264 
L 572.7808 279.3264 
L 577.2808 279.3264 
" clip-path="url(#pcf23c61403)" style="fill: none; stroke: #000000; stroke-width: 2; stroke-linecap: round"/>
   </g>
   <g id="line2d_65">
    <path d="M 543.0808 291.0264 
L 543.0808 318.0264 
L 543.0808 345.0264 
" clip-path="url(#pcf23c61403)" style="fill: none; stroke: #000000; stroke-width: 2; stroke-linecap: round"/>
   </g>
   <g id="line2d_66">
    <path d="M 543.0808 345.0264 
L 361.5508 345.0264 
L 180.0208 345.0264 
" clip-path="url(#pcf23c61403)" style="fill: none; stroke: #000000; stroke-width: 2; stroke-linecap: round"/>
   </g>
   <g id="line2d_67">
    <path d="M 543.0808 345.0264 
L 579.0808 345.0264 
L 615.0808 345.0264 
" clip-path="url(#pcf23c61403)" style="fill: none; stroke: #000000; stroke-width: 2; stroke-linecap: round"/>
   </g>
   <g id="text_1">
    <!-- $\mathrm{A}$ -->
    <g transform="translate(104.150569 93.655988) scale(0.16 -0.16)">
     <defs>
      <path id="CMR17-41" d="M 2323 4441 
C 2291 4524 2278 4544 2214 4544 
C 2150 4544 2138 4524 2106 4441 
L 749 580 
C 627 236 371 166 147 166 
L 147 0 
C 262 12 518 12 640 12 
C 800 12 1056 12 1210 0 
L 1210 166 
C 909 179 864 382 864 459 
C 864 516 877 548 890 586 
L 1229 1536 
L 2906 1536 
L 3290 453 
C 3322 376 3322 363 3322 338 
C 3322 166 3046 166 2925 166 
L 2925 0 
C 3110 12 3443 12 3642 12 
C 3808 12 4128 12 4282 0 
L 4282 166 
C 3942 166 3827 166 3744 402 
L 2323 4441 
z
M 2067 3924 
L 2848 1702 
L 1286 1702 
L 2067 3924 
z
" transform="scale(0.015625)"/>
     </defs>
     <use xlink:href="#CMR17-41" transform="scale(0.996264)"/>
    </g>
   </g>
   <g id="patch_11">
    <path d="M 105.6808 29.4864 
C 106.396848 29.4864 107.083666 29.201911 107.589988 28.695588 
C 108.096311 28.189266 108.3808 27.502448 108.3808 26.7864 
C 108.3808 26.070352 108.096311 25.383534 107.589988 24.877212 
C 107.083666 24.370889 106.396848 24.0864 105.6808 24.0864 
C 104.964752 24.0864 104.277934 24.370889 103.771612 24.877212 
C 103.265289 25.383534 102.9808 26.070352 102.9808 26.7864 
C 102.9808 27.502448 103.265289 28.189266 103.771612 28.695588 
C 104.277934 29.201911 104.964752 29.4864 105.6808 29.4864 
z
" clip-path="url(#pcf23c61403)" style="fill: #ffffff; stroke: #000000; stroke-width: 2; stroke-linejoin: miter"/>
   </g>
   <g id="text_2">
    <!-- $V_\mathrm{en}$ -->
    <g transform="translate(95.552164 15.586924) scale(0.16 -0.16)">
     <defs>
      <path id="CMMI12-56" d="M 3962 3644 
C 4179 3987 4378 4140 4704 4166 
C 4768 4172 4819 4172 4819 4287 
C 4819 4313 4806 4352 4749 4352 
C 4634 4352 4358 4339 4243 4339 
C 4058 4339 3866 4352 3686 4352 
C 3635 4352 3571 4352 3571 4230 
C 3571 4172 3629 4166 3654 4166 
C 3891 4146 3917 4032 3917 3956 
C 3917 3860 3827 3714 3821 3708 
L 1811 540 
L 1363 3968 
C 1363 4153 1696 4166 1766 4166 
C 1862 4166 1920 4166 1920 4287 
C 1920 4352 1850 4352 1830 4352 
C 1722 4352 1594 4339 1485 4339 
L 1126 4339 
C 659 4339 467 4352 461 4352 
C 422 4352 346 4352 346 4236 
C 346 4166 390 4166 493 4166 
C 819 4166 838 4108 858 3949 
L 1370 25 
C 1389 -109 1389 -128 1478 -128 
C 1555 -128 1587 -109 1651 -7 
L 3962 3644 
z
" transform="scale(0.015625)"/>
      <path id="CMR17-65" d="M 2438 1503 
C 2464 1529 2464 1542 2464 1606 
C 2464 2251 2118 2816 1389 2816 
C 710 2816 173 2175 173 1394 
C 173 554 781 -64 1459 -64 
C 2176 -64 2458 619 2458 755 
C 2458 800 2419 800 2406 800 
C 2362 800 2355 787 2330 709 
C 2189 270 1837 51 1504 51 
C 1229 51 954 206 781 490 
C 582 819 582 1200 582 1503 
L 2438 1503 
z
M 589 1600 
C 634 2511 1126 2713 1382 2713 
C 1818 2713 2112 2308 2118 1600 
L 589 1600 
z
" transform="scale(0.015625)"/>
      <path id="CMR17-6e" d="M 2656 1954 
C 2656 2282 2592 2816 1837 2816 
C 1331 2816 1069 2424 973 2166 
L 966 2166 
L 966 2816 
L 211 2745 
L 211 2578 
C 589 2578 646 2540 646 2231 
L 646 443 
C 646 198 621 166 211 166 
L 211 0 
C 365 12 646 12 813 12 
C 979 12 1267 12 1421 0 
L 1421 166 
C 1011 166 986 192 986 443 
L 986 1678 
C 986 2269 1344 2713 1792 2713 
C 2266 2713 2317 2289 2317 1980 
L 2317 443 
C 2317 198 2291 166 1882 166 
L 1882 0 
C 2035 12 2317 12 2483 12 
C 2650 12 2938 12 3091 0 
L 3091 166 
C 2682 166 2656 192 2656 443 
L 2656 1954 
z
" transform="scale(0.015625)"/>
     </defs>
     <use xlink:href="#CMMI12-56" transform="scale(0.996264)"/>
     <use xlink:href="#CMR17-65" transform="translate(56.869579 -14.943915) scale(0.697382)"/>
     <use xlink:href="#CMR17-6e" transform="translate(85.209411 -14.943915) scale(0.697382)"/>
    </g>
   </g>
   <g id="patch_12">
    <path d="M 180.0208 63.6864 
C 180.736848 63.6864 181.423666 63.401911 181.929988 62.895588 
C 182.436311 62.389266 182.7208 61.702448 182.7208 60.9864 
C 182.7208 60.270352 182.436311 59.583534 181.929988 59.077212 
C 181.423666 58.570889 180.736848 58.2864 180.0208 58.2864 
C 179.304752 58.2864 178.617934 58.570889 178.111612 59.077212 
C 177.605289 59.583534 177.3208 60.270352 177.3208 60.9864 
C 177.3208 61.702448 177.605289 62.389266 178.111612 62.895588 
C 178.617934 63.401911 179.304752 63.6864 180.0208 63.6864 
z
" clip-path="url(#pcf23c61403)" style="stroke: #000000; stroke-width: 2; stroke-linejoin: miter"/>
   </g>
   <g id="text_3">
    <!-- $\mathrm{F}$ -->
    <g transform="translate(201.6208 136.971456) scale(0.16 -0.16)">
     <defs>
      <path id="CMR17-46" d="M 3482 4339 
L 326 4339 
L 326 4172 
C 768 4172 838 4172 838 3883 
L 838 450 
C 838 166 768 166 326 166 
L 326 0 
C 512 12 870 12 1069 12 
C 1331 12 1638 12 1901 0 
L 1901 166 
L 1760 166 
C 1274 166 1261 229 1261 456 
L 1261 2073 
L 1837 2073 
C 2432 2073 2490 1865 2490 1334 
L 2605 1334 
L 2605 2991 
L 2490 2991 
C 2490 2451 2432 2240 1837 2240 
L 1261 2240 
L 1261 3922 
C 1261 4140 1274 4172 1530 4172 
L 2355 4172 
C 3322 4172 3430 3774 3520 2920 
L 3635 2920 
L 3482 4339 
z
" transform="scale(0.015625)"/>
     </defs>
     <use xlink:href="#CMR17-46" transform="scale(0.996264)"/>
    </g>
   </g>
   <g id="patch_13">
    <path d="M 145.8208 140.0064 
C 146.536848 140.0064 147.223666 139.721911 147.729988 139.215588 
C 148.236311 138.709266 148.5208 138.022448 148.5208 137.3064 
C 148.5208 136.590352 148.236311 135.903534 147.729988 135.397212 
C 147.223666 134.890889 146.536848 134.6064 145.8208 134.6064 
C 145.104752 134.6064 144.417934 134.890889 143.911612 135.397212 
C 143.405289 135.903534 143.1208 136.590352 143.1208 137.3064 
C 143.1208 138.022448 143.405289 138.709266 143.911612 139.215588 
C 144.417934 139.721911 145.104752 140.0064 145.8208 140.0064 
z
" clip-path="url(#pcf23c61403)" style="fill: #ffffff; stroke: #000000; stroke-width: 2; stroke-linejoin: miter"/>
   </g>
   <g id="text_4">
    <!-- $V_\mathrm{en}$ -->
    <g transform="translate(117.463528 141.291456) scale(0.16 -0.16)">
     <use xlink:href="#CMMI12-56" transform="scale(0.996264)"/>
     <use xlink:href="#CMR17-65" transform="translate(56.869579 -14.943915) scale(0.697382)"/>
     <use xlink:href="#CMR17-6e" transform="translate(85.209411 -14.943915) scale(0.697382)"/>
    </g>
   </g>
   <g id="patch_14">
    <path d="M 180.0208 205.7064 
C 180.736848 205.7064 181.423666 205.421911 181.929988 204.915588 
C 182.436311 204.409266 182.7208 203.722448 182.7208 203.0064 
C 182.7208 202.290352 182.436311 201.603534 181.929988 201.097212 
C 181.423666 200.590889 180.736848 200.3064 180.0208 200.3064 
C 179.304752 200.3064 178.617934 200.590889 178.111612 201.097212 
C 177.605289 201.603534 177.3208 202.290352 177.3208 203.0064 
C 177.3208 203.722448 177.605289 204.409266 178.111612 204.915588 
C 178.617934 205.421911 179.304752 205.7064 180.0208 205.7064 
z
" clip-path="url(#pcf23c61403)" style="stroke: #000000; stroke-width: 2; stroke-linejoin: miter"/>
   </g>
   <g id="text_5">
    <!-- $\mathrm{F}$ -->
    <g transform="translate(201.6208 278.991456) scale(0.16 -0.16)">
     <use xlink:href="#CMR17-46" transform="scale(0.996264)"/>
    </g>
   </g>
   <g id="patch_15">
    <path d="M 145.8208 273.3864 
C 146.536848 273.3864 147.223666 273.101911 147.729988 272.595588 
C 148.236311 272.089266 148.5208 271.402448 148.5208 270.6864 
C 148.5208 269.970352 148.236311 269.283534 147.729988 268.777212 
C 147.223666 268.270889 146.536848 267.9864 145.8208 267.9864 
C 145.104752 267.9864 144.417934 268.270889 143.911612 268.777212 
C 143.405289 269.283534 143.1208 269.970352 143.1208 270.6864 
C 143.1208 271.402448 143.405289 272.089266 143.911612 272.595588 
C 144.417934 273.101911 145.104752 273.3864 145.8208 273.3864 
z
" clip-path="url(#pcf23c61403)" style="fill: #ffffff; stroke: #000000; stroke-width: 2; stroke-linejoin: miter"/>
   </g>
   <g id="text_6">
    <!-- $V_\mathrm{en}$ -->
    <g transform="translate(117.463528 274.671456) scale(0.16 -0.16)">
     <use xlink:href="#CMMI12-56" transform="scale(0.996264)"/>
     <use xlink:href="#CMR17-65" transform="translate(56.869579 -14.943915) scale(0.697382)"/>
     <use xlink:href="#CMR17-6e" transform="translate(85.209411 -14.943915) scale(0.697382)"/>
    </g>
   </g>
   <g id="patch_16">
    <path d="M 180.0208 347.7264 
C 180.736848 347.7264 181.423666 347.441911 181.929988 346.935588 
C 182.436311 346.429266 182.7208 345.742448 182.7208 345.0264 
C 182.7208 344.310352 182.436311 343.623534 181.929988 343.117212 
C 181.423666 342.610889 180.736848 342.3264 180.0208 342.3264 
C 179.304752 342.3264 178.617934 342.610889 178.111612 343.117212 
C 177.605289 343.623534 177.3208 344.310352 177.3208 345.0264 
C 177.3208 345.742448 177.605289 346.429266 178.111612 346.935588 
C 178.617934 347.441911 179.304752 347.7264 180.0208 347.7264 
z
" clip-path="url(#pcf23c61403)" style="stroke: #000000; stroke-width: 2; stroke-linejoin: miter"/>
   </g>
   <g id="text_7">
    <!-- $\mathrm{A}$ -->
    <g transform="translate(102.170569 377.695988) scale(0.16 -0.16)">
     <use xlink:href="#CMR17-41" transform="scale(0.996264)"/>
    </g>
   </g>
   <g id="patch_17">
    <path d="M 103.7008 313.5264 
C 104.416848 313.5264 105.103666 313.241911 105.609988 312.735588 
C 106.116311 312.229266 106.4008 311.542448 106.4008 310.8264 
C 106.4008 310.110352 106.116311 309.423534 105.609988 308.917212 
C 105.103666 308.410889 104.416848 308.1264 103.7008 308.1264 
C 102.984752 308.1264 102.297934 308.410889 101.791612 308.917212 
C 101.285289 309.423534 101.0008 310.110352 101.0008 310.8264 
C 101.0008 311.542448 101.285289 312.229266 101.791612 312.735588 
C 102.297934 313.241911 102.984752 313.5264 103.7008 313.5264 
z
" clip-path="url(#pcf23c61403)" style="fill: #ffffff; stroke: #000000; stroke-width: 2; stroke-linejoin: miter"/>
   </g>
   <g id="text_8">
    <!-- $V_\mathrm{en}$ -->
    <g transform="translate(93.572164 299.626924) scale(0.16 -0.16)">
     <use xlink:href="#CMMI12-56" transform="scale(0.996264)"/>
     <use xlink:href="#CMR17-65" transform="translate(56.869579 -14.943915) scale(0.697382)"/>
     <use xlink:href="#CMR17-6e" transform="translate(85.209411 -14.943915) scale(0.697382)"/>
    </g>
   </g>
   <g id="patch_18">
    <path d="M 38.0008 347.7264 
C 38.716848 347.7264 39.403666 347.441911 39.909988 346.935588 
C 40.416311 346.429266 40.7008 345.742448 40.7008 345.0264 
C 40.7008 344.310352 40.416311 343.623534 39.909988 343.117212 
C 39.403666 342.610889 38.716848 342.3264 38.0008 342.3264 
C 37.284752 342.3264 36.597934 342.610889 36.091612 343.117212 
C 35.585289 343.623534 35.3008 344.310352 35.3008 345.0264 
C 35.3008 345.742448 35.585289 346.429266 36.091612 346.935588 
C 36.597934 347.441911 37.284752 347.7264 38.0008 347.7264 
z
" clip-path="url(#pcf23c61403)" style="fill: #ffffff; stroke: #000000; stroke-width: 2; stroke-linejoin: miter"/>
   </g>
   <g id="text_9">
    <!-- $V_\mathrm{in,n}$ -->
    <g transform="translate(2.204779 348.192316) scale(0.16 -0.16)">
     <defs>
      <path id="CMR17-69" d="M 992 3961 
C 992 4102 877 4224 730 4224 
C 589 4224 467 4108 467 3961 
C 467 3820 582 3699 730 3699 
C 870 3699 992 3814 992 3961 
z
M 243 2745 
L 243 2579 
C 602 2579 653 2540 653 2231 
L 653 443 
C 653 198 627 166 218 166 
L 218 0 
C 371 12 646 12 806 12 
C 960 12 1222 12 1370 0 
L 1370 166 
C 992 166 979 205 979 436 
L 979 2816 
L 243 2745 
z
" transform="scale(0.015625)"/>
      <path id="CMMI12-3b" d="M 1248 -26 
C 1248 345 1126 620 864 620 
C 659 620 557 454 557 313 
C 557 172 653 0 870 0 
C 954 0 1024 25 1082 83 
C 1094 96 1101 96 1107 96 
C 1120 96 1120 6 1120 -26 
C 1120 -233 1082 -642 710 -1051 
C 640 -1127 640 -1140 640 -1152 
C 640 -1184 672 -1216 704 -1216 
C 755 -1216 1248 -749 1248 -26 
z
" transform="scale(0.015625)"/>
     </defs>
     <use xlink:href="#CMMI12-56" transform="scale(0.996264)"/>
     <use xlink:href="#CMR17-69" transform="translate(56.869579 -14.943915) scale(0.697382)"/>
     <use xlink:href="#CMR17-6e" transform="translate(74.279238 -14.943915) scale(0.697382)"/>
     <use xlink:href="#CMMI12-3b" transform="translate(109.905846 -14.943915) scale(0.697382)"/>
     <use xlink:href="#CMR17-6e" transform="translate(128.873779 -14.943915) scale(0.697382)"/>
    </g>
   </g>
   <g id="patch_19">
    <path d="M 216.0208 205.7064 
C 216.736848 205.7064 217.423666 205.421911 217.929988 204.915588 
C 218.436311 204.409266 218.7208 203.722448 218.7208 203.0064 
C 218.7208 202.290352 218.436311 201.603534 217.929988 201.097212 
C 217.423666 200.590889 216.736848 200.3064 216.0208 200.3064 
C 215.304752 200.3064 214.617934 200.590889 214.111612 201.097212 
C 213.605289 201.603534 213.3208 202.290352 213.3208 203.0064 
C 213.3208 203.722448 213.605289 204.409266 214.111612 204.915588 
C 214.617934 205.421911 215.304752 205.7064 216.0208 205.7064 
z
" clip-path="url(#pcf23c61403)" style="stroke: #000000; stroke-width: 2; stroke-linejoin: miter"/>
   </g>
   <g id="text_10">
    <!-- $\mathrm{E}$ -->
    <g transform="translate(255.711129 235.675988) scale(0.16 -0.16)">
     <defs>
      <path id="CMR17-45" d="M 3885 1614 
L 3770 1614 
C 3629 676 3546 166 2419 166 
L 1530 166 
C 1274 166 1261 198 1261 415 
L 1261 2176 
L 1862 2176 
C 2464 2176 2522 1959 2522 1429 
L 2637 1429 
L 2637 3086 
L 2522 3086 
C 2522 2558 2464 2342 1862 2342 
L 1261 2342 
L 1261 3924 
C 1261 4141 1274 4172 1530 4172 
L 2406 4172 
C 3398 4172 3514 3778 3603 2933 
L 3718 2933 
L 3565 4339 
L 326 4339 
L 326 4172 
C 768 4172 838 4172 838 3886 
L 838 453 
C 838 166 768 166 326 166 
L 326 0 
L 3654 0 
L 3885 1614 
z
" transform="scale(0.015625)"/>
     </defs>
     <use xlink:href="#CMR17-45" transform="scale(0.996264)"/>
    </g>
   </g>
   <g id="patch_20">
    <path d="M 265.3408 171.5064 
C 266.056848 171.5064 266.743666 171.221911 267.249988 170.715588 
C 267.756311 170.209266 268.0408 169.522448 268.0408 168.8064 
C 268.0408 168.090352 267.756311 167.403534 267.249988 166.897212 
C 266.743666 166.390889 266.056848 166.1064 265.3408 166.1064 
C 264.624752 166.1064 263.937934 166.390889 263.431612 166.897212 
C 262.925289 167.403534 262.6408 168.090352 262.6408 168.8064 
C 262.6408 169.522448 262.925289 170.209266 263.431612 170.715588 
C 263.937934 171.221911 264.624752 171.5064 265.3408 171.5064 
z
" clip-path="url(#pcf23c61403)" style="fill: #ffffff; stroke: #000000; stroke-width: 2; stroke-linejoin: miter"/>
   </g>
   <g id="text_11">
    <!-- $V_\mathrm{en}$ -->
    <g transform="translate(255.212164 157.606924) scale(0.16 -0.16)">
     <use xlink:href="#CMMI12-56" transform="scale(0.996264)"/>
     <use xlink:href="#CMR17-65" transform="translate(56.869579 -14.943915) scale(0.697382)"/>
     <use xlink:href="#CMR17-6e" transform="translate(85.209411 -14.943915) scale(0.697382)"/>
    </g>
   </g>
   <g id="patch_21">
    <path d="M 313.0408 205.7064 
C 313.756848 205.7064 314.443666 205.421911 314.949988 204.915588 
C 315.456311 204.409266 315.7408 203.722448 315.7408 203.0064 
C 315.7408 202.290352 315.456311 201.603534 314.949988 201.097212 
C 314.443666 200.590889 313.756848 200.3064 313.0408 200.3064 
C 312.324752 200.3064 311.637934 200.590889 311.131612 201.097212 
C 310.625289 201.603534 310.3408 202.290352 310.3408 203.0064 
C 310.3408 203.722448 310.625289 204.409266 311.131612 204.915588 
C 311.637934 205.421911 312.324752 205.7064 313.0408 205.7064 
z
" clip-path="url(#pcf23c61403)" style="stroke: #000000; stroke-width: 2; stroke-linejoin: miter"/>
   </g>
   <g id="text_12">
    <!-- $\mathrm{D}$ -->
    <g transform="translate(352.080797 235.675988) scale(0.16 -0.16)">
     <defs>
      <path id="CMR17-44" d="M 333 4352 
L 333 4185 
C 774 4185 845 4185 845 3898 
L 845 453 
C 845 166 774 166 333 166 
L 333 0 
L 2368 0 
C 3398 0 4224 943 4224 2140 
C 4224 3344 3411 4352 2368 4352 
L 333 4352 
z
M 1523 166 
C 1267 166 1254 198 1254 414 
L 1254 3936 
C 1254 4153 1267 4185 1523 4185 
L 2240 4185 
C 2771 4185 3750 3873 3750 2140 
C 3750 1242 3488 879 3366 707 
C 3213 510 2848 166 2240 166 
L 1523 166 
z
" transform="scale(0.015625)"/>
     </defs>
     <use xlink:href="#CMR17-44" transform="scale(0.996264)"/>
    </g>
   </g>
   <g id="patch_22">
    <path d="M 362.3608 171.5064 
C 363.076848 171.5064 363.763666 171.221911 364.269988 170.715588 
C 364.776311 170.209266 365.0608 169.522448 365.0608 168.8064 
C 365.0608 168.090352 364.776311 167.403534 364.269988 166.897212 
C 363.763666 166.390889 363.076848 166.1064 362.3608 166.1064 
C 361.644752 166.1064 360.957934 166.390889 360.451612 166.897212 
C 359.945289 167.403534 359.6608 168.090352 359.6608 168.8064 
C 359.6608 169.522448 359.945289 170.209266 360.451612 170.715588 
C 360.957934 171.221911 361.644752 171.5064 362.3608 171.5064 
z
" clip-path="url(#pcf23c61403)" style="fill: #ffffff; stroke: #000000; stroke-width: 2; stroke-linejoin: miter"/>
   </g>
   <g id="text_13">
    <!-- $V_\mathrm{en}$ -->
    <g transform="translate(352.232164 157.606924) scale(0.16 -0.16)">
     <use xlink:href="#CMMI12-56" transform="scale(0.996264)"/>
     <use xlink:href="#CMR17-65" transform="translate(56.869579 -14.943915) scale(0.697382)"/>
     <use xlink:href="#CMR17-6e" transform="translate(85.209411 -14.943915) scale(0.697382)"/>
    </g>
   </g>
   <g id="patch_23">
    <path d="M 410.0608 205.7064 
C 410.776848 205.7064 411.463666 205.421911 411.969988 204.915588 
C 412.476311 204.409266 412.7608 203.722448 412.7608 203.0064 
C 412.7608 202.290352 412.476311 201.603534 411.969988 201.097212 
C 411.463666 200.590889 410.776848 200.3064 410.0608 200.3064 
C 409.344752 200.3064 408.657934 200.590889 408.151612 201.097212 
C 407.645289 201.603534 407.3608 202.290352 407.3608 203.0064 
C 407.3608 203.722448 407.645289 204.409266 408.151612 204.915588 
C 408.657934 205.421911 409.344752 205.7064 410.0608 205.7064 
z
" clip-path="url(#pcf23c61403)" style="stroke: #000000; stroke-width: 2; stroke-linejoin: miter"/>
   </g>
   <g id="text_14">
    <!-- $\mathrm{C}$ -->
    <g transform="translate(449.424587 235.675988) scale(0.16 -0.16)">
     <defs>
      <path id="CMR17-43" d="M 3974 4351 
C 3974 4467 3968 4473 3930 4473 
C 3904 4473 3898 4467 3853 4390 
L 3571 3849 
C 3258 4249 2874 4480 2381 4480 
C 1286 4480 294 3507 294 2179 
C 294 837 1286 -128 2387 -128 
C 3366 -128 3974 741 3974 1482 
C 3974 1547 3974 1573 3917 1573 
C 3866 1573 3866 1553 3859 1495 
C 3808 592 3168 38 2477 38 
C 1824 38 781 502 781 2179 
C 781 3862 1843 4313 2464 4313 
C 3187 4313 3712 3681 3834 2785 
C 3846 2707 3846 2695 3904 2695 
C 3974 2695 3974 2707 3974 2824 
L 3974 4351 
z
" transform="scale(0.015625)"/>
     </defs>
     <use xlink:href="#CMR17-43" transform="scale(0.996264)"/>
    </g>
   </g>
   <g id="patch_24">
    <path d="M 459.3808 171.5064 
C 460.096848 171.5064 460.783666 171.221911 461.289988 170.715588 
C 461.796311 170.209266 462.0808 169.522448 462.0808 168.8064 
C 462.0808 168.090352 461.796311 167.403534 461.289988 166.897212 
C 460.783666 166.390889 460.096848 166.1064 459.3808 166.1064 
C 458.664752 166.1064 457.977934 166.390889 457.471612 166.897212 
C 456.965289 167.403534 456.6808 168.090352 456.6808 168.8064 
C 456.6808 169.522448 456.965289 170.209266 457.471612 170.715588 
C 457.977934 171.221911 458.664752 171.5064 459.3808 171.5064 
z
" clip-path="url(#pcf23c61403)" style="fill: #ffffff; stroke: #000000; stroke-width: 2; stroke-linejoin: miter"/>
   </g>
   <g id="text_15">
    <!-- $V_\mathrm{en}$ -->
    <g transform="translate(449.252164 157.606924) scale(0.16 -0.16)">
     <use xlink:href="#CMMI12-56" transform="scale(0.996264)"/>
     <use xlink:href="#CMR17-65" transform="translate(56.869579 -14.943915) scale(0.697382)"/>
     <use xlink:href="#CMR17-6e" transform="translate(85.209411 -14.943915) scale(0.697382)"/>
    </g>
   </g>
   <g id="patch_25">
    <path d="M 507.0808 205.7064 
C 507.796848 205.7064 508.483666 205.421911 508.989988 204.915588 
C 509.496311 204.409266 509.7808 203.722448 509.7808 203.0064 
C 509.7808 202.290352 509.496311 201.603534 508.989988 201.097212 
C 508.483666 200.590889 507.796848 200.3064 507.0808 200.3064 
C 506.364752 200.3064 505.677934 200.590889 505.171612 201.097212 
C 504.665289 201.603534 504.3808 202.290352 504.3808 203.0064 
C 504.3808 203.722448 504.665289 204.409266 505.171612 204.915588 
C 505.677934 205.421911 506.364752 205.7064 507.0808 205.7064 
z
" clip-path="url(#pcf23c61403)" style="stroke: #000000; stroke-width: 2; stroke-linejoin: miter"/>
   </g>
   <g id="patch_26">
    <path d="M 543.0808 205.7064 
C 543.796848 205.7064 544.483666 205.421911 544.989988 204.915588 
C 545.496311 204.409266 545.7808 203.722448 545.7808 203.0064 
C 545.7808 202.290352 545.496311 201.603534 544.989988 201.097212 
C 544.483666 200.590889 543.796848 200.3064 543.0808 200.3064 
C 542.364752 200.3064 541.677934 200.590889 541.171612 201.097212 
C 540.665289 201.603534 540.3808 202.290352 540.3808 203.0064 
C 540.3808 203.722448 540.665289 204.409266 541.171612 204.915588 
C 541.677934 205.421911 542.364752 205.7064 543.0808 205.7064 
z
" clip-path="url(#pcf23c61403)" style="stroke: #000000; stroke-width: 2; stroke-linejoin: miter"/>
   </g>
   <g id="text_16">
    <!-- $\mathrm{B}$ -->
    <g transform="translate(510.427903 134.991456) scale(0.16 -0.16)">
     <defs>
      <path id="CMR17-42" d="M 333 4352 
L 333 4185 
C 774 4185 845 4185 845 3897 
L 845 451 
C 845 166 774 166 333 166 
L 333 0 
L 2534 0 
C 3354 0 3885 578 3885 1155 
C 3885 1726 3360 2214 2675 2259 
C 3290 2380 3718 2790 3718 3276 
C 3718 3808 3194 4352 2368 4352 
L 333 4352 
z
M 1248 2304 
L 1248 3936 
C 1248 4153 1261 4185 1517 4185 
L 2336 4185 
C 2970 4185 3251 3673 3251 3276 
C 3251 2790 2861 2304 2170 2304 
L 1248 2304 
z
M 1517 166 
C 1261 166 1248 198 1248 413 
L 1248 2201 
L 2432 2201 
C 3091 2201 3411 1624 3411 1161 
C 3411 698 3046 166 2349 166 
L 1517 166 
z
" transform="scale(0.015625)"/>
     </defs>
     <use xlink:href="#CMR17-42" transform="scale(0.996264)"/>
    </g>
   </g>
   <g id="patch_27">
    <path d="M 577.2808 129.3864 
C 577.996848 129.3864 578.683666 129.101911 579.189988 128.595588 
C 579.696311 128.089266 579.9808 127.402448 579.9808 126.6864 
C 579.9808 125.970352 579.696311 125.283534 579.189988 124.777212 
C 578.683666 124.270889 577.996848 123.9864 577.2808 123.9864 
C 576.564752 123.9864 575.877934 124.270889 575.371612 124.777212 
C 574.865289 125.283534 574.5808 125.970352 574.5808 126.6864 
C 574.5808 127.402448 574.865289 128.089266 575.371612 128.595588 
C 575.877934 129.101911 576.564752 129.3864 577.2808 129.3864 
z
" clip-path="url(#pcf23c61403)" style="fill: #ffffff; stroke: #000000; stroke-width: 2; stroke-linejoin: miter"/>
   </g>
   <g id="text_17">
    <!-- $V_\mathrm{en}$ -->
    <g transform="translate(585.3808 130.671456) scale(0.16 -0.16)">
     <use xlink:href="#CMMI12-56" transform="scale(0.996264)"/>
     <use xlink:href="#CMR17-65" transform="translate(56.869579 -14.943915) scale(0.697382)"/>
     <use xlink:href="#CMR17-6e" transform="translate(85.209411 -14.943915) scale(0.697382)"/>
    </g>
   </g>
   <g id="patch_28">
    <path d="M 543.0808 63.6864 
C 543.796848 63.6864 544.483666 63.401911 544.989988 62.895588 
C 545.496311 62.389266 545.7808 61.702448 545.7808 60.9864 
C 545.7808 60.270352 545.496311 59.583534 544.989988 59.077212 
C 544.483666 58.570889 543.796848 58.2864 543.0808 58.2864 
C 542.364752 58.2864 541.677934 58.570889 541.171612 59.077212 
C 540.665289 59.583534 540.3808 60.270352 540.3808 60.9864 
C 540.3808 61.702448 540.665289 62.389266 541.171612 62.895588 
C 541.677934 63.401911 542.364752 63.6864 543.0808 63.6864 
z
" clip-path="url(#pcf23c61403)" style="stroke: #000000; stroke-width: 2; stroke-linejoin: miter"/>
   </g>
   <g id="patch_29">
    <path d="M 615.0808 63.6864 
C 615.796848 63.6864 616.483666 63.401911 616.989988 62.895588 
C 617.496311 62.389266 617.7808 61.702448 617.7808 60.9864 
C 617.7808 60.270352 617.496311 59.583534 616.989988 59.077212 
C 616.483666 58.570889 615.796848 58.2864 615.0808 58.2864 
C 614.364752 58.2864 613.677934 58.570889 613.171612 59.077212 
C 612.665289 59.583534 612.3808 60.270352 612.3808 60.9864 
C 612.3808 61.702448 612.665289 62.389266 613.171612 62.895588 
C 613.677934 63.401911 614.364752 63.6864 615.0808 63.6864 
z
" clip-path="url(#pcf23c61403)" style="fill: #ffffff; stroke: #000000; stroke-width: 2; stroke-linejoin: miter"/>
   </g>
   <g id="text_18">
    <!-- $V_\mathrm{out,n}$ -->
    <g transform="translate(623.1808 64.152316) scale(0.16 -0.16)">
     <defs>
      <path id="CMR17-6f" d="M 2758 1356 
C 2758 2176 2163 2816 1466 2816 
C 768 2816 173 2176 173 1356 
C 173 550 768 -64 1466 -64 
C 2163 -64 2758 550 2758 1356 
z
M 1466 51 
C 1165 51 909 230 762 480 
C 602 768 582 1126 582 1408 
C 582 1676 595 2009 762 2297 
C 890 2508 1139 2713 1466 2713 
C 1754 2713 1997 2553 2150 2329 
C 2349 2028 2349 1606 2349 1408 
C 2349 1158 2336 774 2163 467 
C 1984 172 1709 51 1466 51 
z
" transform="scale(0.015625)"/>
      <path id="CMR17-75" d="M 1882 2745 
L 1882 2579 
C 2259 2579 2317 2540 2317 2229 
L 2317 1053 
C 2317 510 2029 38 1555 38 
C 1030 38 986 355 986 691 
L 986 2816 
L 211 2745 
L 211 2579 
C 467 2579 640 2579 646 2320 
L 646 1079 
C 646 646 646 368 813 187 
C 896 103 1056 -64 1517 -64 
C 2061 -64 2272 400 2323 536 
L 2330 536 
L 2330 -64 
L 3091 -13 
L 3091 154 
C 2714 154 2656 193 2656 503 
L 2656 2816 
L 1882 2745 
z
" transform="scale(0.015625)"/>
      <path id="CMR17-74" d="M 966 2585 
L 1862 2585 
L 1862 2752 
L 966 2752 
L 966 3968 
L 851 3968 
C 838 3292 614 2700 70 2687 
L 70 2585 
L 627 2585 
L 627 778 
C 627 655 627 -64 1370 -64 
C 1747 -64 1965 308 1965 784 
L 1965 1151 
L 1850 1151 
L 1850 790 
C 1850 347 1677 51 1408 51 
C 1222 51 966 179 966 765 
L 966 2585 
z
" transform="scale(0.015625)"/>
     </defs>
     <use xlink:href="#CMMI12-56" transform="scale(0.996264)"/>
     <use xlink:href="#CMR17-6f" transform="translate(56.869579 -14.943915) scale(0.697382)"/>
     <use xlink:href="#CMR17-75" transform="translate(88.852761 -14.943915) scale(0.697382)"/>
     <use xlink:href="#CMR17-74" transform="translate(124.479369 -14.943915) scale(0.697382)"/>
     <use xlink:href="#CMMI12-3b" transform="translate(149.17579 -14.943915) scale(0.697382)"/>
     <use xlink:href="#CMR17-6e" transform="translate(168.143723 -14.943915) scale(0.697382)"/>
    </g>
   </g>
   <g id="text_19">
    <!-- $\mathrm{B}$ -->
    <g transform="translate(510.427903 278.991456) scale(0.16 -0.16)">
     <use xlink:href="#CMR17-42" transform="scale(0.996264)"/>
    </g>
   </g>
   <g id="patch_30">
    <path d="M 577.2808 282.0264 
C 577.996848 282.0264 578.683666 281.741911 579.189988 281.235588 
C 579.696311 280.729266 579.9808 280.042448 579.9808 279.3264 
C 579.9808 278.610352 579.696311 277.923534 579.189988 277.417212 
C 578.683666 276.910889 577.996848 276.6264 577.2808 276.6264 
C 576.564752 276.6264 575.877934 276.910889 575.371612 277.417212 
C 574.865289 277.923534 574.5808 278.610352 574.5808 279.3264 
C 574.5808 280.042448 574.865289 280.729266 575.371612 281.235588 
C 575.877934 281.741911 576.564752 282.0264 577.2808 282.0264 
z
" clip-path="url(#pcf23c61403)" style="fill: #ffffff; stroke: #000000; stroke-width: 2; stroke-linejoin: miter"/>
   </g>
   <g id="text_20">
    <!-- $V_\mathrm{en}$ -->
    <g transform="translate(585.3808 283.311456) scale(0.16 -0.16)">
     <use xlink:href="#CMMI12-56" transform="scale(0.996264)"/>
     <use xlink:href="#CMR17-65" transform="translate(56.869579 -14.943915) scale(0.697382)"/>
     <use xlink:href="#CMR17-6e" transform="translate(85.209411 -14.943915) scale(0.697382)"/>
    </g>
   </g>
   <g id="patch_31">
    <path d="M 543.0808 347.7264 
C 543.796848 347.7264 544.483666 347.441911 544.989988 346.935588 
C 545.496311 346.429266 545.7808 345.742448 545.7808 345.0264 
C 545.7808 344.310352 545.496311 343.623534 544.989988 343.117212 
C 544.483666 342.610889 543.796848 342.3264 543.0808 342.3264 
C 542.364752 342.3264 541.677934 342.610889 541.171612 343.117212 
C 540.665289 343.623534 540.3808 344.310352 540.3808 345.0264 
C 540.3808 345.742448 540.665289 346.429266 541.171612 346.935588 
C 541.677934 347.441911 542.364752 347.7264 543.0808 347.7264 
z
" clip-path="url(#pcf23c61403)" style="stroke: #000000; stroke-width: 2; stroke-linejoin: miter"/>
   </g>
   <g id="patch_32">
    <path d="M 615.0808 347.7264 
C 615.796848 347.7264 616.483666 347.441911 616.989988 346.935588 
C 617.496311 346.429266 617.7808 345.742448 617.7808 345.0264 
C 617.7808 344.310352 617.496311 343.623534 616.989988 343.117212 
C 616.483666 342.610889 615.796848 342.3264 615.0808 342.3264 
C 614.364752 342.3264 613.677934 342.610889 613.171612 343.117212 
C 612.665289 343.623534 612.3808 344.310352 612.3808 345.0264 
C 612.3808 345.742448 612.665289 346.429266 613.171612 346.935588 
C 613.677934 347.441911 614.364752 347.7264 615.0808 347.7264 
z
" clip-path="url(#pcf23c61403)" style="fill: #ffffff; stroke: #000000; stroke-width: 2; stroke-linejoin: miter"/>
   </g>
   <g id="text_21">
    <!-- $V_\mathrm{out,p}$ -->
    <g transform="translate(623.1808 348.192316) scale(0.16 -0.16)">
     <defs>
      <path id="CMR17-70" d="M 1408 -1114 
C 998 -1114 973 -1088 973 -834 
L 973 380 
C 1158 109 1427 -64 1766 -64 
C 2406 -64 3053 503 3053 1382 
C 3053 2196 2496 2816 1837 2816 
C 1453 2816 1139 2603 960 2345 
L 960 2816 
L 198 2745 
L 198 2577 
C 576 2577 634 2539 634 2228 
L 634 -834 
C 634 -1081 608 -1114 198 -1114 
L 198 -1280 
C 352 -1268 634 -1268 800 -1268 
C 966 -1268 1254 -1268 1408 -1280 
L 1408 -1114 
z
M 973 2015 
C 973 2106 973 2241 1222 2481 
C 1254 2506 1472 2700 1792 2700 
C 2259 2700 2643 2112 2643 1376 
C 2643 639 2234 38 1728 38 
C 1498 38 1248 148 1056 451 
C 973 594 973 632 973 736 
L 973 2015 
z
" transform="scale(0.015625)"/>
     </defs>
     <use xlink:href="#CMMI12-56" transform="scale(0.996264)"/>
     <use xlink:href="#CMR17-6f" transform="translate(56.869579 -14.943915) scale(0.697382)"/>
     <use xlink:href="#CMR17-75" transform="translate(88.852761 -14.943915) scale(0.697382)"/>
     <use xlink:href="#CMR17-74" transform="translate(124.479369 -14.943915) scale(0.697382)"/>
     <use xlink:href="#CMMI12-3b" transform="translate(149.17579 -14.943915) scale(0.697382)"/>
     <use xlink:href="#CMR17-70" transform="translate(168.143723 -14.943915) scale(0.697382)"/>
    </g>
   </g>
   <g id="patch_33">
    <path d="M 38.0008 63.6864 
C 38.716848 63.6864 39.403666 63.401911 39.909988 62.895588 
C 40.416311 62.389266 40.7008 61.702448 40.7008 60.9864 
C 40.7008 60.270352 40.416311 59.583534 39.909988 59.077212 
C 39.403666 58.570889 38.716848 58.2864 38.0008 58.2864 
C 37.284752 58.2864 36.597934 58.570889 36.091612 59.077212 
C 35.585289 59.583534 35.3008 60.270352 35.3008 60.9864 
C 35.3008 61.702448 35.585289 62.389266 36.091612 62.895588 
C 36.597934 63.401911 37.284752 63.6864 38.0008 63.6864 
z
" clip-path="url(#pcf23c61403)" style="fill: #ffffff; stroke: #000000; stroke-width: 2; stroke-linejoin: miter"/>
   </g>
   <g id="text_22">
    <!-- $V_\mathrm{in,p}$ -->
    <g transform="translate(2.204779 64.152316) scale(0.16 -0.16)">
     <use xlink:href="#CMMI12-56" transform="scale(0.996264)"/>
     <use xlink:href="#CMR17-69" transform="translate(56.869579 -14.943915) scale(0.697382)"/>
     <use xlink:href="#CMR17-6e" transform="translate(74.279238 -14.943915) scale(0.697382)"/>
     <use xlink:href="#CMMI12-3b" transform="translate(109.905846 -14.943915) scale(0.697382)"/>
     <use xlink:href="#CMR17-70" transform="translate(128.873779 -14.943915) scale(0.697382)"/>
    </g>
   </g>
  </g>
 </g>
 <defs>
  <clipPath id="pcf23c61403">
   <rect x="0" y="-0" width="659.9248" height="381.8184"/>
  </clipPath>
 </defs>
</svg>
